<svg width="678" height="392" viewBox="0 0 678 392" fill="none" xmlns="http://www.w3.org/2000/svg">
<g clip-path="url(#clip0_20_295)">
<mask id="mask0_20_295" style="mask-type:luminance" maskUnits="userSpaceOnUse" x="0" y="0" width="678" height="392">
<path d="M677.494 0H0V391.547H677.494V0Z" fill="white"/>
</mask>
<g mask="url(#mask0_20_295)">
<path d="M641.745 236.811C617.802 298.815 572.786 353.136 510.26 377.009C502.127 380.109 493.823 382.739 485.389 384.886C440.779 396.261 391.976 392.305 350.853 371.577C333.4 362.773 317.485 351.139 299.969 342.462C282.453 333.784 262.45 328.104 243.385 332.388C226.969 336.076 213.12 346.645 199.175 356.06C166.302 378.258 126.776 395.824 87.8503 388.2C69.9389 384.696 52.3014 374.991 43.9831 358.768C25.5976 322.904 60.272 280.263 53.2497 240.599C48.756 215.214 28.2316 196.204 15.4724 173.801C-6.36377 135.481 -3.78243 84.5793 21.8204 48.6724C47.4232 12.7654 94.6883 -6.28133 138.023 1.86426C190.867 11.8013 230.82 56.5281 282.205 72.3556C314.34 82.2452 349.231 79.2946 379.922 66.2701C429.511 45.2214 497.637 12.9393 553.442 18.1976C583.117 20.9953 612.223 34.1674 631.81 56.6598C656.57 85.0535 663.992 125.365 659.862 162.805C657.028 188.15 650.938 213.024 641.745 236.811Z" fill="url(#paint0_linear_20_295)"/>
<path d="M657.676 285.854C656.575 285.853 655.479 285.721 654.41 285.459C651.027 284.628 648.093 282.538 646.202 279.615C644.311 276.691 643.605 273.156 644.232 269.731C644.853 266.306 646.766 263.248 649.568 261.183C652.371 259.118 655.858 258.201 659.314 258.619C662.77 259.037 665.936 260.759 668.164 263.433C670.398 266.107 671.52 269.532 671.315 273.007C671.104 276.483 669.576 279.748 667.042 282.136C664.508 284.524 661.158 285.853 657.676 285.854ZM657.676 264.684C655.864 264.691 654.12 265.36 652.766 266.565C651.412 267.77 650.548 269.428 650.332 271.227C650.121 273.025 650.569 274.84 651.602 276.33C652.629 277.821 654.167 278.882 655.927 279.316C656.944 279.561 658.002 279.587 659.035 279.393C660.062 279.2 661.037 278.791 661.896 278.192C662.754 277.594 663.481 276.821 664.019 275.923C664.556 275.025 664.904 274.023 665.025 272.984C665.151 271.944 665.051 270.889 664.74 269.89C664.429 268.89 663.908 267.968 663.213 267.184C662.517 266.4 661.669 265.772 660.71 265.341C659.757 264.91 658.724 264.686 657.676 264.684Z" fill="#E7F6FF"/>
<path d="M645.206 300.348C645.981 297.144 644.016 293.916 640.808 293.14C637.605 292.362 634.38 294.33 633.601 297.534C632.826 300.738 634.791 303.965 637.994 304.743C641.203 305.519 644.427 303.552 645.206 300.348Z" fill="#E7F6FF"/>
<path d="M29.0745 284.552C25.4561 284.473 22.0149 282.97 19.4981 280.369C16.9811 277.767 15.5916 274.278 15.6312 270.659C15.6707 267.039 17.1361 263.582 19.7093 261.036C22.2823 258.49 25.7555 257.063 29.3747 257.063C32.994 257.063 36.4671 258.49 39.0403 261.036C41.6134 263.582 43.0788 267.039 43.1183 270.659C43.1578 274.278 41.7683 277.767 39.2515 280.369C36.7345 282.97 33.2934 284.473 29.675 284.552H29.0745ZM29.0745 263.387H28.7636C26.8094 263.43 24.9507 264.241 23.5911 265.646C22.2316 267.051 21.4809 268.935 21.5021 270.89C21.5232 272.845 22.3145 274.712 23.7042 276.087C25.0938 277.462 26.9696 278.233 28.9243 278.233C30.879 278.233 32.7548 277.462 34.1445 276.087C35.5342 274.712 36.3254 272.845 36.3466 270.89C36.3678 268.935 35.6171 267.051 34.2575 265.646C32.8979 264.241 31.0392 263.43 29.085 263.387H29.0745Z" fill="#E7F6FF"/>
<path d="M19.2754 307.62C22.5688 307.478 25.1234 304.693 24.9813 301.398C24.8393 298.105 22.0543 295.55 18.7609 295.692C15.4676 295.834 12.9129 298.619 13.055 301.913C13.197 305.207 15.982 307.762 19.2754 307.62Z" fill="#E7F6FF"/>
<path d="M373.548 62.3075C370.268 62.3101 367.096 61.1388 364.605 59.005C362.114 56.8711 360.469 53.9158 359.968 50.674C359.468 47.4322 360.143 44.1182 361.874 41.3318C363.605 38.5453 366.275 36.4706 369.403 35.4832C372.53 34.4957 375.908 34.6607 378.925 35.9483C381.941 37.2359 384.397 39.5611 385.848 42.5029C387.299 45.4448 387.649 48.8089 386.834 51.9864C386.02 55.164 384.095 57.9449 381.408 59.8258C379.104 61.4381 376.36 62.3043 373.548 62.3075ZM373.506 41.1477C371.587 41.1457 369.741 41.8845 368.353 43.2101C366.966 44.5357 366.143 46.3458 366.057 48.2632C365.97 50.1805 366.627 52.0572 367.891 53.5022C369.154 54.9469 370.926 55.8484 372.837 56.0186C374.749 56.1888 376.652 55.615 378.151 54.4158C379.65 53.2172 380.628 51.4862 380.882 49.5838C381.136 47.6814 380.646 45.7544 379.514 44.2043C378.383 42.6543 376.696 41.6009 374.807 41.2636C374.378 41.187 373.942 41.1482 373.506 41.1477Z" fill="#E7F6FF"/>
<path d="M345.525 61.5572C348.223 59.6641 348.877 55.9417 346.984 53.2419C345.091 50.5428 341.37 49.8891 338.671 51.7819C335.971 53.675 335.318 57.3974 337.21 60.0972C339.103 62.7964 342.826 63.4503 345.525 61.5572Z" fill="#E7F6FF"/>
<path d="M677.473 133.12C677.473 127.327 675.171 121.771 671.078 117.674C666.979 113.577 661.427 111.276 655.632 111.276C655.147 111.276 654.668 111.276 654.194 111.323C654.225 110.849 654.241 110.37 654.241 109.885C654.241 106.78 653.577 103.711 652.297 100.883C651.017 98.0543 649.152 95.531 646.818 93.4815C644.485 91.4319 641.745 89.9029 638.774 88.9966C635.808 88.0899 632.679 87.827 629.602 88.2248C626.521 88.6231 623.565 89.6726 620.921 91.3039C618.281 92.9356 616.016 95.1116 614.283 97.6865C612.55 100.262 611.385 103.177 610.864 106.238C610.348 109.299 610.485 112.436 611.275 115.438C608.635 113.524 605.601 112.225 602.393 111.636C599.185 111.048 595.887 111.185 592.742 112.038C589.591 112.891 586.678 114.438 584.202 116.565C581.731 118.693 579.772 121.347 578.455 124.332C577.143 127.318 576.516 130.559 576.621 133.819C576.727 137.079 577.559 140.273 579.06 143.17C580.557 146.065 582.685 148.589 585.287 150.554C587.89 152.52 590.898 153.877 594.096 154.528C595.402 157.988 597.562 161.061 600.38 163.458C603.194 165.854 606.576 167.496 610.195 168.23C613.819 168.964 617.575 168.766 621.1 167.654C624.624 166.542 627.811 164.553 630.361 161.872C632.969 163.841 635.982 165.199 639.185 165.847C642.388 166.496 645.691 166.418 648.857 165.619C652.029 164.82 654.973 163.321 657.486 161.232C659.999 159.143 662.006 156.517 663.371 153.548C667.517 151.976 671.083 149.18 673.607 145.532C676.125 141.883 677.473 137.555 677.473 133.12Z" fill="white"/>
<path d="M100.857 80.6119C100.86 77.7419 100.297 74.8994 99.2014 72.2471C98.1051 69.5948 96.4973 67.1843 94.4691 65.1537C92.4414 63.1231 90.0333 61.5119 87.3825 60.4128C84.7321 59.3132 81.8905 58.7468 79.021 58.7463C78.5363 58.7463 78.0569 58.7463 77.5828 58.7937C77.6144 58.3195 77.6302 57.84 77.6302 57.3553C77.6297 54.2509 76.9675 51.1818 75.6874 48.3532C74.4077 45.5246 72.5397 43.0015 70.208 40.9518C67.8764 38.9022 65.1344 37.3732 62.1653 36.4668C59.1962 35.5604 56.068 35.2974 52.9894 35.6953C49.9109 36.0932 46.9524 37.1429 44.3113 38.7744C41.6701 40.4059 39.4071 42.5818 37.673 45.1569C35.9389 47.732 34.7736 50.6473 34.2547 53.7082C33.7358 56.7694 33.8753 59.9059 34.6639 62.9086C32.0242 60.9939 28.9893 59.6947 25.782 59.1066C22.5747 58.5181 19.2763 58.6556 16.129 59.5081C12.9817 60.3612 10.0652 61.9081 7.59371 64.0356C5.12219 66.1632 3.15831 68.8171 1.84618 71.8024C0.534057 74.7882 -0.0930143 78.0296 0.0109918 81.2894C0.114998 84.5487 0.947442 87.7437 2.44723 90.6395C3.94701 93.5357 6.07609 96.059 8.6782 98.0242C11.2803 99.9895 14.2894 101.348 17.4847 101.998C18.7906 105.455 20.9522 108.525 23.7671 110.919C26.5821 113.314 29.9585 114.955 33.5803 115.688C37.202 116.422 40.9507 116.225 44.4755 115.115C48.0004 114.006 51.186 112.019 53.7343 109.343C56.3414 111.311 59.3569 112.669 62.5583 113.318C65.7597 113.966 69.0659 113.888 72.2331 113.089C75.4002 112.29 78.3483 110.791 80.8595 108.702C83.3708 106.613 85.3817 103.987 86.744 101.018C90.8878 99.4495 94.4569 96.6575 96.9777 93.0131C99.4985 89.3686 100.851 85.0435 100.857 80.6119Z" fill="white"/>
<path d="M502.668 391.436H188.428V384.587H502.668C503.577 384.587 504.447 384.948 505.09 385.589C505.732 386.232 506.093 387.103 506.093 388.012C506.093 388.92 505.732 389.791 505.09 390.433C504.447 391.075 503.577 391.436 502.668 391.436Z" fill="#426572"/>
<path d="M174.373 391.436H155.16C154.252 391.436 153.381 391.075 152.739 390.433C152.097 389.791 151.736 388.92 151.736 388.012C151.736 387.103 152.097 386.232 152.739 385.589C153.381 384.948 154.252 384.587 155.16 384.587H174.373C175.281 384.587 176.152 384.948 176.794 385.589C177.436 386.232 177.797 387.103 177.797 388.012C177.797 388.92 177.436 389.791 176.794 390.433C176.152 391.075 175.281 391.436 174.373 391.436Z" fill="#426572"/>
<path d="M142.691 391.436H136.569C135.661 391.436 134.79 391.075 134.148 390.433C133.506 389.791 133.145 388.92 133.145 388.012C133.145 387.103 133.506 386.232 134.148 385.589C134.79 384.948 135.661 384.587 136.569 384.587H142.691C143.599 384.587 144.47 384.948 145.112 385.589C145.754 386.232 146.115 387.103 146.115 388.012C146.115 388.92 145.754 389.791 145.112 390.433C144.47 391.075 143.599 391.436 142.691 391.436Z" fill="#426572"/>
<path d="M612.855 391.436H516.27V384.587H612.855C613.761 384.587 614.636 384.948 615.278 385.589C615.921 386.232 616.279 387.103 616.279 388.012C616.279 388.92 615.921 389.791 615.278 390.433C614.636 391.075 613.761 391.436 612.855 391.436Z" fill="#426572"/>
<path d="M119.058 391.436H22.4683V384.587H119.058C119.967 384.587 120.837 384.948 121.479 385.589C122.122 386.232 122.483 387.103 122.483 388.012C122.483 388.92 122.122 389.791 121.479 390.433C120.837 391.075 119.967 391.436 119.058 391.436Z" fill="#426572"/>
<path d="M375.086 92.1084V388.385H54.1768V92.1084C54.1826 90.5046 54.8221 88.9682 55.9558 87.8338C57.09 86.7 58.6262 86.0603 60.2298 86.0545H369.028C369.392 86.0545 369.755 86.0883 370.113 86.1546C371.506 86.4112 372.766 87.1473 373.674 88.2342C374.582 89.3212 375.082 90.6916 375.086 92.1084Z" fill="white"/>
<path d="M59.2236 115.323H376.092V94.0368L370.034 86.0545H92.5283H60.235L55.1882 94.0368V115.323H59.2236Z" fill="#E2F2FF"/>
<path d="M379.253 391.546H52.0275V92.1084C52.0303 89.6653 53.0021 87.3233 54.7295 85.5956C56.4563 83.868 58.7985 82.8959 61.2413 82.8932H370.034C372.477 82.8959 374.819 83.868 376.546 85.5956C378.273 87.3233 379.245 89.6653 379.248 92.1084L379.253 391.546ZM58.3491 385.223H372.932V92.1084C372.93 91.3418 372.625 90.6068 372.083 90.0646C371.541 89.5225 370.806 89.2174 370.039 89.2158H61.2413C60.4748 89.2174 59.7399 89.5225 59.1978 90.0646C58.6557 90.6068 58.3507 91.3418 58.3491 92.1084V385.223Z" fill="#426572"/>
<path d="M73.6159 105.86C75.8448 105.86 77.6512 104.053 77.6512 101.824C77.6512 99.5949 75.8448 97.7882 73.6159 97.7882C71.3875 97.7882 69.5806 99.5949 69.5806 101.824C69.5806 104.053 71.3875 105.86 73.6159 105.86Z" fill="#CADCE8"/>
<path d="M85.722 105.86C87.9509 105.86 89.7573 104.053 89.7573 101.824C89.7573 99.5949 87.9509 97.7882 85.722 97.7882C83.4936 97.7882 81.6866 99.5949 81.6866 101.824C81.6866 104.053 83.4936 105.86 85.722 105.86Z" fill="#CADCE8"/>
<path d="M97.8332 105.86C100.062 105.86 101.869 104.053 101.869 101.824C101.869 99.5949 100.062 97.7882 97.8332 97.7882C95.6048 97.7882 93.7979 99.5949 93.7979 101.824C93.7979 104.053 95.6048 105.86 97.8332 105.86Z" fill="#CADCE8"/>
<path d="M360.315 97.784H114.881C112.989 97.784 111.456 99.3172 111.456 101.209V102.431C111.456 104.323 112.989 105.856 114.881 105.856H360.315C362.206 105.856 363.739 104.323 363.739 102.431V101.209C363.739 99.3172 362.206 97.784 360.315 97.784Z" fill="#CADCE8"/>
<path d="M588.511 34.5775V388.384H267.618V34.5775C267.623 32.9736 268.262 31.437 269.397 30.3029C270.53 29.1688 272.067 28.5292 273.671 28.5237H582.464C582.827 28.5238 583.191 28.5573 583.549 28.6238C584.94 28.8827 586.199 29.6192 587.105 30.7063C588.011 31.7932 588.506 33.1624 588.511 34.5775Z" fill="white"/>
<path d="M272.654 57.7921H589.523V36.5059L583.465 28.5237H305.959H278.712L268.619 36.5059V57.7921H272.654Z" fill="#E2F2FF"/>
<path d="M592.657 391.545H265.458V34.5775C265.46 32.1344 266.432 29.7921 268.159 28.0645C269.887 26.3369 272.229 25.3651 274.672 25.3624H583.465C585.904 25.3707 588.243 26.3449 589.965 28.0719C591.688 29.7989 592.652 32.138 592.657 34.5775V391.545ZM271.753 385.223H586.336V34.5775C586.336 33.8108 586.03 33.0758 585.487 32.5337C584.945 31.9915 584.213 31.6864 583.443 31.6849H274.672C273.905 31.6864 273.17 31.9915 272.628 32.5337C272.086 33.0758 271.781 33.8108 271.779 34.5775L271.753 385.223Z" fill="#426572"/>
<path d="M287.046 48.331C289.275 48.331 291.082 46.524 291.082 44.2951C291.082 42.0661 289.275 40.2591 287.046 40.2591C284.817 40.2591 283.011 42.0661 283.011 44.2951C283.011 46.524 284.817 48.331 287.046 48.331Z" fill="#CADCE8"/>
<path d="M299.152 48.331C301.381 48.331 303.188 46.524 303.188 44.2951C303.188 42.0661 301.381 40.2591 299.152 40.2591C296.924 40.2591 295.117 42.0661 295.117 44.2951C295.117 46.524 296.924 48.331 299.152 48.331Z" fill="#CADCE8"/>
<path d="M311.264 48.331C313.492 48.331 315.299 46.524 315.299 44.2951C315.299 42.0661 313.492 40.2591 311.264 40.2591C309.035 40.2591 307.228 42.0661 307.228 44.2951C307.228 46.524 309.035 48.331 311.264 48.331Z" fill="#CADCE8"/>
<path d="M573.745 40.2591H328.311C326.42 40.2591 324.887 41.7924 324.887 43.6839V44.9062C324.887 46.7976 326.42 48.331 328.311 48.331H573.745C575.636 48.331 577.169 46.7976 577.169 44.9062V43.6839C577.169 41.7924 575.636 40.2591 573.745 40.2591Z" fill="#CADCE8"/>
<path d="M373.258 95.697H307.276V170.888H373.258V95.697Z" fill="#FFCB00"/>
<path d="M535.936 95.697H379.485V170.888H535.936V95.697Z" fill="#FFCB00"/>
<path d="M535.936 179.212H462.067V254.403H535.936V179.212Z" fill="#DDE4ED"/>
<path d="M455.84 179.212H308.108V254.403H455.84V179.212Z" fill="#DDE4ED"/>
<path d="M536.352 262.729H308.108V337.92H536.352V262.729Z" fill="#DDE4ED"/>
<path d="M137.649 279.272H86.2804V284.541H137.649V279.272Z" fill="#DDE4ED"/>
<path d="M137.649 293.403H86.2804V298.672H137.649V293.403Z" fill="#DDE4ED"/>
<path d="M137.649 307.53H86.2804V312.799H137.649V307.53Z" fill="#DDE4ED"/>
<path d="M137.649 321.661H86.2804V326.93H137.649V321.661Z" fill="#DDE4ED"/>
<path d="M137.649 335.79H86.2804V341.059H137.649V335.79Z" fill="#DDE4ED"/>
<path d="M137.649 349.922H86.2804V355.19H137.649V349.922Z" fill="#DDE4ED"/>
<path d="M112.9 241.442L123.057 224.024L138.792 237.227V249.288H95.1307L105.793 234.561L112.9 241.442Z" fill="#DDE4ED"/>
<path d="M158.89 233.218H143.66V214.682L146.705 211.763L158.89 224.203V233.218Z" fill="#DDE4ED"/>
<path d="M102.337 231.702C103.983 231.7 105.592 231.211 106.959 230.296C108.327 229.38 109.392 228.08 110.02 226.558C110.648 225.037 110.812 223.364 110.489 221.75C110.166 220.136 109.372 218.654 108.207 217.492C107.041 216.329 105.558 215.539 103.943 215.22C102.329 214.901 100.656 215.068 99.1366 215.701C97.6173 216.333 96.3198 217.402 95.4079 218.772C94.496 220.142 94.0108 221.752 94.0139 223.398C94.025 225.6 94.9063 227.709 96.4652 229.264C98.0245 230.82 100.135 231.696 102.337 231.702Z" fill="#DDE4ED"/>
<path opacity="0.2" d="M471.455 166.526V384.349H150.551V166.526C150.531 164.897 151.157 163.326 152.291 162.158C153.425 160.989 154.975 160.316 156.604 160.287H465.397C467.026 160.315 468.578 160.987 469.713 162.156C470.849 163.325 471.475 164.896 471.455 166.526Z" fill="#606060"/>
<path d="M459.849 176.889V388.385H138.945V176.889C138.951 175.285 139.59 173.749 140.724 172.614C141.858 171.481 143.395 170.841 144.998 170.835H453.791C454.155 170.835 454.519 170.869 454.876 170.935C456.269 171.192 457.529 171.928 458.437 173.015C459.345 174.102 459.845 175.473 459.849 176.889Z" fill="white"/>
<path d="M143.992 200.098H460.856V178.812L454.803 170.829H177.291H142.48L139.957 178.812V200.098H143.992Z" fill="#E2F2FF"/>
<path d="M158.379 189.63C160.607 189.63 162.414 187.823 162.414 185.594C162.414 183.365 160.607 181.558 158.379 181.558C156.15 181.558 154.344 183.365 154.344 185.594C154.344 187.823 156.15 189.63 158.379 189.63Z" fill="#CADCE8"/>
<path d="M170.49 189.63C172.719 189.63 174.526 187.823 174.526 185.594C174.526 183.365 172.719 181.558 170.49 181.558C168.261 181.558 166.455 183.365 166.455 185.594C166.455 187.823 168.261 189.63 170.49 189.63Z" fill="#CADCE8"/>
<path d="M182.602 189.63C184.83 189.63 186.637 187.823 186.637 185.594C186.637 183.365 184.83 181.558 182.602 181.558C180.373 181.558 178.566 183.365 178.566 185.594C178.566 187.823 180.373 189.63 182.602 189.63Z" fill="#CADCE8"/>
<path d="M445.083 181.558H199.649C197.758 181.558 196.225 183.091 196.225 184.983V186.205C196.225 188.097 197.758 189.63 199.649 189.63H445.083C446.974 189.63 448.507 188.097 448.507 186.205V184.983C448.507 183.091 446.974 181.558 445.083 181.558Z" fill="#CADCE8"/>
<path d="M230.836 334.895C238.616 334.895 244.923 328.587 244.923 320.806C244.923 313.025 238.616 306.717 230.836 306.717C223.056 306.717 216.749 313.025 216.749 320.806C216.749 328.587 223.056 334.895 230.836 334.895Z" fill="#DDE4ED"/>
<path d="M300.032 334.895C307.812 334.895 314.119 328.587 314.119 320.806C314.119 313.025 307.812 306.717 300.032 306.717C292.252 306.717 285.945 313.025 285.945 320.806C285.945 328.587 292.252 334.895 300.032 334.895Z" fill="#DDE4ED"/>
<path d="M369.228 334.895C377.008 334.895 383.315 328.587 383.315 320.806C383.315 313.025 377.008 306.717 369.228 306.717C361.448 306.717 355.141 313.025 355.141 320.806C355.141 328.587 361.448 334.895 369.228 334.895Z" fill="#DDE4ED"/>
<path d="M413.043 226.901H187.027C183.536 226.901 180.705 229.731 180.705 233.223V285.174C180.705 288.666 183.536 291.496 187.027 291.496H413.043C416.534 291.496 419.364 288.666 419.364 285.174V233.223C419.364 229.731 416.534 226.901 413.043 226.901Z" fill="#00ACB5"/>
<path d="M296.682 351.92H182.649V358.243H296.682V351.92Z" fill="#E8EDF7"/>
<path d="M365.809 364.532H182.149V370.855H365.809V364.532Z" fill="#E8EDF7"/>
<path d="M421.814 351.92H312.828V358.243H421.814V351.92Z" fill="#E8EDF7"/>
<path opacity="0.3" d="M147.179 387.879H142.438V202.327H459.655V207.069H147.179V387.879Z" fill="#C1CEDE"/>
<path d="M459.902 196.936H140.315V203.259H459.902V196.936Z" fill="#426572"/>
<path d="M464.017 391.546H136.796V176.889C136.799 174.446 137.77 172.104 139.497 170.376C141.225 168.649 143.567 167.677 146.01 167.674H454.803C457.245 167.677 459.588 168.649 461.315 170.376C463.042 172.104 464.014 174.446 464.017 176.889V391.546ZM143.112 385.223H457.695V176.889C457.693 176.122 457.388 175.387 456.846 174.845C456.304 174.303 455.569 173.998 454.803 173.996H146.01C145.243 173.998 144.508 174.303 143.966 174.845C143.424 175.387 143.119 176.122 143.118 176.889L143.112 385.223Z" fill="#426572"/>
<path d="M544.923 349.944H486.395V354.159H544.923V349.944Z" fill="#DDE4ED"/>
</g>
<path d="M307.08 270.094L304.152 266.926C303.432 267.134 302.64 267.238 301.776 267.238C300.224 267.238 298.792 266.878 297.48 266.158C296.184 265.422 295.152 264.406 294.384 263.11C293.632 261.798 293.256 260.326 293.256 258.694C293.256 257.062 293.632 255.598 294.384 254.302C295.152 253.006 296.184 251.998 297.48 251.278C298.792 250.542 300.224 250.174 301.776 250.174C303.344 250.174 304.776 250.542 306.072 251.278C307.384 251.998 308.416 253.006 309.168 254.302C309.92 255.598 310.296 257.062 310.296 258.694C310.296 260.23 309.96 261.622 309.288 262.87C308.632 264.102 307.72 265.094 306.552 265.846L310.56 270.094H307.08ZM296.064 258.694C296.064 259.926 296.304 261.014 296.784 261.958C297.28 262.886 297.96 263.606 298.824 264.118C299.688 264.614 300.672 264.862 301.776 264.862C302.88 264.862 303.864 264.614 304.728 264.118C305.592 263.606 306.264 262.886 306.744 261.958C307.24 261.014 307.488 259.926 307.488 258.694C307.488 257.462 307.24 256.382 306.744 255.454C306.264 254.526 305.592 253.814 304.728 253.318C303.864 252.822 302.88 252.574 301.776 252.574C300.672 252.574 299.688 252.822 298.824 253.318C297.96 253.814 297.28 254.526 296.784 255.454C296.304 256.382 296.064 257.462 296.064 258.694ZM325.035 253.846V267.07H322.299V265.51C321.867 266.054 321.299 266.486 320.595 266.806C319.907 267.11 319.171 267.262 318.387 267.262C317.347 267.262 316.411 267.046 315.579 266.614C314.763 266.182 314.115 265.542 313.635 264.694C313.171 263.846 312.939 262.822 312.939 261.622V253.846H315.651V261.214C315.651 262.398 315.947 263.31 316.539 263.95C317.131 264.574 317.939 264.886 318.963 264.886C319.987 264.886 320.795 264.574 321.387 263.95C321.995 263.31 322.299 262.398 322.299 261.214V253.846H325.035ZM330.036 252.094C329.54 252.094 329.124 251.926 328.788 251.59C328.452 251.254 328.284 250.838 328.284 250.342C328.284 249.846 328.452 249.43 328.788 249.094C329.124 248.758 329.54 248.59 330.036 248.59C330.516 248.59 330.924 248.758 331.26 249.094C331.596 249.43 331.764 249.846 331.764 250.342C331.764 250.838 331.596 251.254 331.26 251.59C330.924 251.926 330.516 252.094 330.036 252.094ZM331.38 253.846V267.07H328.644V253.846H331.38ZM337.397 264.838H343.397V267.07H334.229V264.838L340.253 256.078H334.229V253.846H343.397V256.078L337.397 264.838Z" fill="white"/>
<rect x="249.403" y="242.118" width="39.8207" height="35.6364" rx="10" fill="#FFCB00"/>
<path d="M274.626 259.386C274.626 259.799 274.6 260.172 274.546 260.506H266.126C266.193 261.386 266.52 262.092 267.106 262.626C267.693 263.159 268.413 263.426 269.266 263.426C270.493 263.426 271.36 262.912 271.866 261.886H274.326C273.993 262.899 273.386 263.732 272.506 264.386C271.64 265.026 270.56 265.346 269.266 265.346C268.213 265.346 267.266 265.112 266.426 264.646C265.6 264.166 264.946 263.499 264.466 262.646C264 261.779 263.766 260.779 263.766 259.646C263.766 258.512 263.993 257.519 264.446 256.666C264.913 255.799 265.56 255.132 266.386 254.666C267.226 254.199 268.186 253.966 269.266 253.966C270.306 253.966 271.233 254.192 272.046 254.646C272.86 255.099 273.493 255.739 273.946 256.566C274.4 257.379 274.626 258.319 274.626 259.386ZM272.246 258.666C272.233 257.826 271.933 257.152 271.346 256.646C270.76 256.139 270.033 255.886 269.166 255.886C268.38 255.886 267.706 256.139 267.146 256.646C266.586 257.139 266.253 257.812 266.146 258.666H272.246Z" fill="white"/>
</g>
<defs>
<linearGradient id="paint0_linear_20_295" x1="0.695422" y1="195.572" x2="660.931" y2="195.572" gradientUnits="userSpaceOnUse">
<stop stop-color="#C5E9FA"/>
<stop offset="1" stop-color="#C4F4EA"/>
</linearGradient>
<clipPath id="clip0_20_295">
<rect width="678" height="392" fill="white"/>
</clipPath>
</defs>
</svg>
