<svg width="908" height="893" viewBox="0 0 908 893" fill="none" xmlns="http://www.w3.org/2000/svg">
<path d="M705.9 191.79C701.74 180.25 697.11 168.79 692.04 157.65C681.94 135.48 679.62 114.47 665.43 95.9301" stroke="#CCDDE2" stroke-width="7.24" stroke-miterlimit="10"/>
<path d="M632.54 74.6801C620.33 62.2601 608.91 48.9101 588.16 38.9399C544.31 17.9399 488.24 15.8099 416.67 45.5099" stroke="#CCDDE2" stroke-width="7.24" stroke-miterlimit="10"/>
<path d="M115.78 888.6C46.43 790.57 24 679.741 35.59 566.391" stroke="#CCDDE2" stroke-width="7.24" stroke-miterlimit="10"/>
<path d="M744.92 406.012V407.222C744.24 429.222 764.57 520.422 822.23 549.392C879.89 578.362 921 705.522 791 755.412C661 805.302 668.08 888.602 668.08 888.602" stroke="#CCDDE2" stroke-width="7.24" stroke-miterlimit="10"/>
<path d="M416.66 139.67V31.93C416.642 24.5282 413.693 17.4348 408.459 12.2009C403.225 6.967 396.132 4.0185 388.73 4H31.93C24.5282 4.0185 17.4348 6.967 12.2009 12.2009C6.967 17.4348 4.0185 24.5282 4 31.93V538.53C4.0132 545.928 6.962 553.018 12.1988 558.244C17.4355 563.469 24.5321 566.403 31.93 566.4H388.73C392.191 566.422 395.623 565.762 398.83 564.46" stroke="black" stroke-width="7.24" stroke-linecap="round" stroke-linejoin="round"/>
<path d="M379.18 21.0703H41.48C27.7005 21.0703 16.53 32.2408 16.53 46.0203V524.43C16.53 538.21 27.7005 549.38 41.48 549.38H379.18C392.96 549.38 404.13 538.21 404.13 524.43V46.0203C404.13 32.2408 392.96 21.0703 379.18 21.0703Z" fill="#00ACB5"/>
<path d="M373.07 61.9491H51.8301C44.9376 61.9491 39.3501 67.5371 39.3501 74.4291V148.389C39.3501 155.282 44.9376 160.869 51.8301 160.869H373.07C379.963 160.869 385.55 155.282 385.55 148.389V74.4291C385.55 67.5371 379.963 61.9491 373.07 61.9491Z" fill="#00ACB5"/>
<path d="M210.33 103.612C215.98 103.612 220.56 99.0321 220.56 93.3821C220.56 87.7321 215.98 83.1521 210.33 83.1521C204.68 83.1521 200.1 87.7321 200.1 93.3821C200.1 99.0321 204.68 103.612 210.33 103.612Z" fill="#FFCB00"/>
<path d="M181.74 139.672C181.74 132.089 184.752 124.817 190.114 119.456C195.475 114.094 202.747 111.082 210.33 111.082C217.913 111.082 225.184 114.094 230.546 119.456C235.908 124.817 238.92 132.089 238.92 139.672H181.74Z" fill="#FFCB00"/>
<path d="M212.41 266.859C201.504 266.853 190.841 270.082 181.77 276.138C172.699 282.193 165.629 290.803 161.452 300.878C157.276 310.953 156.182 322.04 158.308 332.737C160.434 343.434 165.685 353.26 173.397 360.972C181.109 368.684 190.935 373.935 201.632 376.061C212.329 378.188 223.416 377.093 233.491 372.917C243.566 368.741 252.176 361.67 258.231 352.599C264.287 343.528 267.516 332.866 267.51 321.959C267.502 307.348 261.694 293.338 251.363 283.007C241.031 272.675 227.021 266.867 212.41 266.859ZM212.41 363.769C210.276 363.769 208.23 362.922 206.721 361.413C205.213 359.904 204.365 357.858 204.365 355.724C204.365 353.591 205.213 351.544 206.721 350.036C208.23 348.527 210.276 347.679 212.41 347.679C214.544 347.679 216.59 348.527 218.099 350.036C219.607 351.544 220.455 353.591 220.455 355.724C220.455 357.858 219.607 359.904 218.099 361.413C216.59 362.922 214.544 363.769 212.41 363.769ZM222.62 301.769C220.89 313.709 219.43 326.299 215.92 337.909C215.06 340.669 209.82 340.669 208.92 337.909C206.404 329.171 204.474 320.274 203.14 311.279C202.06 304.739 198.23 294.159 201.9 287.779C205.09 282.109 214.16 281.409 219.4 284.379C225.91 288.119 223.37 295.869 222.62 301.809V301.769Z" fill="#FFCB00"/>
<path d="M73.97 205.031H343.16" stroke="white" stroke-width="7.24" stroke-miterlimit="10"/>
<path d="M73.97 231.519H343.16" stroke="white" stroke-width="7.24" stroke-miterlimit="10"/>
<path d="M73.97 402.152H343.16" stroke="white" stroke-width="7.24" stroke-miterlimit="10"/>
<path d="M136.5 427.211H280.63" stroke="white" stroke-width="7.24" stroke-miterlimit="10"/>
<path d="M102.57 591.32C102.57 591.32 150.47 400.98 299.66 354.49L360.3 340.02C360.3 340.02 369.89 297.19 366.36 292.69C362.83 288.19 355.58 278.97 342.3 280.97C329.02 282.97 294.69 283.61 285.9 241.64C277.11 199.67 309.59 99.9101 394 84.9901C478.41 70.0701 480.38 132.05 480.38 132.05L418.38 275.72L428 391.62L429.21 564.27L102.57 591.32Z" fill="white"/>
<path d="M618.12 444.284C617.12 444.574 604.36 448.284 599.34 457.124C598.384 455.1 596.872 453.39 594.981 452.193C593.09 450.996 590.898 450.362 588.66 450.363H438.81C436.144 450.359 433.555 451.26 431.468 452.918C429.38 454.577 427.918 456.895 427.32 459.493L397.81 586.024C395.81 585.634 393.81 585.394 391.73 585.194L322.09 567.814C319.103 567.064 315.943 567.455 313.229 568.911C310.514 570.366 308.44 572.781 307.41 575.683C306.946 576.986 306.716 578.361 306.73 579.743C306.73 582.884 307.921 585.908 310.062 588.206C312.204 590.503 315.137 591.903 318.27 592.124L351.2 594.243C319.48 609.173 280.89 637.613 248.68 663.743C217.34 614.673 246.75 565.614 268.87 539.194C266.02 510.074 251.58 442.463 179.53 444.303C204.35 412.473 235.3 385.194 273.65 366.933C405.01 512.534 555.29 393.493 558.48 390.933C580.953 405.593 601.064 423.59 618.12 444.303" fill="#2E2E2E"/>
<path d="M604.47 861.962V887.122H170.66V851.482C187.56 852.482 205.34 848.482 221.51 841.192C241.98 831.872 259.66 817.392 274.78 800.872C290.33 783.772 298.87 760.062 308.78 739.442C323.66 708.392 343.37 686.272 374.65 676.902L372.65 685.502C372.249 687.233 372.243 689.033 372.633 690.767C373.023 692.5 373.799 694.124 374.903 695.516C376.007 696.909 377.411 698.034 379.01 698.809C380.61 699.584 382.363 699.989 384.14 699.992H534.74C531.74 725.992 519.09 867.992 604.47 861.992" fill="#2E2E2E"/>
<path d="M534.81 200.251C534.689 213.704 532.936 227.091 529.59 240.121C528.064 246.299 524.787 251.904 520.154 256.266C515.521 260.628 509.728 263.56 503.47 264.711C503.22 255.631 499.36 247.661 493.47 242.711C494.008 235.024 493.931 227.306 493.24 219.631C492.85 214.561 492.24 209.831 491.6 205.581C491.219 203.162 490.668 200.773 489.95 198.431C487.94 196.272 485.572 194.475 482.95 193.121C473.68 187.901 454.6 182.351 419.25 190.511C413.478 191.833 408.048 194.35 403.31 197.901C403.205 197.967 403.111 198.047 403.03 198.141C399.84 201.081 395.78 204.801 391.58 206.731C387.23 208.731 382.69 208.811 378.88 204.081C378.78 203.981 378.73 203.891 378.64 203.791C376.64 201.181 374.73 197.791 371.2 197.121C363.76 195.721 360.14 203.121 359.2 209.341C358.38 215.091 360.07 220.161 362.54 224.991C364.609 228.918 367.312 232.476 370.54 235.521C371.369 236.323 372.128 237.192 372.81 238.121C372.5 238.176 372.195 238.26 371.9 238.371C371.216 238.601 370.548 238.875 369.9 239.191C360.9 243.241 354.49 253.391 354.35 265.271C354.35 265.641 339.26 265.421 337.35 265.271C329.99 264.591 322.74 262.471 317.56 256.921C302.86 241.171 302.93 217.801 308.97 199.521C314.69 182.171 321.97 165.231 331.51 149.621C352.18 115.841 384.25 90.9211 424.85 88.6811C434.587 88.1921 444.347 88.7621 453.96 90.3811C458.509 91.0981 463.008 92.1001 467.43 93.3811C508.82 111.441 535.09 152.381 534.85 200.251" fill="#2E2E2E"/>
<path d="M510.84 585.351C505.95 597.901 494.31 605.081 484.84 601.351C475.37 597.621 471.65 584.501 476.53 571.951C481.41 559.401 493.06 552.211 502.53 555.951C512 559.691 515.73 572.811 510.84 585.361" fill="#00ACB5"/>
<path d="M536 697.431C536 697.431 509.44 882.581 615.68 862.061C721.34 841.631 761.33 411.781 455.49 349.961" stroke="black" stroke-width="7.24" stroke-miterlimit="10"/>
<path d="M287.26 519.183C287.26 519.183 201.54 591.474 247.73 663.774" stroke="black" stroke-width="7.24" stroke-miterlimit="10"/>
<path d="M537.93 646.004C536.46 646.094 534.36 645.114 532.93 644.724C531.117 644.244 529.32 643.73 527.54 643.184C517.097 639.933 507.271 634.958 498.47 628.464C496.47 627.034 492.91 626.114 490.47 627.054C489.112 627.552 487.913 628.406 486.998 629.527C486.083 630.647 485.486 631.993 485.27 633.424C484.52 638.584 488.16 643.634 492.13 646.944C496.84 650.884 501.73 654.514 507.44 656.874C512.952 659.086 518.638 660.836 524.44 662.104C527.07 662.714 529.74 663.104 532.35 663.774" stroke="black" stroke-width="7.24" stroke-miterlimit="10"/>
<path d="M570.83 595.91C571.91 601.61 572.7 607.53 572.16 613.32C571.71 618.22 569.95 623.94 564.5 625.13C563.464 625.404 562.389 625.502 561.32 625.42C540.8 624.21 523.89 617.12 504.58 603.16C485.27 589.2 478.47 621.35 496.11 627.05" stroke="black" stroke-width="7.24" stroke-miterlimit="10"/>
<path d="M496.85 650.822C496.376 650.432 495.926 650.014 495.5 649.572C485.89 639.522 484.15 659.712 494.24 665.652L495.54 666.422C496.22 666.712 496.95 667.052 497.67 667.422C498.01 667.512 498.39 667.662 498.74 667.762M498.74 667.762C507.86 671.762 517.57 674.322 527.13 676.932C517.67 673.842 508.24 670.802 498.74 667.762ZM498.74 667.762C497.92 667.422 497.14 667.082 496.32 666.692C496.068 666.587 495.807 666.507 495.54 666.452C495.37 666.375 495.183 666.343 494.997 666.361C494.811 666.378 494.633 666.444 494.48 666.552C494.252 666.739 494.085 666.99 494 667.272C492.45 670.992 493.71 675.682 495.69 679.012C497.77 682.532 501.34 685.242 504.86 687.172C514.33 692.482 525.34 695.622 535.97 697.502C537.942 697.91 539.962 698.042 541.97 697.892" stroke="black" stroke-width="7.24" stroke-miterlimit="10"/>
<path d="M627.72 720.8C627.72 720.8 595.13 665.26 591.5 616.97C589.28 587.08 580.5 580.75 574.22 580.32" stroke="black" stroke-width="7.24" stroke-miterlimit="10"/>
<path d="M564.5 625.121L570.84 595.911L574.22 580.311L599.28 464.651C599.652 462.929 599.633 461.146 599.226 459.431C598.818 457.717 598.033 456.116 596.926 454.745C595.82 453.374 594.421 452.267 592.831 451.507C591.242 450.747 589.502 450.352 587.74 450.351H437.88C435.215 450.349 432.627 451.25 430.54 452.909C428.453 454.567 426.99 456.884 426.39 459.481L396.88 586.021L375.34 678.351L373.34 687.001C372.942 688.733 372.939 690.531 373.332 692.264C373.724 693.996 374.501 695.618 375.606 697.009C376.71 698.4 378.114 699.524 379.713 700.298C381.311 701.073 383.064 701.477 384.84 701.481H535.43" stroke="black" stroke-width="7.24" stroke-miterlimit="10"/>
<path d="M378.7 200.753C378.7 200.753 386.63 167.123 431.41 162.663C476.19 158.203 487.41 191.663 487.41 191.663L486 195.033C486 195.033 427.13 171.413 394.62 205.123C394.62 205.123 382.91 210.433 378.7 200.773" fill="#00ACB5"/>
<path d="M390.78 585.191L321.13 567.791C319.469 567.38 317.74 567.319 316.054 567.611C314.368 567.904 312.761 568.544 311.335 569.491C309.91 570.438 308.697 571.672 307.773 573.113C306.85 574.554 306.237 576.171 305.972 577.862C305.708 579.553 305.798 581.281 306.237 582.935C306.676 584.589 307.454 586.134 308.522 587.471C309.59 588.808 310.925 589.909 312.441 590.703C313.958 591.496 315.623 591.966 317.33 592.081L350.26 594.251" stroke="black" stroke-width="7.24" stroke-miterlimit="10"/>
<path d="M557.58 390.884C557.58 390.884 405.45 514.124 272.71 366.933" stroke="black" stroke-width="7.24" stroke-miterlimit="10"/>
<path d="M267.94 539.171C265.09 510.051 250.66 442.391 178.55 444.281" stroke="black" stroke-width="7.24" stroke-miterlimit="10"/>
<path d="M617.21 444.262C617.21 444.262 603.62 448.002 598.41 457.142" stroke="black" stroke-width="7.24" stroke-miterlimit="10"/>
<path d="M65.1201 888.621H711.03" stroke="black" stroke-width="7.24" stroke-miterlimit="10"/>
<path d="M493.47 242.75C499.56 247.87 503.47 256.23 503.47 265.69C503.47 281.39 492.56 294.09 479.08 294.09C477.555 294.082 476.036 293.904 474.55 293.56C490.25 281.56 493.43 242.75 493.43 242.75" fill="#00ACB5"/>
<path d="M404.66 306.124C412.228 309.89 420.51 312.006 428.957 312.332C437.404 312.658 445.824 311.186 453.66 308.014C497.84 289.564 496.15 235.184 491.56 205.624C491.194 203.226 490.673 200.854 490 198.524V198.474C484.93 181.574 471.7 167.804 454.27 163.894C420.51 156.264 389.64 175.404 376.83 201.174" stroke="black" stroke-width="7.24" stroke-miterlimit="10"/>
<path d="M490.42 199.052C490.42 199.052 490.28 198.852 489.99 198.522V198.472C486.99 195.092 469.62 178.962 419.34 190.552C413.571 191.871 408.143 194.389 403.41 197.942C403.298 198.006 403.197 198.087 403.11 198.182" stroke="black" stroke-width="7.24" stroke-miterlimit="10"/>
<path d="M356.4 280.972H331.53C313.58 280.972 299.35 264.532 293.16 249.102C284.46 227.402 290.03 205.192 297.86 184.102C304.42 166.452 312.76 149.302 323.73 133.952C348.29 99.6021 385.37 80.1421 427.99 83.7421C431.77 84.0621 435.533 84.5281 439.28 85.1421C496.51 94.4221 535.1 142.272 534.81 200.222C534.69 213.684 532.938 227.082 529.59 240.122C528.051 246.295 524.77 251.895 520.137 256.255C515.504 260.615 509.715 263.55 503.46 264.712" stroke="black" stroke-width="7.24" stroke-miterlimit="10"/>
<path d="M372.83 238.121C372.145 237.191 371.386 236.318 370.56 235.511C367.33 232.471 364.626 228.916 362.56 224.991C360.09 220.161 358.4 215.091 359.22 209.341C360.14 203.161 363.76 195.721 371.22 197.121C374.75 197.801 376.63 201.181 378.66 203.791C386.38 213.791 397.01 203.741 403.53 197.701" stroke="black" stroke-width="7.24" stroke-miterlimit="10"/>
<path d="M493.47 242.75C499.56 247.87 503.47 256.23 503.47 265.69C503.47 281.39 492.56 294.09 479.08 294.09C477.555 294.082 476.036 293.904 474.55 293.56" stroke="black" stroke-width="7.24" stroke-miterlimit="10"/>
<path d="M441.28 262.023C446.74 265.693 459.93 268.703 457.28 257.823C454.1 244.933 449.82 217.393 476.03 215.293C476.03 215.293 487.57 215.783 493.27 219.703" stroke="black" stroke-width="7.24" stroke-miterlimit="10"/>
<path d="M451.15 283.571C451.15 283.571 437.95 290.571 431.41 276.621" stroke="black" stroke-width="7.24" stroke-miterlimit="10"/>
<path d="M424.38 234.122C423.87 238.552 425.6 242.382 428.25 242.692C430.9 243.002 433.46 239.692 433.98 235.232C434.5 230.772 432.75 226.982 430.11 226.672C427.47 226.362 424.89 229.672 424.38 234.122Z" fill="black"/>
<path d="M467.36 236.731C466.85 241.151 468.58 244.991 471.23 245.301C473.88 245.611 476.44 242.301 476.95 237.841C477.46 233.381 475.73 229.581 473.09 229.281C470.45 228.981 467.87 232.281 467.36 236.731Z" fill="black"/>
<path d="M441.28 218.123C441.28 218.123 433.2 205.663 414.89 217.483" stroke="black" stroke-width="7.24" stroke-miterlimit="10"/>
<path d="M455.48 307.191V376.311" stroke="black" stroke-width="7.24" stroke-miterlimit="10"/>
<path d="M182.22 720.801C182.22 720.801 210.71 693.801 247.71 663.801C279.92 637.671 318.55 609.181 350.28 594.261C354.34 592.371 358.28 590.681 362.11 589.261C371.249 585.778 381.057 584.41 390.8 585.261C392.84 585.429 394.869 585.702 396.88 586.081" stroke="black" stroke-width="7.24" stroke-miterlimit="10"/>
<path d="M375.34 678.352C344.05 687.722 324.34 709.842 309.47 740.892C299.58 761.512 291.02 785.222 275.47 802.322C260.36 818.832 242.68 833.322 222.21 842.642C185.07 859.542 139.34 858.242 115.21 821.492C98.89 796.572 92.47 765.612 89.21 736.492C83.61 685.882 101.29 543.222 178.55 444.272C203.37 412.442 234.33 385.162 272.67 366.902C299.58 354.122 330 345.762 364.48 343.392L374.14 293.562" stroke="black" stroke-width="7.24" stroke-miterlimit="10"/>
<path d="M605.16 863.641V888.621" stroke="black" stroke-width="7.24" stroke-miterlimit="10"/>
<path d="M171.35 854.723V888.623" stroke="black" stroke-width="7.24" stroke-miterlimit="10"/>
<path d="M403.06 265.693C403.155 273.19 400.493 280.46 395.58 286.123C392.825 287.397 389.825 288.055 386.79 288.053C373.32 288.053 362.4 275.353 362.4 259.653C362.303 252.157 364.97 244.888 369.89 239.233C372.643 237.952 375.643 237.29 378.68 237.293C392.15 237.293 403.06 250.003 403.06 265.693Z" fill="#00ACB5"/>
<path d="M378.7 294.093C392.154 294.093 403.06 281.378 403.06 265.693C403.06 250.008 392.154 237.293 378.7 237.293C365.246 237.293 354.34 250.008 354.34 265.693C354.34 281.378 365.246 294.093 378.7 294.093Z" stroke="black" stroke-width="7.24" stroke-miterlimit="10"/>
<path d="M668.32 17.503C653.312 13.0291 637.315 13.106 622.351 17.724C607.387 22.3419 594.129 31.2935 584.252 43.4467C574.376 55.6001 568.325 70.4091 566.865 86.0011C565.405 101.593 568.601 117.268 576.05 131.044C583.498 144.819 594.864 156.077 608.711 163.392C622.557 170.708 638.262 173.753 653.84 172.144C669.417 170.534 684.167 164.341 696.225 154.348C708.283 144.355 717.106 131.011 721.58 116.003C727.579 95.8781 725.338 74.1951 715.35 55.7221C705.362 37.2502 688.445 23.5022 668.32 17.503ZM628.54 150.943C627.084 150.508 625.727 149.791 624.548 148.832C623.369 147.873 622.39 146.691 621.668 145.354C620.945 144.017 620.493 142.551 620.338 141.039C620.182 139.527 620.325 137.999 620.76 136.543C621.195 135.087 621.912 133.73 622.871 132.551C623.83 131.372 625.012 130.393 626.349 129.671C629.049 128.212 632.219 127.885 635.16 128.763C638.101 129.641 640.573 131.651 642.032 134.352C643.491 137.052 643.818 140.222 642.94 143.163C642.062 146.104 640.052 148.576 637.351 150.035C634.651 151.494 631.481 151.821 628.54 150.943ZM668.54 70.0031C668.373 70.4031 668.213 70.7931 668.06 71.1731C661.571 87.1351 653.501 102.408 643.97 116.763C641.66 120.263 634.42 118.103 634.4 113.903C634.535 100.851 635.537 87.8221 637.4 74.9031C638.56 65.4631 637.66 49.3031 645.29 42.043C652.06 35.543 664.83 38.333 670.85 44.573C677.5 51.5031 671.74 62.3931 668.51 70.0031H668.54Z" fill="#FFCB00"/>
<path d="M723.1 471.522C717.606 477.108 713.892 484.198 712.428 491.895C710.964 499.592 711.815 507.551 714.874 514.764C717.934 521.977 723.063 528.121 729.615 532.418C736.166 536.715 743.845 538.973 751.679 538.906C759.514 538.839 767.153 536.45 773.63 532.041C780.107 527.632 785.13 521.401 788.065 514.136C791.001 506.872 791.715 498.9 790.12 491.229C788.524 483.559 784.689 476.533 779.1 471.042C771.609 463.683 761.502 459.599 751 459.689C740.499 459.779 730.464 464.035 723.1 471.522ZM772.78 520.352C771.703 521.448 770.235 522.071 768.699 522.084C767.163 522.097 765.685 521.499 764.59 520.422C763.495 519.346 762.872 517.878 762.859 516.342C762.846 514.806 763.443 513.328 764.52 512.232C765.053 511.69 765.688 511.258 766.388 510.961C767.088 510.664 767.84 510.508 768.6 510.501C769.361 510.495 770.115 510.638 770.82 510.923C771.525 511.208 772.168 511.629 772.71 512.162C773.252 512.696 773.684 513.33 773.981 514.031C774.278 514.731 774.435 515.482 774.441 516.243C774.448 517.003 774.304 517.758 774.019 518.463C773.734 519.168 773.313 519.81 772.78 520.352ZM746.14 483.902C751.41 490.802 757.14 497.902 761.28 505.542C762.28 507.382 759.63 510.082 757.77 509.102C752.025 505.99 746.496 502.496 741.22 498.642C737.32 495.922 729.96 492.532 728.54 487.462C727.25 482.942 731.47 477.952 735.64 476.752C740.76 475.292 743.48 480.522 746.14 483.902Z" fill="#00ACB5"/>
<path d="M878.4 154.272C882.346 149.418 884.764 143.502 885.347 137.274C885.931 131.046 884.656 124.784 881.681 119.281C878.706 113.778 874.167 109.281 868.636 106.357C863.106 103.434 856.833 102.216 850.61 102.858C844.388 103.5 838.495 105.973 833.678 109.963C828.861 113.954 825.335 119.283 823.546 125.278C821.757 131.272 821.786 137.662 823.629 143.64C825.472 149.618 829.047 154.915 833.9 158.862C837.123 161.483 840.831 163.443 844.812 164.631C848.793 165.819 852.969 166.211 857.101 165.784C861.233 165.358 865.241 164.122 868.896 162.147C872.55 160.171 875.78 157.495 878.4 154.272ZM835.23 119.182C835.613 118.71 836.085 118.319 836.619 118.03C837.153 117.741 837.739 117.56 838.343 117.497C838.947 117.434 839.557 117.491 840.139 117.665C840.721 117.838 841.264 118.124 841.735 118.507C842.207 118.89 842.598 119.362 842.887 119.896C843.176 120.43 843.357 121.015 843.42 121.62C843.483 122.224 843.426 122.834 843.252 123.416C843.079 123.998 842.793 124.54 842.41 125.012C841.637 125.964 840.517 126.57 839.297 126.697C838.078 126.823 836.857 126.46 835.905 125.687C834.953 124.914 834.347 123.794 834.22 122.574C834.094 121.354 834.457 120.134 835.23 119.182ZM859.16 146.182C854.45 141.092 849.38 135.912 845.49 130.112C844.55 128.722 846.49 126.382 848.01 127.022C852.826 129.075 857.5 131.447 862 134.122C865.3 135.992 871.41 138.122 872.92 142.062C874.28 145.552 871.3 149.842 868.07 151.062C864.08 152.602 861.52 148.652 859.16 146.122V146.182Z" fill="#00ACB5"/>
<path d="M564 362.812C575.16 381.812 574.65 395.342 571.75 417.272C570.59 425.622 579.58 431.272 586.87 427.072C651.28 390.072 711.4 419.332 788.2 401.192C816.4 394.572 851.56 380.852 875.66 358.792C883.657 346.918 887.93 332.928 887.93 318.612C887.93 258.612 805.93 209.902 704.8 209.902C639.99 209.902 583.05 229.902 550.5 260.032C550.5 260.032 550.5 260.032 550.41 260.122C542.15 272.492 537.61 286.012 537.61 300.122C537.56 321.652 553.57 344.992 564 362.812Z" fill="#FFCB00"/>
<path d="M537.85 300.121C537.85 300.621 537.85 301.121 537.85 301.641C538.21 322.641 548.75 342.211 561.23 359.141C569.59 370.461 579.51 383.041 577.16 396.921C576.16 403.041 572.71 408.591 571.85 414.731C570.99 420.871 574.26 428.531 580.46 428.851C584.4 429.051 587.75 426.251 590.87 423.851C609.32 409.551 633.3 404.201 656.62 403.261C679.94 402.321 703.23 405.401 726.56 406.061C760.2 407.061 794.37 402.821 825.44 389.921C853.28 378.381 878.79 359.441 895.54 334.141C912 309.301 902.27 273.231 884.71 251.631C868.25 231.361 844.4 218.391 819.94 209.251C754.15 184.691 679.06 185.251 614.18 212.161C594.92 220.161 576.29 230.561 561.85 245.611C547.78 260.271 538 279.811 537.85 300.121Z" stroke="black" stroke-width="7.24" stroke-miterlimit="10"/>
<path d="M807.79 324.02C821.741 324.02 833.05 312.711 833.05 298.76C833.05 284.809 821.741 273.5 807.79 273.5C793.839 273.5 782.53 284.809 782.53 298.76C782.53 312.711 793.839 324.02 807.79 324.02Z" fill="white"/>
<path d="M726.09 324.02C740.041 324.02 751.35 312.711 751.35 298.76C751.35 284.809 740.041 273.5 726.09 273.5C712.139 273.5 700.83 284.809 700.83 298.76C700.83 312.711 712.139 324.02 726.09 324.02Z" fill="white"/>
<path d="M642.8 324.02C656.751 324.02 668.06 312.711 668.06 298.76C668.06 284.809 656.751 273.5 642.8 273.5C628.849 273.5 617.54 284.809 617.54 298.76C617.54 312.711 628.849 324.02 642.8 324.02Z" fill="white"/>
</svg>
