<svg width="316" height="370" viewBox="0 0 316 370" fill="none" xmlns="http://www.w3.org/2000/svg">
<path d="M84.9873 247.33C89.6443 236.728 92.5844 224.494 92.8617 210.307C94.2074 140.918 172.666 87.3712 259.7 146.227C346.734 205.083 269.813 367 269.813 367" stroke="#CCDDE2" stroke-width="4.47" stroke-miterlimit="10"/>
<path d="M24.1372 367C20.2918 363.978 -9.02405 335.315 8.5842 318.91C16.1079 311.908 32.3011 303.732 48.5229 291.266" stroke="#CCDDE2" stroke-width="4.47" stroke-miterlimit="10"/>
<path d="M233.916 193.078C234.232 194.72 235.061 196.22 236.285 197.36" stroke="#CCDDE2" stroke-width="4.47" stroke-miterlimit="10"/>
<path d="M165.587 224.585C164.983 224.744 164.473 224.858 164.07 224.952C163.768 225.005 163.519 225.058 163.348 225.082H163.311L163.075 225.123C163.075 225.123 163.05 225.094 163.034 225.094C158.956 222.101 160.208 216.531 160.208 216.531C172.401 218.451 174.929 208.575 174.929 208.575C174.77 203.84 173.869 201.614 171.789 200.333C169.616 198.971 166.149 198.621 160.852 197.479L159.975 197.283C152.097 195.493 148.423 187.406 146.971 182.921C146.633 181.927 146.361 180.912 146.156 179.883C137.233 183.235 131.646 187.981 128.429 191.541C127.157 166.303 152.488 169.929 152.488 169.929C156.751 169.99 160.988 170.609 165.089 171.772C166.019 172.18 166.908 172.587 167.756 172.995C168.164 173.203 168.596 173.428 168.979 173.66C169.363 173.892 169.795 174.121 170.17 174.353C170.443 174.512 170.721 174.684 170.986 174.863C176.558 178.399 181.012 183.445 183.831 189.413C183.871 189.494 183.906 189.577 183.937 189.662C184.066 189.938 184.178 190.221 184.276 190.51C190.009 215.597 172.319 222.778 165.587 224.585Z" fill="#00ACB5"/>
<path d="M165.587 224.583C163.809 221.627 164.632 218.059 164.632 218.059C176.813 219.983 179.349 210.107 179.349 210.107C179.088 202.844 177.127 201.482 171.789 200.32C169.811 199.875 167.381 199.468 164.396 198.803C163.156 198.524 161.963 198.07 160.852 197.453C152.741 193.008 150.556 181.39 150.556 181.39C149.3 181.859 148.109 182.369 146.971 182.895C146.633 181.901 146.361 180.887 146.156 179.857C137.233 183.209 131.646 187.956 128.429 191.516C127.157 166.278 152.488 169.903 152.488 169.903C156.751 169.964 160.988 170.584 165.089 171.746C166.019 172.154 166.908 172.562 167.756 172.97C168.164 173.178 168.596 173.402 168.979 173.634C169.363 173.867 169.795 174.095 170.17 174.328C170.443 174.487 170.721 174.658 170.986 174.837C176.558 178.374 181.012 183.42 183.831 189.387C183.871 189.468 183.906 189.551 183.937 189.636C184.066 189.912 184.178 190.195 184.276 190.484C190.009 215.596 172.319 222.777 165.587 224.583Z" fill="#00ACB5"/>
<path d="M208.335 336.281C210.219 348.58 212.523 360.679 214.929 367H106.78C93.7589 330.03 99.9328 289.643 99.9328 289.643L80.726 290.246C92.2786 269.979 88.1681 252.844 86.2189 247.127C101.307 244.562 116.395 242.547 131.642 242.376C131.235 251.103 140.76 261.134 154.499 258.496C160.069 257.436 166.859 255.233 167.006 245.475L170.59 246.103C175.549 246.919 180.035 247.791 184.288 248.774C195.298 251.311 204.759 254.483 216.548 258.496C200.236 270.57 208.343 298.459 208.343 298.459L208.751 299.389L203.544 298.459C203.544 298.459 205.472 317.588 208.335 336.281Z" fill="#353642"/>
<path d="M96.1281 67.5075C106.911 67.5075 115.653 58.7657 115.653 47.9826C115.653 37.199 106.911 28.4577 96.1281 28.4577C85.345 28.4577 76.6032 37.199 76.6032 47.9826C76.6032 58.7657 85.345 67.5075 96.1281 67.5075Z" fill="#00ACB5"/>
<path d="M102.547 41.467C102.272 40.8312 101.902 40.2412 101.45 39.7176C100.678 38.7996 99.598 38.1953 98.4121 38.0183C97.2267 37.8409 96.0168 38.1031 95.0108 38.7552C94.353 39.1801 93.8037 39.7526 93.4057 40.4275C93.0081 41.102 92.7728 41.8601 92.719 42.6414C91.6922 42.2699 90.5724 42.2418 89.5285 42.5611C88.4841 42.8804 87.5719 43.5296 86.9284 44.412C86.2849 45.2941 85.9448 46.3612 85.9595 47.4529C85.9742 48.5445 86.3428 49.6023 87.01 50.4668C88.4087 52.2897 90.7861 53.4886 92.9392 54.1859C94.0688 54.5451 95.2314 54.7927 96.4095 54.924C97.0048 54.9892 100.41 55.4459 100.728 54.924C102.808 51.6087 104.316 45.5204 102.547 41.467Z" fill="white"/>
<path d="M63.2767 41.6378C61.9962 41.4951 60.6995 41.4054 59.4068 41.336C58.0203 41.4054 56.6338 41.5073 55.2474 41.6786C50.8685 42.1671 46.579 43.2653 42.504 44.9409C40.6787 45.6916 38.9191 46.5933 37.2435 47.6364C36.0344 48.363 34.8767 49.1709 33.7773 50.0546C32.9658 48.8911 32.3146 47.6237 31.8403 46.2866C31.0333 44.0303 30.7373 41.6235 30.9726 39.2388C31.2083 36.8541 31.9696 34.5517 33.2023 32.4968C34.4351 30.442 36.1078 28.6861 38.1011 27.3559C40.094 26.0257 42.3572 25.1538 44.7277 24.8039C47.0981 24.4536 49.5167 24.6335 51.8093 25.3304C54.1015 26.0277 56.211 27.2246 57.9852 28.8353C59.7591 30.4457 61.1542 32.4296 62.0692 34.6442C62.9843 36.8589 63.3966 39.249 63.2767 41.6419V41.6378Z" fill="#00ACB5"/>
<path d="M55.2473 41.6782C50.8685 42.1667 46.579 43.2649 42.504 44.9405C42.2675 44.3125 42.0717 43.7171 42.0065 43.5132C41.6794 42.5867 41.4433 41.6309 41.301 40.6587C41.0522 38.7992 41.089 36.5808 41.9535 34.8885C42.3572 34.0758 43.0145 33.4168 43.826 33.0107C44.6375 32.6045 45.5591 32.4736 46.4518 32.6375C47.3444 32.8015 48.1592 33.2517 48.7733 33.9196C49.3874 34.5876 49.7679 35.437 49.8564 36.3402C50.4624 36.1041 51.1144 36.0095 51.7624 36.0642C52.4108 36.1184 53.0375 36.3203 53.5958 36.6542C54.4232 37.1591 55.0439 37.9416 55.3464 38.8624C55.649 39.7828 55.6139 40.7811 55.2473 41.6782Z" fill="white"/>
<path d="M37.2436 47.6323C36.0345 48.3586 34.8768 49.1668 33.7774 50.0505C33.0405 50.621 32.333 51.2278 31.6569 51.8692C30.7907 52.6954 30.0277 53.6239 29.3855 54.634C28.7844 55.574 28.2632 56.5632 27.8277 57.5905C27.1696 59.1613 26.6443 60.7847 26.2578 62.4431C25.4825 66.0207 25.0148 69.6577 24.859 73.3148C21.9915 71.8826 19.6899 69.5268 18.3242 66.627C16.9586 63.7273 16.6091 60.4523 17.3313 57.3295C18.0539 54.2071 19.8061 51.4182 22.3067 49.4127C24.8068 47.4072 27.9093 46.3017 31.1145 46.2744C31.3633 46.2744 31.5957 46.2744 31.8444 46.2744C33.7166 46.3641 35.5521 46.8257 37.2436 47.6323Z" fill="#00ACB5"/>
<path d="M29.3854 54.6344C28.7844 55.5748 28.2632 56.5637 27.8277 57.5909C27.1695 59.1617 26.6443 60.7851 26.2577 62.4436C25.4095 61.2651 24.6877 59.8541 24.5735 58.4432C24.5336 57.9359 24.5988 57.4261 24.7652 56.945C24.9312 56.4642 25.1946 56.0225 25.5392 55.6478C25.8834 55.273 26.3013 54.9737 26.7666 54.7678C27.2319 54.5618 27.7347 54.4542 28.2436 54.4509C28.6319 54.446 29.018 54.5084 29.3854 54.6344Z" fill="white"/>
<g opacity="0.72">
<path opacity="0.72" d="M118.699 45.5244C124.636 45.5244 129.448 40.7121 129.448 34.7751C129.448 28.8386 124.636 24.0258 118.699 24.0258C112.763 24.0258 107.95 28.8386 107.95 34.7751C107.95 40.7121 112.763 45.5244 118.699 45.5244Z" fill="#00ACB5"/>
<path opacity="0.72" d="M123.364 36.6918C123.629 36.4185 123.851 36.1082 124.025 35.7702C124.332 35.185 124.413 34.5081 124.256 33.8666C124.098 33.2252 123.711 32.6636 123.169 32.2877C122.815 32.0442 122.411 31.8852 121.987 31.8236C121.562 31.7624 121.13 31.7995 120.722 31.9329C120.699 31.3302 120.482 30.7511 120.101 30.2834C119.721 29.8156 119.198 29.4845 118.613 29.3398C118.027 29.1954 117.411 29.2451 116.856 29.4817C116.302 29.7186 115.839 30.1296 115.539 30.6524C114.903 31.7494 114.788 33.2093 114.886 34.453C114.938 35.1034 115.056 35.7469 115.237 36.3737C115.327 36.6918 115.804 38.5186 116.13 38.5757C118.251 38.9346 121.668 38.433 123.364 36.6918Z" fill="white"/>
</g>
<g opacity="0.72">
<path opacity="0.72" d="M113.908 155.125C118.146 155.125 121.582 151.689 121.582 147.45C121.582 143.212 118.146 139.776 113.908 139.776C109.669 139.776 106.233 143.212 106.233 147.45C106.233 151.689 109.669 155.125 113.908 155.125Z" fill="#00ACB5"/>
<path opacity="0.72" d="M117.235 148.833C117.424 148.638 117.582 148.415 117.704 148.172C117.923 147.756 117.981 147.273 117.87 146.816C117.758 146.359 117.483 145.958 117.097 145.689C116.843 145.514 116.553 145.399 116.248 145.355C115.943 145.311 115.631 145.339 115.339 145.436C115.321 145.008 115.164 144.597 114.892 144.264C114.621 143.932 114.249 143.697 113.833 143.593C113.417 143.49 112.978 143.524 112.583 143.691C112.188 143.858 111.857 144.148 111.64 144.519C111.225 145.36 111.062 146.303 111.171 147.234C111.209 147.699 111.294 148.158 111.424 148.605C111.489 148.829 111.832 150.138 112.06 150.175C113.585 150.419 116.024 150.056 117.235 148.833Z" fill="white"/>
</g>
<path d="M96.8365 55.3228L91.7285 66.1238C89.8747 70.0431 91.5495 74.7229 95.4687 76.5763L106.27 81.6842C110.189 83.5376 114.869 81.8628 116.722 77.944L121.831 67.1425C123.684 63.2232 122.009 58.5435 118.09 56.6901L107.289 51.5821C103.37 49.7287 98.6899 51.4035 96.8365 55.3228Z" fill="#00ACB5"/>
<path d="M118.919 69.0363L115.221 76.8576C114.447 78.4912 113.057 79.7521 111.356 80.3634C109.654 80.9747 107.78 80.8874 106.143 80.1199L96.7642 75.6832C95.131 74.9084 93.8714 73.5187 93.2601 71.8178C92.6488 70.1169 92.7357 68.2431 93.5019 66.6058L93.7507 66.0757C96.2993 64.0368 100.708 61.2964 102.314 65.0359C104.63 70.4187 107.64 68.6774 111.489 66.4264C114.719 64.522 118.577 63.89 118.919 69.0363Z" fill="white"/>
<path d="M104.382 60.719C105.976 60.719 107.269 59.4263 107.269 57.8319C107.269 56.2374 105.976 54.9447 104.382 54.9447C102.787 54.9447 101.495 56.2374 101.495 57.8319C101.495 59.4263 102.787 60.719 104.382 60.719Z" fill="white"/>
<path d="M132.479 90.6291L125.751 104.855C123.311 110.014 125.516 116.175 130.675 118.614L144.901 125.342C150.06 127.782 156.22 125.577 158.66 120.418L165.388 106.192C167.827 101.033 165.623 94.8729 160.464 92.4331L146.238 85.7054C141.079 83.2656 134.919 85.4701 132.479 90.6291Z" fill="#00ACB5"/>
<path d="M161.55 108.69L156.656 118.987C155.634 121.135 153.802 122.79 151.563 123.592C149.323 124.393 146.857 124.276 144.704 123.264L132.372 117.433C130.224 116.411 128.569 114.579 127.767 112.34C126.965 110.1 127.083 107.634 128.095 105.481L128.425 104.784C131.781 102.109 137.58 98.4916 139.696 103.414C142.751 110.501 146.71 108.209 151.779 105.244C156.016 102.753 161.101 101.913 161.55 108.69Z" fill="white"/>
<path d="M142.408 97.7368C144.507 97.7368 146.209 96.0351 146.209 93.9362C146.209 91.8369 144.507 90.1356 142.408 90.1356C140.309 90.1356 138.607 91.8369 138.607 93.9362C138.607 96.0351 140.309 97.7368 142.408 97.7368Z" fill="white"/>
<path d="M160.118 50.0994C160.685 51.1425 161.097 52.2619 161.342 53.4229C161.776 55.5601 161.648 57.7727 160.971 59.8455C160.294 61.9183 159.091 63.7803 157.48 65.2487C156.203 66.3783 154.576 67.2632 153.28 68.4458C152.337 69.2614 151.644 70.3257 151.277 71.5164C151.209 71.923 151.046 72.3071 150.8 72.6378C150.042 73.4534 149.304 72.173 148.647 71.9405C147.594 71.5988 146.452 71.6555 145.438 72.0996C142.773 73.1981 139.811 73.3449 137.05 72.5155C134.29 71.6861 131.9 69.9309 130.282 67.5458C128.663 65.1602 127.917 62.2902 128.167 59.4186C128.417 56.5473 129.649 53.8494 131.655 51.7795C133.653 49.7405 136.271 48.4479 138.795 47.1103C141.021 45.9277 143.236 44.6636 145.65 43.9663C151.334 42.278 157.374 45.0958 160.118 50.0994Z" fill="#00ACB5"/>
<path d="M137.315 64.8446C138.817 64.8446 140.035 63.627 140.035 62.1247C140.035 60.6224 138.817 59.4047 137.315 59.4047C135.812 59.4047 134.595 60.6224 134.595 62.1247C134.595 63.627 135.812 64.8446 137.315 64.8446Z" fill="white"/>
<path d="M144.643 60.9262C146.145 60.9262 147.363 59.7085 147.363 58.2062C147.363 56.7039 146.145 55.4863 144.643 55.4863C143.14 55.4863 141.923 56.7039 141.923 58.2062C141.923 59.7085 143.14 60.9262 144.643 60.9262Z" fill="white"/>
<path d="M151.518 57.2479C153.02 57.2479 154.238 56.0303 154.238 54.528C154.238 53.0261 153.02 51.808 151.518 51.808C150.016 51.808 148.798 53.0261 148.798 54.528C148.798 56.0303 150.016 57.2479 151.518 57.2479Z" fill="white"/>
<path d="M244.575 233.269V233.334L243.568 256.488L243.005 269.175C243.005 268.706 243.03 268.22 243.058 267.751C236.097 265.423 227.154 262.112 220.255 259.771C206.675 255.138 196.444 251.578 184.28 248.781C183.546 245.237 182.852 237.636 186.266 226.54C191.159 210.71 192.77 194.647 190.282 191.544C190.259 191.508 190.228 191.478 190.193 191.454C188.423 185.072 183.741 189.203 183.741 189.203C183.741 189.203 183.77 189.268 183.782 189.305C182.808 187.69 181.737 186.135 180.577 184.648C180.616 184.417 180.677 184.191 180.76 183.971C182.265 179.445 190.282 178.356 190.282 178.356C202.018 179.221 208.192 184.452 211.308 191.324C214.052 199.997 212.433 209.401 212.079 218.299C211.936 222.157 211.385 228.086 214.33 231.209C217.049 236.352 223.892 234.129 225.748 233.566C226.351 233.395 227.917 233.289 229.972 233.224C234.16 233.122 240.322 233.199 244.078 233.265C244.261 233.269 244.42 233.269 244.575 233.269Z" fill="#00ACB5"/>
<path d="M82.1532 25.1554C81.2985 25.3459 80.4209 25.4115 79.5474 25.3512C77.9456 25.2248 76.4038 24.684 75.0736 23.7828C73.743 22.8812 72.6697 21.6497 71.9585 20.2089C71.4161 19.0711 71.1429 17.7377 70.5516 16.5795C70.1659 15.7479 69.5538 15.0414 68.7859 14.5406C68.5115 14.41 68.2725 14.2156 68.0886 13.9738C67.6808 13.2724 68.7247 13.0114 69.0224 12.5954C69.4771 11.9188 69.67 11.0998 69.5648 10.2914C69.3225 8.17572 69.8184 6.04124 70.9688 4.24909C72.1192 2.45698 73.8531 1.11716 75.8777 0.456253C77.902 -0.204649 80.0926 -0.146009 82.0786 0.622182C84.0649 1.39037 85.7246 2.82102 86.7775 4.67213C87.8133 6.5031 88.1925 8.61952 88.6248 10.6788C89.0081 12.4935 89.4403 14.3163 89.4403 16.1717C89.477 20.5311 86.2514 24.2338 82.1532 25.1554Z" fill="#00ACB5"/>
<path d="M78.2874 8.56179C79.3933 8.56179 80.2896 7.66535 80.2896 6.55955C80.2896 5.45375 79.3933 4.55731 78.2874 4.55731C77.1815 4.55731 76.2852 5.45375 76.2852 6.55955C76.2852 7.66535 77.1815 8.56179 78.2874 8.56179Z" fill="white"/>
<path d="M79.5678 14.548C80.6737 14.548 81.5701 13.6516 81.5701 12.5458C81.5701 11.44 80.6737 10.5435 79.5678 10.5435C78.4619 10.5435 77.5656 11.44 77.5656 12.5458C77.5656 13.6516 78.4619 14.548 79.5678 14.548Z" fill="white"/>
<path d="M80.7708 20.1679C81.8767 20.1679 82.773 19.2714 82.773 18.1656C82.773 17.0598 81.8767 16.1634 80.7708 16.1634C79.6649 16.1634 78.7686 17.0598 78.7686 18.1656C78.7686 19.2714 79.6649 20.1679 80.7708 20.1679Z" fill="white"/>
<g opacity="0.72">
<path opacity="0.72" d="M201.537 97.9533C209.942 97.9533 216.756 91.1396 216.756 82.7347C216.756 74.3298 209.942 67.516 201.537 67.516C193.132 67.516 186.319 74.3298 186.319 82.7347C186.319 91.1396 193.132 97.9533 201.537 97.9533Z" fill="#00ACB5"/>
<path opacity="0.72" d="M202.108 89.8424C202.621 90.006 203.156 90.09 203.694 90.0912C204.629 90.1034 205.536 89.7739 206.246 89.1651C206.955 88.5563 207.418 87.7097 207.548 86.784C207.632 86.1797 207.574 85.5643 207.38 84.9861C207.185 84.4078 206.859 83.883 206.427 83.4524C207.172 83.0381 207.763 82.3926 208.11 81.6133C208.457 80.834 208.541 79.9634 208.351 79.1319C208.159 78.3004 207.703 77.5537 207.051 77.004C206.399 76.4543 205.586 76.1314 204.734 76.0837C202.944 75.9817 201.027 76.7688 199.515 77.6822C198.727 78.1638 197.989 78.7225 197.313 79.35C196.966 79.6681 194.96 81.442 195.098 81.8865C195.995 84.8103 198.813 88.8189 202.108 89.8424Z" fill="white"/>
</g>
<path d="M208.604 144.849C207.652 146.232 206.504 147.468 205.195 148.519C202.772 150.434 199.893 151.687 196.84 152.156C193.787 152.625 190.665 152.293 187.778 151.194C185.531 150.301 183.378 148.804 181.054 147.932C179.422 147.262 177.635 147.064 175.895 147.361C175.339 147.534 174.749 147.573 174.175 147.475C172.666 147.035 173.808 145.289 173.681 144.311C173.44 142.762 172.641 141.355 171.434 140.355C168.323 137.693 166.228 134.037 165.503 130.007C164.779 125.977 165.47 121.82 167.459 118.241C169.448 114.662 172.613 111.88 176.417 110.367C180.223 108.854 184.433 108.703 188.337 109.938C192.195 111.162 195.494 113.645 198.797 115.982C201.708 118.041 204.706 120.06 207.144 122.637C212.89 128.758 213.18 138.194 208.604 144.849Z" fill="#00ACB5"/>
<path d="M178.856 127.558C180.982 127.558 182.706 125.835 182.706 123.709C182.706 121.583 180.982 119.859 178.856 119.859C176.73 119.859 175.007 121.583 175.007 123.709C175.007 125.835 176.73 127.558 178.856 127.558Z" fill="white"/>
<path d="M188.484 134.32C190.61 134.32 192.333 132.597 192.333 130.471C192.333 128.345 190.61 126.621 188.484 126.621C186.358 126.621 184.634 128.345 184.634 130.471C184.634 132.597 186.358 134.32 188.484 134.32Z" fill="white"/>
<path d="M197.52 140.66C199.647 140.66 201.37 138.937 201.37 136.811C201.37 134.685 199.647 132.961 197.52 132.961C195.394 132.961 193.671 134.685 193.671 136.811C193.671 138.937 195.394 140.66 197.52 140.66Z" fill="white"/>
<g opacity="0.54">
<path opacity="0.54" d="M91.7036 30.6157C91.6526 31.2804 91.5503 31.9402 91.3978 32.5894L89.6932 39.9826C89.1712 42.2458 88.584 44.6314 86.9651 46.2951C83.9475 49.3821 78.895 48.6766 74.6825 47.7387L64.341 45.4429C61.9677 44.9127 59.5536 44.3745 57.4086 43.1919C55.2637 42.0093 53.4368 40.0886 52.923 37.7031C52.56 35.9455 52.9515 34.1308 53.3308 32.3774L54.9415 25.2737C55.4594 22.9493 56.0466 20.4903 57.7226 18.8021C60.7117 15.7886 65.6623 16.4737 69.8095 17.3708L80.3834 19.6666C86.7694 21.0653 92.2133 24.0259 91.7036 30.6157Z" fill="#00ACB5"/>
<path opacity="0.54" d="M77.4433 30.8147C77.8857 31.227 78.2115 31.7482 78.3889 32.3264C78.5659 32.9046 78.5879 33.5192 78.4525 34.1084C78.3167 34.6977 78.0284 35.2409 77.6166 35.6833C77.2047 36.1258 76.6836 36.4524 76.1057 36.6298L72.9535 37.5962L69.8054 38.5586C69.2259 38.7368 68.6102 38.7588 68.0197 38.6226C67.4288 38.4864 66.8848 38.1969 66.442 37.7834C65.9987 37.3699 65.6729 36.8467 65.4967 36.2668C65.3201 35.687 65.3002 35.0708 65.438 34.4807L66.1761 31.2674L66.9142 28.0581C67.0508 27.4688 67.3395 26.9257 67.7522 26.4836C68.1645 26.0412 68.686 25.7149 69.2643 25.5379C69.8429 25.3606 70.4574 25.3385 71.0471 25.4739C71.6364 25.6093 72.1799 25.8972 72.6232 26.3087L75.0332 28.5556L77.4433 30.8147Z" fill="white"/>
</g>
<g opacity="0.54">
<path opacity="0.54" d="M207.915 44.8463C207.864 45.511 207.762 46.1712 207.609 46.82L205.905 54.2254C205.383 56.4886 204.795 58.8742 203.177 60.5339C200.159 63.6249 195.106 62.9154 190.894 61.9815L180.552 59.6816C178.179 59.1556 175.765 58.6132 173.62 57.4347C171.475 56.2562 169.648 54.3274 169.134 51.9459C168.771 50.1883 169.163 48.3737 169.542 46.6202L171.157 39.5451C171.671 37.2166 172.258 34.7617 173.934 33.0694C176.923 30.0599 181.874 30.7409 186.021 31.6421L196.579 33.9217C202.981 35.3041 208.425 38.2687 207.915 44.8463Z" fill="#00ACB5"/>
<path opacity="0.54" d="M193.655 45.0539C194.097 45.4665 194.423 45.9881 194.6 46.5663C194.777 47.1446 194.798 47.7595 194.663 48.3488C194.528 48.9384 194.239 49.4816 193.828 49.9249C193.416 50.3677 192.895 50.6948 192.317 50.873L189.165 51.8354L186.017 52.8018C185.437 52.9796 184.822 53.0016 184.231 52.8654C183.64 52.7296 183.096 52.4401 182.653 52.0266C182.21 51.6127 181.884 51.0899 181.708 50.5101C181.532 49.9302 181.512 49.314 181.649 48.7239L182.387 45.5147L183.126 42.3054C183.262 41.7161 183.551 41.1729 183.964 40.7305C184.376 40.288 184.897 39.9622 185.476 39.7848C186.054 39.6078 186.669 39.5854 187.258 39.7208C187.848 39.8562 188.391 40.1441 188.835 40.556L191.245 42.8029L193.655 45.0539Z" fill="white"/>
</g>
<g opacity="0.54">
<path opacity="0.54" d="M159.115 144.053C159.089 144.362 159.04 144.67 158.968 144.971L158.177 148.425C157.932 149.477 157.659 150.586 156.905 151.361C155.502 152.8 153.149 152.47 151.196 152.034L146.38 150.965C145.262 150.771 144.177 150.418 143.158 149.917C142.65 149.663 142.202 149.303 141.844 148.862C141.485 148.422 141.225 147.91 141.079 147.361C140.968 146.53 141.033 145.685 141.27 144.881L142.004 141.578C142.245 140.497 142.518 139.352 143.301 138.565C144.692 137.162 146.996 137.48 148.924 137.9L153.85 138.968C156.815 139.604 159.352 140.983 159.115 144.053Z" fill="#00ACB5"/>
<path opacity="0.54" d="M152.472 144.147C152.678 144.338 152.831 144.581 152.914 144.851C152.997 145.12 153.007 145.406 152.944 145.681C152.88 145.956 152.746 146.209 152.553 146.415C152.361 146.621 152.118 146.772 151.848 146.854L150.384 147.303L148.916 147.752C148.647 147.836 148.36 147.847 148.084 147.785C147.809 147.723 147.555 147.588 147.348 147.396C147.141 147.204 146.989 146.961 146.906 146.691C146.823 146.421 146.813 146.134 146.877 145.859L147.236 144.347L147.579 142.85C147.641 142.575 147.775 142.321 147.967 142.114C148.159 141.907 148.402 141.754 148.672 141.671C148.942 141.589 149.229 141.579 149.503 141.643C149.778 141.706 150.032 141.842 150.237 142.034L151.359 143.078L152.472 144.147Z" fill="white"/>
</g>
<g opacity="0.54">
<path opacity="0.54" d="M108.35 0.858997C108.684 1.033 109.006 1.23061 109.312 1.45029L112.737 3.95411C113.789 4.71667 114.886 5.54448 115.384 6.74337C116.31 8.97397 114.833 11.4166 113.426 13.374L109.973 18.1859C109.233 19.3315 108.332 20.3643 107.297 21.2525C106.221 22.0681 104.826 22.6145 103.493 22.3413C102.51 22.1456 101.662 21.5257 100.846 20.9589L97.5432 18.5896C96.4625 17.8148 95.3289 16.9585 94.8273 15.7351C93.9342 13.533 95.3737 11.1393 96.748 9.21049L100.251 4.27626C102.351 1.29941 105.071 -0.849635 108.35 0.858997Z" fill="#00ACB5"/>
<path opacity="0.54" d="M105.316 8.23648C105.623 8.10008 105.961 8.04674 106.296 8.08181C106.631 8.11688 106.951 8.23918 107.224 8.43642C107.496 8.63367 107.713 8.89902 107.851 9.20596C107.989 9.5129 108.044 9.85075 108.011 10.1857L107.815 12.0208L107.62 13.8558C107.584 14.1921 107.46 14.513 107.261 14.7862C107.061 15.0594 106.794 15.2754 106.485 15.4122C106.175 15.549 105.835 15.602 105.499 15.5657C105.163 15.5294 104.842 15.4052 104.569 15.2056L103.081 14.1209L101.592 13.0402C101.318 12.8413 101.101 12.5737 100.964 12.2642C100.827 11.9548 100.773 11.6146 100.809 11.2778C100.845 10.9411 100.969 10.6199 101.169 10.3465C101.369 10.0731 101.637 9.85732 101.947 9.72083L103.631 8.97458L105.316 8.23648Z" fill="white"/>
</g>
<path d="M269.797 308.687C269.795 308.758 269.787 308.829 269.772 308.899C269.766 308.916 269.766 308.935 269.772 308.952C269.199 312.76 267.618 316.346 265.193 319.338C265.164 319.363 265.152 319.403 265.128 319.428C261.4 324.073 255.997 327.425 250.529 329.529C244.942 331.702 239.278 332.579 235.245 332.277H235.155C230.221 331.91 224.806 332.55 220.067 333.439C219.57 333.533 219.072 333.623 218.575 333.729C215.447 334.357 212.36 335.14 209.301 336.004L208.726 336.163L208.343 336.265C205.489 317.572 203.556 298.431 203.556 298.431L261.869 308.793C264.494 309.269 267.186 309.233 269.797 308.687Z" fill="#00ACB5"/>
<path d="M150.042 219.828C146.975 222.871 142.869 223.458 138.836 224.355C129.673 226.394 121.99 224.078 121.586 213.544C121.325 206.767 122.043 199.986 126.145 194.358C131.059 187.617 138.607 183.128 146.127 179.849C146.127 179.849 149.577 197.498 165.293 198.265C181.009 199.031 177.184 219.751 158.768 216.297" stroke="black" stroke-width="4.47" stroke-miterlimit="10"/>
<path d="M161.855 225.123C162.263 225.123 162.638 225.123 163.018 225.094C163.11 225.088 163.203 225.088 163.295 225.094H163.332L164.053 225.029" stroke="black" stroke-width="4.47" stroke-miterlimit="10"/>
<path d="M179.268 182.015C176.691 178.952 173.612 176.35 170.162 174.32C169.778 174.067 169.381 173.836 168.971 173.627C168.563 173.394 168.156 173.17 167.748 172.962C166.887 172.517 165.994 172.097 165.081 171.738C159.688 169.481 153.898 168.326 148.052 168.342C116.603 168.342 125.342 195.553 125.342 195.553" stroke="black" stroke-width="4.47" stroke-miterlimit="10"/>
<path d="M184.488 248.513C183.403 242.731 184.761 233.731 186.266 226.533C187.615 220.123 189.092 215.152 189.092 215.152C191.318 202.07 191.224 195.056 190.193 191.447C188.423 185.074 183.741 189.204 183.741 189.204" stroke="black" stroke-width="4.47" stroke-miterlimit="10"/>
<path d="M190.193 191.447C188.423 185.074 183.741 189.204 183.741 189.204C182.932 187.362 181.933 185.608 180.76 183.973C180.287 183.315 179.79 182.673 179.268 182.048C180.667 178.333 184.398 176.119 188.239 175.821C198.324 175.046 208.266 181.722 211.304 191.317C214.048 199.99 212.429 209.394 212.074 218.292C211.932 222.15 211.381 228.079 214.325 231.203C214.48 231.362 214.627 231.504 214.794 231.647C217.241 233.755 221.14 233.874 225.76 233.56C227.105 233.466 228.521 233.352 229.984 233.217C234.47 232.809 239.364 232.459 244.09 233.258L244.559 233.335C244.416 241.042 243.943 248.774 243.552 256.481C243.344 260.233 243.144 263.989 243.042 267.744C236.081 265.416 227.138 262.105 220.238 259.764L216.56 258.496C204.771 254.479 195.327 251.311 184.3 248.774C180.047 247.791 175.561 246.915 170.602 246.103L165.33 245.177C164.976 245.116 164.656 244.931 164.426 244.655C164.196 244.38 164.071 244.032 164.074 243.673V225.016C167.595 224.717 170.999 223.607 174.02 221.774C177.041 219.94 179.596 217.432 181.486 214.447C186.588 206.242 187.073 197.845 184.284 190.477C184.184 190.182 184.069 189.894 183.937 189.612C183.906 189.527 183.871 189.444 183.831 189.363C183.831 189.339 183.807 189.298 183.794 189.27" stroke="black" stroke-width="4.47" stroke-miterlimit="10"/>
<path d="M54.0811 258.496C55.7122 245.854 56.4626 232.997 58.0448 220.282" stroke="black" stroke-width="4.47" stroke-miterlimit="10"/>
<path d="M58.3058 218.292C58.7502 214.851 59.2763 211.409 59.9369 208.008C59.9614 207.841 59.9899 207.682 60.0266 207.527C60.3936 205.512 60.8014 203.51 61.25 201.508C62.612 195.517 67.3668 191.134 70.7474 186.252L70.9553 185.731C78.2486 175.12 82.2865 162.611 82.5732 149.739C82.6548 145.082 82.4713 135.874 77.1333 133.974C74.1361 132.902 70.9553 134.998 69.2956 137.391C68.6138 138.379 68.0658 139.453 67.6645 140.584" stroke="black" stroke-width="4.47" stroke-miterlimit="10"/>
<path d="M106.78 366.999C93.7588 330.029 99.9328 289.641 99.9328 289.641L80.73 290.245L30.0746 291.852C27.0994 291.95 24.138 291.408 21.3904 290.264C18.6423 289.119 16.1723 287.397 14.1472 285.216C12.1218 283.034 10.5885 280.444 9.65055 277.619C8.71264 274.793 8.39212 271.8 8.7106 268.84L23.758 213.907" stroke="black" stroke-width="4.47" stroke-miterlimit="10"/>
<path d="M24.4879 211.225L25.8091 206.413L27.3424 200.956" stroke="black" stroke-width="4.47" stroke-miterlimit="10"/>
<path d="M28.6474 196.259L29.5241 193.107C30.6855 188.922 30.398 184.467 28.7085 180.466L26.9673 176.306C25.8295 172.84 25.4748 171.164 26.902 167.775C27.5773 166.176 28.5254 164.707 29.7035 163.432C33.1412 159.64 37.9816 157.756 42.9689 157.112C47.9561 156.467 53.4613 156.969 57.4739 160.203C60.1979 162.396 62.7751 167.62 60.9931 171.033C59.7004 173.517 56.9642 174.239 54.6357 173.35C53.8209 173.045 53.0869 172.557 52.4907 171.922C49.7422 169.043 43.9272 168.415 41.8882 171.217" stroke="black" stroke-width="4.47" stroke-miterlimit="10"/>
<path d="M242.928 272.324C242.928 271.301 242.964 270.285 243.005 269.25V269.168C243.005 268.699 243.03 268.214 243.058 267.745" stroke="black" stroke-width="4.47" stroke-miterlimit="10"/>
<path d="M237.696 174.372C232.921 176.925 227.057 183.344 236.95 198.432C240.212 203.403 243.658 208.777 244.143 214.915C244.595 221.047 244.739 227.199 244.575 233.347" stroke="black" stroke-width="4.47" stroke-miterlimit="10"/>
<path d="M191.383 296.29L202.736 298.304L203.552 298.447L208.759 299.377L261.857 308.809C264.486 309.287 267.182 309.251 269.797 308.703C274.338 307.747 278.429 305.302 281.422 301.756C284.414 298.21 286.137 293.766 286.316 289.129L278.47 224.899L276.733 211.189C276.182 206.877 277.108 202.506 279.359 198.788L281.688 194.914C281.688 194.914 285.741 189.001 278.65 188.569C274.829 188.344 270.853 189.384 267.399 190.95C265.425 191.827 262.652 193.397 261.539 195.554C261.086 196.371 260.934 197.32 261.107 198.237C261.922 202.45 267.224 204.228 270.722 202.45" stroke="black" stroke-width="4.47" stroke-miterlimit="10"/>
<path d="M280.991 188.874C280.991 188.874 284.999 186.489 282.287 180.621C281.325 178.533 278.409 177.085 272.133 177.485C255.414 178.549 248.865 195.741 261.559 195.554" stroke="black" stroke-width="4.47" stroke-miterlimit="10"/>
<path d="M277.182 177.456C280.893 172.342 274.327 167.449 269.544 167.616C265.034 167.775 260.471 169.443 256.519 171.531C251.022 174.434 243.927 180.058 245.958 187.174C246.557 189.27 251.3 191.859 254.399 190.363" stroke="black" stroke-width="4.47" stroke-miterlimit="10"/>
<path d="M245.607 184.645C245.607 184.645 245.607 184.645 245.607 184.669C243.017 189.615 230.759 184.669 237.679 174.372C239.296 172.094 241.234 170.063 243.433 168.341C260.691 154.24 264.549 168.578 264.524 167.725" stroke="black" stroke-width="4.47" stroke-miterlimit="10"/>
<path d="M253.118 190.477C253.118 190.477 259.431 194.962 257.494 202.437" stroke="black" stroke-width="4.47" stroke-miterlimit="10"/>
<path d="M30.8739 154.595C30.4661 152.989 30.5191 150.962 31.4733 148.369C32.8476 144.641 36.8521 142.195 40.7505 140.584C42.1737 139.997 43.605 139.511 44.8284 139.132C49.0816 137.827 53.7508 137.134 58.2854 137.591C59.8138 137.739 61.3246 138.028 62.7996 138.455C64.5009 138.946 66.1288 139.662 67.64 140.584C71.3672 142.876 73.8914 146.354 75.4084 150.921C76.7296 154.861 77.2394 159.542 73.9689 162.001" stroke="black" stroke-width="4.47" stroke-miterlimit="10"/>
<path d="M74.2666 214.418L73.0636 220.241C73.0237 220.437 72.945 220.623 72.8316 220.788C72.7182 220.952 72.5731 221.092 72.4046 221.2C72.2358 221.307 72.0474 221.379 71.8505 221.412C71.6531 221.445 71.4512 221.438 71.2571 221.391C66.6287 220.294 62.5713 219.275 58.3058 218.292C56.1894 217.794 54.0036 217.325 51.6874 216.84C42.6345 214.968 33.5938 212.856 24.492 211.225C20.6874 210.544 16.8786 209.953 13.0454 209.508C10.9004 209.259 8.72694 209.158 6.56974 208.998C6.09834 208.988 5.64121 208.833 5.26074 208.554C3.2218 207.061 5.26074 202.209 5.70523 200.194C5.70523 200.17 5.70523 200.141 5.70523 200.117C6.01923 198.571 14.9008 199.016 27.318 200.953C31.6487 201.634 36.4076 202.482 41.3948 203.506C48.4047 204.945 54.7254 206.499 59.8921 207.991C60.7811 208.252 61.6333 208.501 62.4448 208.75C62.4448 208.75 62.4448 208.75 62.4693 208.75C63.501 209.076 64.4715 209.39 65.385 209.704C71.1552 211.674 74.4787 213.386 74.2666 214.418Z" fill="#00ACB5"/>
<path d="M74.2666 214.418L73.0636 220.241C73.0237 220.437 72.945 220.623 72.8316 220.788C72.7182 220.952 72.5731 221.092 72.4046 221.2C72.2358 221.307 72.0474 221.379 71.8505 221.412C71.6531 221.445 71.4512 221.438 71.2571 221.391C66.6287 220.294 62.5713 219.275 58.3058 218.292C56.1894 217.794 54.0036 217.325 51.6874 216.84C42.6345 214.968 33.5938 212.856 24.492 211.225C20.6874 210.544 16.8786 209.953 13.0454 209.508C10.9004 209.259 8.72694 209.158 6.56974 208.998C6.09834 208.988 5.64121 208.833 5.26074 208.554C3.2218 207.061 5.26074 202.209 5.70523 200.194C5.70523 200.17 5.70523 200.141 5.70523 200.117C6.01923 198.571 14.9008 199.016 27.318 200.953C31.6487 201.634 36.4076 202.482 41.3948 203.506C48.4047 204.945 54.7254 206.499 59.8921 207.991C60.7811 208.252 61.6333 208.501 62.4448 208.75C62.4448 208.75 62.4448 208.75 62.4693 208.75C63.501 209.076 64.4715 209.39 65.385 209.704C71.1552 211.674 74.4787 213.386 74.2666 214.418Z" stroke="black" stroke-width="4.47" stroke-miterlimit="10"/>
<path d="M61.5681 167.897L62.7262 170.217C64.182 171.812 66.1965 172.819 68.9572 172.126C74.3726 170.78 74.9068 166.29 73.9648 162C73.8029 161.222 73.5933 160.453 73.3368 159.701C72.0686 155.916 70.1072 152.87 67.3587 150.648C65.4058 149.067 63.1491 147.904 60.728 147.23C58.7556 146.661 56.7203 146.336 54.6683 146.264C50.6365 146.125 46.6108 146.677 42.765 147.895C38.9195 149.074 33.6591 151.1 30.8616 154.579C30.2349 155.343 29.739 156.205 29.3936 157.131C28.5332 159.472 28.3864 161.368 28.6881 162.902L28.9777 164.329" stroke="black" stroke-width="4.47" stroke-miterlimit="10"/>
<path d="M63.0688 138.545L64.4145 132.971L66.013 126.406C66.2385 125.459 66.267 124.476 66.0962 123.518C65.9253 122.56 65.5587 121.647 65.0196 120.837C64.4805 120.026 63.7804 119.336 62.9627 118.808C62.1451 118.28 61.2276 117.926 60.2673 117.769C59.8913 117.706 59.5108 117.676 59.1295 117.679C57.5159 117.675 55.9496 118.224 54.6924 119.236C53.4356 120.248 52.5633 121.66 52.2216 123.237C51.8138 125.137 51.3041 127.449 50.7413 130.055C50.2071 132.526 49.6158 135.234 48.9879 138.089" stroke="black" stroke-width="4.47" stroke-miterlimit="10"/>
<path d="M47.0957 146.852V146.839" stroke="black" stroke-width="2.98" stroke-miterlimit="10"/>
<path d="M41.9005 171.212C41.4927 173.214 41.2603 174.474 41.2725 174.69C41.2725 174.69 41.2725 174.69 41.2725 174.719C39.5068 186.586 34.3116 192.931 28.6596 196.238C25.2028 198.205 21.3419 199.356 17.3721 199.602" stroke="black" stroke-width="4.47" stroke-miterlimit="10"/>
<path d="M54.6683 173.345C54.6683 173.345 45.1995 198.583 60.0062 207.53C60.7892 208 61.6072 208.409 62.453 208.753C63.4663 209.174 64.5123 209.511 65.5807 209.76" stroke="black" stroke-width="4.47" stroke-miterlimit="10"/>
<path d="M72.2807 221.273C72.2807 221.273 72.3459 222.439 58.0448 220.282C53.1513 219.548 46.5737 218.422 37.7288 216.722C32.1829 215.662 27.5749 214.72 23.758 213.908C3.70296 209.618 5.25663 208.558 5.25663 208.558" stroke="black" stroke-width="4.47" stroke-miterlimit="10"/>
<path d="M112.574 79.4071C109.524 95.5759 99.476 112.597 87.2913 123.522C82.3081 128.007 76.5135 131.135 70.258 132.367C68.3386 132.757 66.3852 132.958 64.4266 132.966L66.0129 126.405C66.4024 124.789 66.2123 123.087 65.4763 121.597C64.7398 120.106 63.5042 118.922 61.984 118.249C61.4347 118.013 60.8601 117.842 60.2713 117.739C59.8941 117.677 59.512 117.647 59.1295 117.649C57.5126 117.647 55.9438 118.2 54.6858 119.216C53.4282 120.233 52.5584 121.651 52.2216 123.232C51.9728 124.423 51.671 125.773 51.3448 127.249C35.8489 117.005 29.1285 95.0947 29.8748 77.3029C30.1113 71.39 30.4375 63.6054 33.027 57.5864C33.9009 55.4414 35.2054 53.4983 36.8602 51.8774C44.2004 44.9694 54.2483 41.8172 64.6102 41.3442C72.5632 41.7194 80.3903 43.4773 87.7399 46.5394C101.442 52.3259 115.739 62.5859 112.574 79.4071Z" fill="#00ACB5"/>
<path d="M112.574 79.4071C109.524 95.5759 99.476 112.597 87.2913 123.522C82.3081 128.007 76.5135 131.135 70.258 132.367L71.7057 126.405C71.9312 125.458 71.9597 124.475 71.7889 123.517C71.6176 122.559 71.2514 121.646 70.7123 120.836C70.1732 120.026 69.473 119.335 68.6554 118.807C67.8378 118.28 66.9203 117.926 65.9599 117.768C65.5839 117.705 65.2035 117.676 64.8222 117.678C63.839 117.674 62.866 117.878 61.9677 118.277C61.4184 118.042 60.8438 117.871 60.255 117.768C59.8778 117.705 59.4957 117.675 59.1132 117.678C57.5028 117.678 55.941 118.229 54.6874 119.239C53.4335 120.25 52.5633 121.658 52.2216 123.232C51.9728 124.423 51.671 125.773 51.3448 127.249C35.8489 117.005 29.1285 95.0947 29.8748 77.3029C30.1113 71.39 30.4375 63.6054 33.027 57.5864C33.9009 55.4414 35.2054 53.4983 36.8602 51.8774C44.2004 44.9694 54.2483 41.8172 64.6102 41.3442C72.5632 41.7194 80.3903 43.4773 87.7399 46.5394C101.442 52.3259 115.739 62.5859 112.574 79.4071Z" fill="#00ACB5"/>
<path d="M112.574 79.4112C109.528 95.58 99.4801 112.601 87.2913 123.526C80.7667 129.373 72.8923 132.929 64.4144 132.97L66.0129 126.405C66.2384 125.458 66.267 124.475 66.0961 123.517C65.9248 122.559 65.5587 121.646 65.0196 120.836C64.4805 120.026 63.7803 119.335 62.9627 118.807C62.1451 118.279 61.2275 117.926 60.2672 117.768C59.8912 117.705 59.5108 117.676 59.1295 117.678C57.5159 117.674 55.9495 118.224 54.6923 119.235C53.4351 120.247 52.5633 121.659 52.2215 123.236C51.8138 125.136 51.304 127.449 50.7413 130.054C31.616 121.576 23.3583 96.942 24.1861 77.307C24.4186 71.3941 24.7448 63.6094 27.3383 57.5905C28.2106 55.4447 29.5155 53.5012 31.1715 51.8814C45.6113 38.3021 70.4578 39.24 87.7399 46.5435C101.437 52.33 115.739 62.5859 112.574 79.4112Z" stroke="black" stroke-width="4.47" stroke-miterlimit="10"/>
<path d="M112.493 79.9948C115.792 83.9421 118.887 90.5565 116.163 100.384C115.744 101.935 115.144 103.431 114.377 104.841C110.046 112.589 101.686 113.947 96.0506 113.866" stroke="black" stroke-width="4.47" stroke-miterlimit="10"/>
<path d="M109.981 88.2606C112.835 91.6779 115.474 97.0892 114.373 104.849C114.198 106.095 113.94 107.328 113.602 108.54C109.524 123.188 94.554 122.466 89.4159 121.752" stroke="black" stroke-width="4.47" stroke-miterlimit="10"/>
<path d="M30.0338 108.461C26.8449 109.118 8.80032 105.415 8.58012 90.3717C8.51528 88.3328 8.89983 86.3045 9.70562 84.4303C12.5316 78.0606 19.9859 76.0461 24.28 75.3896" stroke="black" stroke-width="4.47" stroke-miterlimit="10"/>
<path d="M26.7878 100.922C23.5255 101.121 6.19046 94.9353 8.07036 80.0062C8.29464 77.9839 8.95853 76.0355 10.0155 74.2971C13.6856 68.3801 21.3683 67.43 25.7072 67.3647" stroke="black" stroke-width="4.47" stroke-miterlimit="10"/>
<path d="M99.9328 289.646C99.9328 289.646 100.304 286.812 102.343 280.41" stroke="black" stroke-width="4.47" stroke-miterlimit="10"/>
<path d="M166.998 245.449V245.478C166.851 255.228 160.065 257.438 154.491 258.499C140.752 261.125 131.214 251.105 131.634 242.379" stroke="black" stroke-width="4.47" stroke-miterlimit="10"/>
<path d="M134.24 191.802C134.24 191.802 134.648 196.288 130.745 202.074C129.701 203.632 133.314 204.272 134.175 204.562" stroke="black" stroke-width="4.47" stroke-miterlimit="10"/>
<path d="M149.974 201.51C152.291 197.496 151.525 192.715 148.262 190.831C144.999 188.947 140.475 190.673 138.158 194.688C135.84 198.701 136.606 203.483 139.869 205.367C143.133 207.25 147.657 205.524 149.974 201.51Z" stroke="black" stroke-width="4.47" stroke-miterlimit="10"/>
<path d="M133.786 196.317C136.103 192.284 135.325 187.488 132.046 185.604C128.769 183.721 124.232 185.462 121.915 189.495C119.598 193.527 120.376 198.323 123.654 200.207C126.932 202.091 131.468 200.349 133.786 196.317Z" stroke="black" stroke-width="4.48539" stroke-miterlimit="10"/>
<path d="M128.139 187.753C128.82 187.747 129.49 187.922 130.081 188.262C130.629 188.599 131.094 189.056 131.441 189.599C131.788 190.141 132.007 190.755 132.083 191.394C132.304 192.989 131.972 194.611 131.141 195.99C129.917 198.09 127.878 199.444 125.86 199.444C125.179 199.452 124.509 199.278 123.919 198.938C123.371 198.601 122.906 198.144 122.559 197.602C122.213 197.059 121.993 196.446 121.917 195.807C121.695 194.211 122.028 192.587 122.859 191.207C124.082 189.111 126.121 187.753 128.139 187.753ZM128.139 186.529C125.782 186.529 123.283 188.03 121.807 190.607C119.768 194.139 120.44 198.355 123.311 199.986C124.086 200.433 124.966 200.665 125.86 200.659C128.217 200.659 130.717 199.154 132.197 196.581C134.236 193.054 133.559 188.833 130.688 187.202C129.913 186.759 129.033 186.528 128.139 186.533V186.529Z" fill="white"/>
<path d="M132.195 196.587C134.233 193.057 133.559 188.852 130.69 187.196C127.821 185.539 123.843 187.058 121.805 190.588C119.767 194.119 120.44 198.323 123.309 199.98C126.178 201.636 130.156 200.117 132.195 196.587Z" fill="#00ACB5"/>
<path d="M150.153 200.349C152.191 196.802 151.507 192.585 148.625 190.928C145.742 189.272 141.753 190.804 139.715 194.35C137.677 197.897 138.361 202.115 141.244 203.771C144.126 205.427 148.115 203.895 150.153 200.349Z" fill="#00ACB5"/>
<path d="M134.187 193.282C134.187 193.282 135.41 191.459 138.171 194.685" stroke="black" stroke-width="4.47" stroke-miterlimit="10"/>
<path d="M146.191 197.737C146.855 196.868 146.795 195.706 146.058 195.143C145.32 194.58 144.184 194.829 143.52 195.698C142.856 196.569 142.915 197.73 143.653 198.293C144.39 198.856 145.527 198.608 146.191 197.737Z" fill="#353642"/>
<path d="M132.434 193.777C133.098 192.908 133.039 191.746 132.301 191.183C131.563 190.62 130.427 190.869 129.763 191.738C129.099 192.609 129.158 193.77 129.896 194.333C130.633 194.896 131.77 194.648 132.434 193.777Z" fill="#353642"/>
<path d="M142.559 211.831C134.207 218.927 129.824 212.606 129.824 212.606" stroke="black" stroke-width="4.47" stroke-miterlimit="10"/>
<path d="M54.0811 252.619C61.303 251.326 68.5902 250.315 75.7469 248.994C79.2375 248.352 82.7253 247.73 86.2107 247.126C101.739 244.484 117.243 242.428 132.943 242.363C133.701 242.364 134.434 242.09 135.006 241.592C135.578 241.094 135.95 240.407 136.055 239.656L136.344 237.482L138.175 223.931" stroke="black" stroke-width="4.47" stroke-miterlimit="10"/>
<path d="M164.053 225.016V224.95V224.624" stroke="black" stroke-width="4.47" stroke-miterlimit="10"/>
<path d="M5.22809 367H94.6764H104.794H191.461H207.699H315.942" stroke="black" stroke-width="4.47" stroke-miterlimit="10"/>
<path d="M203.548 298.447C203.548 298.447 205.472 317.588 208.335 336.281C210.219 348.58 212.523 360.679 214.929 367" stroke="black" stroke-width="4.47" stroke-miterlimit="10"/>
<path d="M208.335 336.28L208.714 336.178L209.293 336.019C212.352 335.155 215.439 334.388 218.566 333.744C219.064 333.638 219.561 333.548 220.059 333.454C223.547 332.811 227.083 332.466 230.629 332.422C232.199 332.422 233.704 332.369 235.143 332.292H235.233C241.264 331.949 246.304 330.983 250.517 329.543C257.396 327.203 262.041 323.606 265.115 319.443C265.14 319.418 265.152 319.377 265.181 319.353C267.417 316.25 268.978 312.711 269.76 308.966C269.754 308.949 269.754 308.931 269.76 308.913L269.801 308.718" stroke="black" stroke-width="4.47" stroke-miterlimit="10"/>
</svg>
