<svg width="926" height="852" viewBox="0 0 926 852" fill="none" xmlns="http://www.w3.org/2000/svg">
<path d="M442.36 214.547C452.622 214.547 460.94 206.229 460.94 195.967C460.94 185.706 452.622 177.387 442.36 177.387C432.099 177.387 423.78 185.706 423.78 195.967C423.78 206.229 432.099 214.547 442.36 214.547Z" fill="#D7E8F0"/>
<path d="M490.5 212.895C500.761 212.895 509.08 204.576 509.08 194.315C509.08 184.053 500.761 175.735 490.5 175.735C480.239 175.735 471.92 184.053 471.92 194.315C471.92 204.576 480.239 212.895 490.5 212.895Z" fill="#D7E8F0"/>
<path d="M126.25 493.936C117.314 485.801 109.107 476.9 101.72 467.336C78.374 436.087 67.8948 397.077 72.4399 358.336C77.5299 316.476 101.11 272.966 139.53 253.606C180.53 232.956 231.32 237.226 267.76 206.606C298.15 180.996 308.85 139.396 331.09 107.266C350.09 79.8958 373.09 54.9258 400.98 36.4258C476.39 -13.5742 568.98 -0.994238 648.69 31.8558C687.79 47.9858 717.5 68.6358 739.96 91.6158" stroke="#CCDDE2" stroke-width="5.55" stroke-miterlimit="10"/>
<path d="M767.47 125.946C831.37 224.676 795.32 343.946 795.32 343.946" stroke="#CCDDE2" stroke-width="5.55" stroke-miterlimit="10"/>
<path d="M211.02 594.957C240.59 699.087 202.13 743.107 202.13 743.107" stroke="#CCDDE2" stroke-width="5.55" stroke-miterlimit="10"/>
<path d="M689.65 301.317C686.347 289.235 680.061 278.177 671.37 269.157C654.37 251.087 629.24 240.487 604.37 241.257C586.82 241.817 564.01 245.877 549.66 233.027C542.15 226.347 540.56 215.477 537.66 206.427C534.462 196.208 531.792 185.831 529.66 175.337C527.761 165.355 524.155 155.774 519 147.017C513.434 137.537 505.556 129.624 496.1 124.017C478.34 113.757 453.55 112.807 435.7 123.327C433.159 124.849 430.751 126.582 428.5 128.507C427.973 128.941 427.469 129.401 426.99 129.887C411.51 144.157 404.05 167.227 404.44 187.837C404.44 187.837 404.44 189.127 404.44 191.367C404.44 192.577 404.44 193.657 404.44 194.607C404.49 196.457 404.53 198.697 404.49 201.157C405.31 213.267 407.25 265.437 384.78 293.377C395.69 289.977 406.78 286.917 417.94 284.377C417.969 284.387 418.001 284.387 418.03 284.377C419.19 283.727 430.32 277.827 437.78 280.377C439.195 280.854 440.472 281.669 441.5 282.751C442.528 283.833 443.276 285.15 443.68 286.587C443.68 286.667 443.68 286.717 443.77 286.757C443.86 287.107 443.99 287.487 444.07 287.877C444.151 288.242 444.252 288.603 444.37 288.957C445.308 291.835 446.598 294.586 448.21 297.147C448.427 297.549 448.689 297.924 448.99 298.267C450.572 300.349 452.429 302.206 454.51 303.787C453.73 303.017 452.91 302.147 452.05 301.287C449.177 298.434 446.992 294.963 445.661 291.139C444.33 287.315 443.889 283.238 444.37 279.217C444.37 279.217 446.23 281.457 450.02 279.297C453.81 277.137 448.08 258.477 446.66 252.907C446.14 250.837 449.2 251.097 453.95 252.267C450.487 249.906 447.33 247.124 444.55 243.987C442.614 241.847 440.855 239.552 439.29 237.127C432.47 226.527 429.89 218.377 428.51 208.287C425.322 204.731 423.643 200.073 423.829 195.3C424.016 190.527 426.054 186.014 429.51 182.717C429.584 182.607 429.671 182.506 429.77 182.417C431.92 179.657 436.32 178.617 439.17 176.597C442.213 174.309 444.908 171.59 447.17 168.527C449.8 165.077 454.17 159.997 453.77 155.337C454.93 167.967 465.88 176.337 478 176.677C480.923 176.67 483.843 176.513 486.75 176.207C486.75 176.207 486.75 176.207 486.84 176.207C488.073 175.945 489.33 175.814 490.59 175.817C493.569 175.811 496.505 176.526 499.148 177.9C501.791 179.274 504.063 181.266 505.77 183.707C505.943 183.926 506.1 184.157 506.24 184.397C506.46 184.737 506.67 185.127 506.89 185.517C507.604 186.599 508.197 187.756 508.66 188.967C511.42 196.037 511.2 203.967 510.77 211.427C510.12 222.427 507.58 233.977 501.46 243.377C501.738 243.129 502.065 242.943 502.42 242.831C502.775 242.719 503.15 242.684 503.52 242.727C508.27 243.547 504.91 274.247 510.16 275.847C515.41 277.447 515.16 281.537 515.16 281.537C515.16 282.267 515.08 282.957 514.99 283.647C515.469 281.12 515.644 278.545 515.51 275.977C517.06 276.057 518.61 276.227 520.16 276.447C528.96 273.447 546.16 282.867 546.16 282.867C546.183 282.895 546.215 282.913 546.25 282.917C587.55 298.827 615.71 338.707 625.25 383.197C628.722 399.208 630.529 415.535 630.64 431.917V350.017C630.639 348.998 630.839 347.988 631.228 347.046C631.618 346.104 632.189 345.248 632.91 344.527C633.631 343.806 634.487 343.235 635.429 342.845C636.371 342.456 637.381 342.256 638.4 342.257H691.56C690.68 328.397 693.27 314.907 689.65 301.317ZM476.01 313.397C477.43 313.777 478.9 314.127 480.37 314.397C481.31 314.397 482.26 314.307 483.21 314.227C490.352 313.442 497.089 310.51 502.53 305.817C497.22 309.567 490.53 311.897 482.74 312.817C480.19 313.137 477.95 313.307 476.01 313.397ZM497.1 248.807C492.015 254.032 485.325 257.402 478.1 258.377C479.456 258.606 480.826 258.736 482.2 258.767C489.38 258.897 493.78 253.417 497.1 248.807Z" fill="#00ACB5"/>
<path d="M608.51 527.465C605.92 534.355 604.15 538.245 604.15 538.245C604.84 571.015 584.79 646.015 584.79 646.015C558.02 648.385 534.3 647.875 513.26 645.245C566.86 605.015 593.29 561.355 608.51 527.465Z" fill="#2E2E2E"/>
<path d="M628.12 437.827C561.55 412.827 520.76 449.117 520.76 449.117C520.68 546.827 436.99 600.937 418.36 611.707C370.94 579.897 357.87 538.247 357.87 538.247L362.14 533.247C365.14 524.887 372.83 498.887 375.34 473.837C377.71 450.167 375.03 427.317 374.86 420.887C374.47 407.657 368.48 410.677 361.45 413.217C354.42 415.757 321.87 416.537 321.87 416.537C357.95 396.217 339.25 310.017 339.25 310.017L417.89 284.447C417.89 284.447 440.14 271.907 444.02 287.897C447.9 303.887 463.38 310.897 480.32 314.497C497.26 318.097 512.92 298.587 515.03 282.807C517.14 267.027 546.03 282.807 546.03 282.807C617.22 318.227 631.53 382.597 628.12 437.827Z" fill="#2E2E2E"/>
<path d="M92.09 754.627C92.09 754.627 153.33 747.917 163.9 754.627C163.9 754.627 165.84 768.527 156.49 785.767C147.14 803.007 135.65 791.157 73.86 795.117C73.86 795.117 23.6299 799.117 23.0499 780.757C22.4699 762.397 45.8799 759.837 59.5099 759.687C73.14 759.537 92.09 754.627 92.09 754.627Z" fill="#00ACB5"/>
<path d="M322.95 736.875H322.26" stroke="black" stroke-width="5.55" stroke-miterlimit="10"/>
<path d="M292.73 343.877C314.59 334.477 330.28 310.587 343.73 292.047C352.73 279.717 363.73 263.727 372.73 251.477C381.53 239.577 399.08 218.477 403.78 204.477C403.99 203.877 404.16 203.277 404.34 202.707" stroke="black" stroke-width="5.55" stroke-miterlimit="10"/>
<path d="M373.05 411.098C348 416.268 236.98 434.468 224.21 353.488C209.77 262.128 356.32 227.378 368.35 199.738C380.38 172.098 367.95 142.018 399.61 128.018C413.61 121.808 423.45 123.108 426.82 129.918" stroke="black" stroke-width="5.55" stroke-miterlimit="10"/>
<path d="M163.95 760.585C175.8 704.455 203.18 590.585 240.39 535.395" stroke="black" stroke-width="5.55" stroke-miterlimit="10"/>
<path d="M368.7 395.188C378.95 426.488 384.15 475.888 358.59 543.068" stroke="black" stroke-width="5.55" stroke-miterlimit="10"/>
<path d="M175.54 811.634H140.27C134.865 811.587 129.695 809.42 125.872 805.599C122.049 801.778 119.879 796.609 119.83 791.204C119.837 790.263 119.911 789.324 120.05 788.394C120.729 786.745 121.219 785.024 121.51 783.264C122.12 779.904 122.25 777.914 128.28 774.774C132.127 772.815 136.088 771.085 140.14 769.594C140.91 769.334 141.69 768.994 142.55 768.694C145.79 767.484 150.14 765.844 155.27 763.904C156.57 763.434 157.9 762.904 159.27 762.394C160.64 761.884 162.33 761.234 163.93 760.624C187.56 751.834 221.1 739.324 243.09 731.094H243.22C244.314 730.883 245.426 730.783 246.54 730.794C251.626 730.797 256.503 732.818 260.099 736.415C263.696 740.011 265.717 744.888 265.72 749.974C265.72 749.974 132.42 787.924 175.54 811.634Z" fill="#00ACB5"/>
<path d="M228.95 554.637C244.73 596.237 254.95 647.997 301.56 711.247" stroke="black" stroke-width="5.55" stroke-miterlimit="10"/>
<path d="M519.86 431.618C527.06 501.338 491.02 575.838 397.28 623.308C367.71 638.308 340.11 658.308 319.45 684.448C313.737 691.749 308.532 699.434 303.87 707.448C300.33 713.448 292.18 724.448 296.01 731.758C298.01 735.588 301.31 736.938 305.42 736.938C316.64 736.938 328.03 708.488 336.83 695.798" stroke="black" stroke-width="5.55" stroke-miterlimit="10"/>
<path d="M357.16 703.575C357.16 703.575 336.95 736.515 322.95 736.895C308.95 737.275 318.85 726.075 318.85 726.075" stroke="black" stroke-width="5.55" stroke-miterlimit="10"/>
<path d="M453.07 277.946C408.75 283.896 364.51 298.426 325.24 316.026" stroke="black" stroke-width="5.55" stroke-miterlimit="10"/>
<path d="M371.54 714.586C371.456 714.728 371.356 714.859 371.24 714.976C369.56 717.256 367.75 719.676 365.76 721.976C361.02 727.716 355.55 733.106 348.6 735.386C343.04 737.246 331.75 735.826 338.17 727.926" stroke="black" stroke-width="5.55" stroke-miterlimit="10"/>
<path d="M337.18 729.375C336.96 729.375 336.7 729.505 336.49 729.545" stroke="black" stroke-width="5.55" stroke-miterlimit="10"/>
<path d="M507.53 707.086C485.11 707.166 464.07 708.286 444.53 710.086C426.63 711.726 417.53 712.766 402.12 715.396" stroke="black" stroke-width="5.55" stroke-miterlimit="10"/>
<path d="M365.95 722.254C365.339 722.346 364.734 722.476 364.14 722.644" stroke="black" stroke-width="5.55" stroke-miterlimit="10"/>
<path d="M316.61 735.537C301.031 740.427 285.794 746.346 271 753.256C270.504 753.508 269.956 753.641 269.4 753.646C268.423 753.639 267.489 753.244 266.803 752.548C266.117 751.853 265.735 750.913 265.74 749.936C265.735 744.85 263.711 739.973 260.113 736.376C256.515 732.78 251.637 730.759 246.55 730.756C245.436 730.745 244.324 730.846 243.23 731.056H243.1C241.964 731.282 240.852 731.617 239.78 732.056L163.95 760.586C162.35 761.196 160.8 761.797 159.29 762.357C157.78 762.917 156.58 763.356 155.29 763.866C150.16 765.806 145.81 767.447 142.57 768.657C141.71 768.957 140.93 769.296 140.16 769.556L134.95 771.496C132.535 772.134 130.266 773.235 128.27 774.736C125.249 776.862 122.9 779.808 121.5 783.227C120.747 784.849 120.254 786.58 120.04 788.357C119.901 789.287 119.827 790.226 119.82 791.167C119.87 796.571 122.039 801.74 125.862 805.561C129.685 809.382 134.855 811.55 140.26 811.597H619.26C630.008 811.571 640.475 808.169 649.184 801.871C657.894 795.574 664.404 786.699 667.796 776.501C671.188 766.303 671.29 755.297 668.088 745.038C664.886 734.778 658.541 725.784 649.95 719.326L598.09 678.847C589.03 671.767 581.14 656.846 584.76 645.986C596.319 611.179 602.848 574.9 604.15 538.246" stroke="black" stroke-width="5.55" stroke-miterlimit="10"/>
<path d="M119.95 793.397H37.2599C35.3826 793.402 33.5228 793.037 31.7868 792.322C30.0509 791.607 28.473 790.557 27.1437 789.231C25.8144 787.906 24.7597 786.331 24.0401 784.597C23.3204 782.863 22.95 781.004 22.95 779.127C22.95 772.127 30.1499 764.337 37.0499 763.127L96.95 753.866C93.07 604.336 119.95 486.117 150.33 433.817C159.53 417.957 174.26 406.817 190.95 400.667C228.45 386.917 270.46 402.867 291.65 436.717L317.71 478.357L350.49 530.717C350.77 531.147 351.06 531.577 351.36 531.987L364.75 549.927" stroke="black" stroke-width="5.55" stroke-miterlimit="10"/>
<path d="M384.82 293.344C407.67 276.344 404.27 187.884 404.27 187.884C403.88 166.624 411.81 142.734 428.33 128.554C430.581 126.628 432.989 124.896 435.53 123.374C453.38 112.854 478.17 113.804 495.93 124.064C505.386 129.671 513.264 137.584 518.83 147.064C524.001 155.806 527.631 165.372 529.56 175.344C531.687 185.839 534.358 196.216 537.56 206.434C540.41 215.434 542 226.354 549.5 233.034C563.86 245.884 586.67 241.824 604.22 241.264C629.07 240.474 654.15 251.114 671.22 269.164C679.893 278.193 686.176 289.244 689.5 301.314C693.1 314.924 690.5 328.424 691.43 342.244" stroke="black" stroke-width="5.55" stroke-miterlimit="10"/>
<path d="M457.28 296.237L451.9 272.937L444.49 243.957" stroke="black" stroke-width="5.55" stroke-miterlimit="10"/>
<path d="M471.93 240.087C475.851 240.087 479.03 236.908 479.03 232.987C479.03 229.066 475.851 225.887 471.93 225.887C468.009 225.887 464.83 229.066 464.83 232.987C464.83 236.908 468.009 240.087 471.93 240.087Z" stroke="black" stroke-width="5.55" stroke-miterlimit="10"/>
<path d="M798.01 552.676C798.018 555.476 797.473 558.25 796.406 560.84C795.34 563.429 793.773 565.783 791.795 567.765C789.817 569.748 787.467 571.32 784.88 572.393C782.294 573.465 779.52 574.017 776.72 574.016C774.14 574.026 771.58 573.558 769.17 572.636C766.198 569.653 764.177 565.856 763.361 561.725C762.545 557.594 762.971 553.314 764.585 549.425C766.2 545.536 768.93 542.213 772.432 539.874C775.933 537.536 780.049 536.287 784.26 536.286C786.824 536.279 789.367 536.747 791.76 537.666C793.742 539.63 795.315 541.968 796.388 544.545C797.461 547.121 798.012 549.885 798.01 552.676Z" fill="#D7E8F0"/>
<path d="M798.01 416.517C798.013 419.314 797.464 422.084 796.395 424.669C795.326 427.253 793.758 429.602 791.781 431.58C789.803 433.559 787.455 435.128 784.871 436.198C782.287 437.268 779.517 437.818 776.72 437.817C774.605 438.078 772.458 437.805 770.475 437.024C768.493 436.244 766.737 434.979 765.368 433.345C763.999 431.712 763.061 429.762 762.638 427.673C762.216 425.585 762.323 423.423 762.95 421.387C762.949 418.589 763.499 415.819 764.569 413.234C765.639 410.649 767.208 408.3 769.186 406.322C771.164 404.344 773.512 402.775 776.097 401.705C778.682 400.635 781.452 400.085 784.25 400.087C786.847 400.074 789.423 400.556 791.84 401.507C795.801 405.497 798.019 410.894 798.01 416.517Z" fill="#D7E8F0"/>
<path d="M798.01 696.245C798.013 699.042 797.464 701.812 796.395 704.397C795.326 706.982 793.758 709.33 791.781 711.309C789.803 713.287 787.456 714.856 784.871 715.926C782.287 716.996 779.517 717.546 776.72 717.545C774.139 717.56 771.579 717.092 769.17 716.165C766.202 713.181 764.183 709.386 763.369 705.256C762.555 701.127 762.982 696.849 764.596 692.963C766.21 689.076 768.939 685.754 772.438 683.416C775.938 681.078 780.051 679.828 784.26 679.825C786.824 679.813 789.368 680.281 791.76 681.205C793.747 683.172 795.323 685.515 796.396 688.097C797.469 690.679 798.018 693.449 798.01 696.245Z" fill="#D7E8F0"/>
<path d="M798.01 552.676C798.018 555.476 797.473 558.25 796.406 560.84C795.34 563.429 793.773 565.783 791.795 567.765C789.817 569.748 787.467 571.32 784.88 572.393C782.294 573.465 779.52 574.017 776.72 574.016C774.14 574.026 771.58 573.558 769.17 572.636C766.198 569.653 764.177 565.856 763.361 561.725C762.545 557.594 762.971 553.314 764.585 549.425C766.2 545.536 768.93 542.213 772.432 539.874C775.933 537.536 780.049 536.287 784.26 536.286C786.824 536.279 789.367 536.747 791.76 537.666C793.742 539.63 795.315 541.968 796.388 544.545C797.461 547.121 798.012 549.885 798.01 552.676Z" fill="#D7E8F0"/>
<path d="M798.01 416.517C798.013 419.314 797.464 422.084 796.395 424.669C795.326 427.253 793.758 429.602 791.781 431.58C789.803 433.559 787.455 435.128 784.871 436.198C782.287 437.268 779.517 437.818 776.72 437.817C774.605 438.078 772.458 437.805 770.475 437.024C768.493 436.244 766.737 434.979 765.368 433.345C763.999 431.712 763.061 429.762 762.638 427.673C762.216 425.585 762.323 423.423 762.95 421.387C762.949 418.589 763.499 415.819 764.569 413.234C765.639 410.649 767.208 408.3 769.186 406.322C771.164 404.344 773.512 402.775 776.097 401.705C778.682 400.635 781.452 400.085 784.25 400.087C786.847 400.074 789.423 400.556 791.84 401.507C795.801 405.497 798.019 410.894 798.01 416.517Z" fill="#D7E8F0"/>
<path d="M798.01 696.245C798.013 699.042 797.464 701.812 796.395 704.397C795.326 706.982 793.758 709.33 791.781 711.309C789.803 713.287 787.456 714.856 784.871 715.926C782.287 716.996 779.517 717.546 776.72 717.545C774.139 717.56 771.579 717.092 769.17 716.165C766.202 713.181 764.183 709.386 763.369 705.256C762.555 701.127 762.982 696.849 764.596 692.963C766.21 689.076 768.939 685.754 772.438 683.416C775.938 681.078 780.051 679.828 784.26 679.825C786.824 679.813 789.368 680.281 791.76 681.205C793.747 683.172 795.323 685.515 796.396 688.097C797.469 690.679 798.018 693.449 798.01 696.245Z" fill="#D7E8F0"/>
<path d="M442.36 214.547C452.622 214.547 460.94 206.229 460.94 195.967C460.94 185.706 452.622 177.387 442.36 177.387C432.099 177.387 423.78 185.706 423.78 195.967C423.78 206.229 432.099 214.547 442.36 214.547Z" stroke="black" stroke-width="5.55" stroke-miterlimit="10"/>
<path d="M490.5 212.895C500.761 212.895 509.08 204.576 509.08 194.315C509.08 184.053 500.761 175.735 490.5 175.735C480.239 175.735 471.92 184.053 471.92 194.315C471.92 204.576 480.239 212.895 490.5 212.895Z" stroke="black" stroke-width="5.55" stroke-miterlimit="10"/>
<path d="M434.59 193.528C434.59 193.528 442.08 202.118 449.78 193.528" stroke="black" stroke-width="5.55" stroke-miterlimit="10"/>
<path d="M482.95 193.528C482.95 193.528 490.43 202.118 498.14 193.528" stroke="black" stroke-width="5.55" stroke-miterlimit="10"/>
<path d="M460.95 196.018C460.95 196.018 465.17 189.168 471.95 194.368" stroke="black" stroke-width="5.55" stroke-miterlimit="10"/>
<path d="M428.45 208.238C429.83 218.328 432.45 226.518 439.23 237.118C446.35 248.118 459.15 258.678 472.61 258.768C478.329 258.877 483.98 257.511 489.017 254.802C494.055 252.092 498.309 248.13 501.37 243.298C507.49 233.908 510.05 222.388 510.7 211.298C511.13 203.848 511.31 195.918 508.59 188.838C505.59 181.098 498.59 175.838 490.23 175.938C486.12 175.998 482.04 176.758 477.93 176.628C465.79 176.258 454.85 167.918 453.68 155.278C454.11 159.908 449.68 164.998 447.11 168.478C444.836 171.51 442.142 174.204 439.11 176.478C436.21 178.608 431.54 179.628 429.47 182.598" stroke="black" stroke-width="5.55" stroke-miterlimit="10"/>
<path d="M670.42 763.134H915.15C917.213 763.137 919.192 762.322 920.654 760.867C922.116 759.412 922.942 757.437 922.95 755.374V350.014C922.95 348.992 922.748 347.98 922.356 347.036C921.963 346.091 921.388 345.234 920.663 344.513C919.938 343.792 919.078 343.221 918.132 342.834C917.186 342.446 916.172 342.249 915.15 342.254H638.26C637.241 342.253 636.231 342.453 635.289 342.842C634.347 343.232 633.491 343.803 632.77 344.524C632.049 345.245 631.478 346.101 631.088 347.043C630.699 347.985 630.499 348.995 630.5 350.014V704.104" stroke="black" stroke-width="5.55" stroke-miterlimit="10"/>
<path d="M922.93 481.707H630.51V623.647H922.93V481.707Z" stroke="black" stroke-width="5.55" stroke-miterlimit="10"/>
<path d="M515.19 273.016C517.49 293.576 503.1 312.016 483.06 314.286C463.02 316.556 444.95 301.656 442.61 281.096" stroke="black" stroke-width="5.55" stroke-miterlimit="10"/>
<path d="M504.95 236.727L509.09 275.447C511.09 275.537 513.09 275.667 515.09 275.837C573.25 280.407 613.26 328.267 625.09 383.107C628.563 399.121 630.369 415.451 630.48 431.837C630.589 452.772 627.727 473.616 621.98 493.747C616.266 513.394 608.127 532.253 597.75 549.887C587.176 567.799 574.817 584.594 560.86 600.017C546.492 615.842 530.893 630.505 514.21 643.867C500.63 654.767 486.36 664.687 471.96 674.437C459.07 683.137 444.96 689.737 431.52 697.437C417.52 705.437 403.88 713.997 390.64 723.137C383.57 728.047 374.86 732.617 366.5 727.877C364.17 726.587 364.5 724.337 365.76 722.007C367.23 719.297 369.99 716.497 371.24 715.007" stroke="black" stroke-width="5.55" stroke-miterlimit="10"/>
<path d="M776.72 573.988C788.489 573.988 798.03 564.447 798.03 552.678C798.03 540.908 788.489 531.368 776.72 531.368C764.951 531.368 755.41 540.908 755.41 552.678C755.41 564.447 764.951 573.988 776.72 573.988Z" stroke="black" stroke-width="5.55" stroke-miterlimit="10"/>
<path d="M776.72 437.808C788.489 437.808 798.03 428.267 798.03 416.498C798.03 404.729 788.489 395.188 776.72 395.188C764.951 395.188 755.41 404.729 755.41 416.498C755.41 428.267 764.951 437.808 776.72 437.808Z" stroke="black" stroke-width="5.55" stroke-miterlimit="10"/>
<path d="M776.72 717.558C788.489 717.558 798.03 708.017 798.03 696.248C798.03 684.479 788.489 674.938 776.72 674.938C764.951 674.938 755.41 684.479 755.41 696.248C755.41 708.017 764.951 717.558 776.72 717.558Z" stroke="black" stroke-width="5.55" stroke-miterlimit="10"/>
<path d="M622.69 491.115C619.16 500.945 614.8 513.365 608.51 527.465C614.71 510.775 625.8 476.545 628.12 437.825C628.12 437.825 635.5 455.885 622.69 491.115Z" fill="black"/>
<path d="M845.95 127.155L780.95 136.885L792.27 144.885L813.44 161.835C816.76 164.165 815.93 169.675 817.77 173.015C818.462 178.058 817.665 183.192 815.479 187.788C813.292 192.384 809.81 196.241 805.461 198.885C801.113 201.529 796.086 202.845 790.999 202.671C785.913 202.497 780.988 200.84 776.83 197.905L725.75 161.955C720.11 158.062 715.584 152.764 712.62 146.585C708.44 125.775 721.27 102.645 745.91 98.9648L816.91 88.3148L806.51 80.2148L774.26 55.1148C771.496 52.9808 769.19 50.3108 767.48 47.2648C766.766 42.1148 767.605 36.8698 769.89 32.1988C772.175 27.5288 775.802 23.6468 780.306 21.0498C784.811 18.4538 789.987 17.2598 795.174 17.6228C800.36 17.9848 805.321 19.8868 809.42 23.0848L866.95 67.8448C871.653 71.4608 875.455 76.1158 878.06 81.4448C881.95 101.505 869.44 123.635 845.95 127.155Z" fill="#00ACB5"/>
<path d="M845.95 127.158L780.95 136.887L792.27 144.887L806.95 155.148C809.788 157.109 812.21 159.613 814.076 162.515C815.941 165.417 817.214 168.66 817.82 172.056C818.425 175.453 818.353 178.935 817.605 182.303C816.858 185.672 815.452 188.858 813.466 191.68C811.481 194.502 808.957 196.902 806.039 198.743C803.121 200.584 799.868 201.829 796.466 202.406C793.065 202.984 789.583 202.881 786.221 202.106C782.86 201.33 779.685 199.896 776.88 197.887L725.75 161.957C720.11 158.064 715.584 152.766 712.62 146.588C701.75 124.018 714.46 94.0178 742.84 89.7578L799.17 81.3178L806.51 80.2168L774.26 55.1178C771.495 53.0308 769.172 50.4148 767.427 47.4228C765.682 44.4308 764.549 41.1208 764.095 37.6868C763.64 34.2528 763.873 30.7628 764.78 27.4188C765.687 24.0758 767.249 20.9458 769.377 18.2128C771.504 15.4788 774.154 13.1948 777.172 11.4938C780.19 9.7938 783.516 8.70981 786.956 8.30681C790.397 7.90381 793.883 8.18781 797.212 9.14481C800.542 10.1008 803.648 11.7098 806.35 13.8778L863.88 58.6478C871.241 64.2528 876.287 72.3668 878.06 81.4468C881.95 101.507 869.44 123.638 845.95 127.158Z" stroke="black" stroke-width="5.55" stroke-miterlimit="10"/>
<path d="M641.05 207.017L640.2 183.697L629.85 194.317C628.982 195.208 627.947 195.919 626.804 196.409C625.661 196.899 624.432 197.159 623.188 197.174C621.945 197.189 620.71 196.959 619.556 196.496C618.401 196.033 617.349 195.347 616.46 194.477C615.569 193.609 614.858 192.574 614.368 191.431C613.878 190.288 613.618 189.059 613.603 187.816C613.588 186.572 613.819 185.338 614.282 184.183C614.744 183.028 615.43 181.977 616.3 181.087L634.76 162.177C636.674 160.22 639.119 158.867 641.794 158.285C644.469 157.703 647.256 157.918 649.81 158.904C652.363 159.889 654.572 161.602 656.163 163.829C657.754 166.057 658.657 168.702 658.76 171.437L659.63 195.227L667.26 186.617C668.085 185.687 669.086 184.928 670.204 184.384C671.323 183.84 672.538 183.522 673.779 183.448C675.021 183.374 676.265 183.545 677.44 183.951C678.616 184.358 679.7 184.992 680.63 185.817C681.561 186.642 682.321 187.642 682.866 188.76C683.41 189.879 683.729 191.093 683.805 192.335C683.88 193.576 683.71 194.82 683.304 195.996C682.898 197.172 682.265 198.256 681.44 199.187L666.44 216.127C664.525 218.324 661.993 219.892 659.173 220.626C656.353 221.36 653.377 221.227 650.634 220.243C647.891 219.258 645.509 217.47 643.8 215.11C642.09 212.751 641.131 209.93 641.05 207.017Z" fill="#D7E8F0"/>
<path d="M557.32 195.185L568.32 192.725L562.32 188.725C561.313 188.046 560.615 186.996 560.379 185.805C560.143 184.613 560.388 183.377 561.06 182.365C561.737 181.356 562.787 180.656 563.98 180.42C565.172 180.184 566.409 180.43 567.42 181.105L578.05 188.225C579.148 188.962 580.006 190.004 580.517 191.223C581.028 192.442 581.171 193.785 580.927 195.084C580.684 196.384 580.064 197.583 579.146 198.534C578.227 199.485 577.05 200.146 575.76 200.435L564.51 202.945L569.28 205.815C570.322 206.444 571.072 207.46 571.366 208.641C571.661 209.821 571.475 211.071 570.85 212.115C570.221 213.157 569.204 213.907 568.023 214.199C566.842 214.492 565.592 214.303 564.55 213.675L555.24 208.015C554.041 207.294 553.086 206.231 552.498 204.962C551.909 203.693 551.714 202.277 551.938 200.896C552.162 199.515 552.794 198.233 553.753 197.215C554.713 196.197 555.955 195.49 557.32 195.185Z" fill="#D7E8F0"/>
<path d="M7.04 837.297L2 851.157" stroke="#CCDDE2" stroke-width="3.69" stroke-miterlimit="10"/>
</svg>
