<svg width="425" height="299" viewBox="0 0 425 299" fill="none" xmlns="http://www.w3.org/2000/svg">
<g filter="url(#filter0_d_1_246)">
<path d="M383.197 32.2447H300.767C296.57 32.2447 293.168 35.6469 293.168 39.8437V157.716C293.168 161.913 296.57 165.315 300.767 165.315H383.197C387.394 165.315 390.796 161.913 390.796 157.716V39.8437C390.796 35.6469 387.394 32.2447 383.197 32.2447Z" stroke="#CCDDE2" stroke-width="4.83" stroke-miterlimit="10"/>
<path d="M379.639 45.954H305.325C303.226 45.954 301.525 47.6552 301.525 49.7536V65.5591C301.525 67.6575 303.226 69.3586 305.325 69.3586H379.639C381.738 69.3586 383.439 67.6575 383.439 65.5591V49.7536C383.439 47.6552 381.738 45.954 379.639 45.954Z" stroke="#CCDDE2" stroke-width="4.83" stroke-miterlimit="10"/>
<path d="M341.982 55.8127C343.319 55.8127 344.402 54.729 344.402 53.3923C344.402 52.0557 343.319 50.972 341.982 50.972C340.645 50.972 339.562 52.0557 339.562 53.3923C339.562 54.729 340.645 55.8127 341.982 55.8127Z" fill="#D7E8F0"/>
<path d="M335.219 64.3448C335.219 62.5509 335.931 60.8307 337.2 59.5625C338.468 58.2938 340.188 57.5814 341.982 57.5814C343.776 57.5814 345.496 58.2938 346.764 59.5625C348.033 60.8307 348.745 62.5509 348.745 64.3448H335.219Z" fill="#D7E8F0"/>
<path d="M342.475 94.4437C339.897 94.4446 337.376 95.21 335.233 96.643C333.089 98.0761 331.419 100.113 330.433 102.495C329.447 104.878 329.189 107.499 329.693 110.028C330.197 112.557 331.438 114.879 333.262 116.702C335.086 118.525 337.409 119.767 339.938 120.27C342.467 120.772 345.088 120.514 347.47 119.527C349.852 118.54 351.888 116.869 353.321 114.725C354.753 112.581 355.518 110.06 355.518 107.482C355.518 105.769 355.18 104.073 354.525 102.491C353.869 100.909 352.909 99.4712 351.697 98.2606C350.486 97.0499 349.049 96.0895 347.466 95.4347C345.884 94.7798 344.188 94.4428 342.475 94.4437ZM342.475 117.373C341.986 117.349 341.524 117.138 341.186 116.783C340.848 116.428 340.66 115.957 340.66 115.467C340.66 114.976 340.848 114.505 341.186 114.15C341.524 113.795 341.986 113.584 342.475 113.56C342.965 113.584 343.426 113.795 343.764 114.15C344.102 114.505 344.291 114.976 344.291 115.467C344.291 115.957 344.102 116.428 343.764 116.783C343.426 117.138 342.965 117.349 342.475 117.373ZM344.882 102.71C344.48 105.536 344.142 108.505 343.297 111.254C343.096 111.916 341.854 111.916 341.653 111.254C341.058 109.187 340.601 107.083 340.283 104.956C340.023 103.408 339.119 100.901 339.982 99.3986C340.744 98.0286 342.891 97.8916 344.138 98.5949C345.667 99.458 345.065 101.303 344.882 102.71Z" fill="#D7E8F0"/>
<path d="M199.815 58.6637C195.243 57.3006 190.371 57.3239 185.813 58.73C181.255 60.1365 177.216 62.8628 174.208 66.5646C171.199 70.2664 169.356 74.777 168.912 79.5264C168.467 84.2754 169.44 89.0499 171.709 93.2458C173.978 97.4418 177.44 100.871 181.658 103.099C185.875 105.327 190.659 106.255 195.404 105.764C200.149 105.273 204.641 103.387 208.314 100.343C211.986 97.2988 214.674 93.234 216.036 88.6626C216.941 85.6276 217.239 82.4441 216.914 79.294C216.588 76.1439 215.645 73.0887 214.139 70.303C212.633 67.5173 210.593 65.0558 208.135 63.0588C205.677 61.0613 202.85 59.5679 199.815 58.6637ZM187.699 99.3077C186.828 99.02 186.104 98.4044 185.679 97.5911C185.255 96.7782 185.164 95.8315 185.426 94.9524C185.688 94.0733 186.282 93.3312 187.083 92.8832C187.883 92.4352 188.827 92.317 189.713 92.5535C190.169 92.675 190.595 92.8869 190.968 93.176C191.34 93.4655 191.651 93.8267 191.881 94.2382C192.111 94.6496 192.257 95.1036 192.308 95.5721C192.36 96.0407 192.318 96.5152 192.183 96.9673C192.048 97.4189 191.824 97.8395 191.524 98.2035C191.224 98.567 190.854 98.867 190.436 99.0853C190.018 99.3036 189.56 99.4356 189.09 99.474C188.62 99.5119 188.147 99.4557 187.699 99.3077ZM199.71 74.5834C197.504 79.383 195.33 84.4658 192.403 88.891C191.7 89.9596 189.494 89.302 189.489 88.0233C189.527 84.0493 189.832 80.0827 190.403 76.1498C190.759 73.2773 190.48 68.3544 192.805 66.1441C194.869 64.1667 198.742 65.0161 200.591 66.9158C202.815 69.2357 200.778 72.1904 199.71 74.5834Z" fill="#03ADB6"/>
<path d="M132.455 112.061C130.783 113.763 129.653 115.923 129.208 118.267C128.763 120.611 129.023 123.035 129.955 125.231C130.887 127.428 132.449 129.298 134.445 130.607C136.44 131.915 138.779 132.603 141.165 132.582C143.551 132.562 145.877 131.835 147.85 130.492C149.822 129.15 151.353 127.253 152.247 125.04C153.141 122.828 153.36 120.401 152.875 118.064C152.39 115.728 151.222 113.588 149.521 111.915C147.238 109.672 144.159 108.427 140.958 108.454C137.758 108.482 134.7 109.779 132.455 112.061ZM147.59 126.935C147.427 127.1 147.234 127.232 147.021 127.322C146.808 127.413 146.579 127.461 146.347 127.463C146.116 127.465 145.886 127.421 145.672 127.335C145.457 127.248 145.261 127.12 145.096 126.958C144.931 126.796 144.799 126.603 144.709 126.389C144.618 126.177 144.571 125.947 144.568 125.716C144.566 125.484 144.61 125.255 144.697 125.04C144.783 124.825 144.911 124.63 145.073 124.465C145.401 124.131 145.848 123.941 146.315 123.937C146.783 123.933 147.233 124.114 147.567 124.442C147.901 124.769 148.09 125.216 148.095 125.684C148.099 126.151 147.917 126.601 147.59 126.935ZM139.474 115.843C141.077 117.943 142.817 120.094 144.082 122.432C144.388 122.994 143.585 123.802 143.018 123.519C141.274 122.567 139.596 121.499 137.995 120.322C136.803 119.496 134.565 118.464 134.131 116.916C133.739 115.546 135.045 114.02 136.296 113.66C137.835 113.212 138.662 114.806 139.474 115.843Z" fill="#03ADB6"/>
<path d="M309.718 79.8068H373.41" stroke="#CCDDE2" stroke-width="4.83" stroke-miterlimit="10"/>
<path d="M309.718 86.077H373.41" stroke="#CCDDE2" stroke-width="4.83" stroke-miterlimit="10"/>
<path d="M309.718 126.446H373.41" stroke="#CCDDE2" stroke-width="4.83" stroke-miterlimit="10"/>
<path d="M324.51 132.38H358.614" stroke="#CCDDE2" stroke-width="4.83" stroke-miterlimit="10"/>
<path d="M390.8 118.217C396.417 125.277 401.76 134.027 406.592 144.809C436.011 210.506 399.24 243.848 399.24 243.848" stroke="#9F9F9F" stroke-width="4.83" stroke-miterlimit="10"/>
<path d="M83.5273 170.311C83.5273 170.311 39.8739 120.794 94.3094 96.2754C148.745 71.7566 159.522 68.3498 155.595 42.8446C151.668 17.3393 182.539 -8.63174 231.088 8.53007C279.637 25.6919 280.61 58.0335 277.166 83.0364C275.212 97.2892 283.299 100.714 293.15 99.9973" stroke="#9F9F9F" stroke-width="4.83" stroke-miterlimit="10"/>
<path d="M387.723 265.217C387.612 267.951 386.904 270.627 385.649 273.058C385.6 273.179 385.542 273.296 385.476 273.41C383.275 277.364 380.195 280.761 376.475 283.338L376.342 283.429C372.984 285.675 369.206 287.221 365.236 287.973H407.497C407.497 287.973 401.843 207.347 349.883 168.119C299.598 130.16 252.52 148.455 249.533 149.678C250.458 152.291 250.872 155.057 250.752 157.825C250.752 157.825 254.534 159.794 255.164 166.84C255.794 173.887 257.109 193.478 244.464 197.168C244.464 197.168 233.111 196.889 230.111 192.533C227.11 188.176 226.389 189.062 225.211 190.167C224.297 191.003 218.785 193.989 216.241 195.36C216.563 195.375 216.882 195.419 217.196 195.492C217.196 195.492 218.653 207.786 236.477 227.053C237.08 227.689 237.651 228.356 238.185 229.053C240.876 231.406 243.901 233.808 247.259 236.259L267.599 251.142C268.058 251.533 268.602 251.809 269.188 251.951C270.326 252.237 271.516 252.248 272.659 251.983C275.025 251.526 291.177 249.877 301.63 248.836C301.868 248.836 302.119 248.79 302.352 248.763L303.722 248.631C303.941 248.631 304.179 248.585 304.37 248.571L305.603 248.452C306.206 248.393 306.75 248.334 307.252 248.293L308.622 248.16C309.832 248.041 310.549 247.968 310.609 247.968C313.099 247.898 315.581 247.656 318.039 247.247C320.391 246.79 322.537 246.055 323.094 244.836C323.2 244.578 323.239 244.299 323.208 244.023C323.082 243.247 322.758 242.517 322.267 241.904C320.121 239.022 315.134 236.552 314.769 236.373C314.758 236.37 314.747 236.37 314.737 236.373L314.636 236.3L284.953 213.238H284.921C284.921 213.238 289.392 165.543 330.131 177.28C330.131 177.28 330.323 177.412 330.675 177.704C332.264 178.928 337.265 182.984 344.617 190.56C344.809 190.765 345.014 190.971 345.22 191.19C346.001 191.985 346.768 192.811 347.531 193.62C352.691 199.136 358.797 206.164 365.533 214.928L365.578 214.974C373.296 225.02 378.859 234.227 382.475 242.374V242.401C386.389 251.256 388.038 258.842 387.713 264.893C387.723 265 387.727 265.109 387.723 265.217ZM264.845 183.239C263.64 169.343 270.403 164.31 270.782 164.032C261.164 181.431 279.002 208.101 279.628 209.133C279.116 208.704 266.051 197.131 264.845 183.239Z" fill="#353642"/>
<path d="M239.299 180.513C238.798 180.881 238.277 181.22 237.737 181.527L234.604 176.047C241.829 172.352 243.856 165.84 240.678 162.264C239.789 161.286 238.644 160.577 237.372 160.218C234.175 159.25 231.96 160.675 230.458 162.589C229.232 164.252 228.332 166.133 227.809 168.133L226.284 150.542L226.165 149.172C226.165 149.172 222.84 147.523 213.835 148.993C204.829 150.464 203.171 155.437 199.303 153.231C195.435 151.026 193.243 151.204 193.243 151.204C192.143 155.245 189.197 155.245 189.197 155.245C188.499 155.161 187.814 154.994 187.156 154.747C182.977 150.907 181.845 144.244 181.845 144.244C186.229 143.701 186.567 139.481 186.064 136.024C188.494 137.467 191.919 137.567 196.728 134.48C210.524 125.657 224.672 130.434 229.645 131.169C231.864 131.494 234.294 130.713 236.308 129.799C236.568 130.266 236.93 130.667 237.367 130.973C240.724 133.312 243.493 136.397 245.455 139.988C258.402 164.187 244.208 177.038 239.299 180.513Z" fill="#03ADB6"/>
<path d="M187.617 287.981H192.823C195.05 287.979 197.184 287.093 198.759 285.519C200.333 283.944 201.219 281.81 201.221 279.583V273.756C201.221 273.225 201.117 272.699 200.913 272.208C200.71 271.717 200.412 271.272 200.036 270.896C199.66 270.521 199.214 270.223 198.723 270.021C198.232 269.817 197.706 269.714 197.175 269.714H166.039C166.041 270.955 165.797 272.183 165.323 273.329C164.849 274.475 164.153 275.516 163.275 276.393C162.398 277.27 161.356 277.965 160.21 278.439C159.064 278.913 157.835 279.156 156.595 279.154H44.0844C44.0857 281.495 45.016 283.739 46.6714 285.394C48.3264 287.05 50.5709 287.98 52.9119 287.981H205.441C205.64 287.982 205.838 287.943 206.022 287.867C206.206 287.791 206.374 287.679 206.515 287.538C206.655 287.398 206.767 287.23 206.843 287.046C206.919 286.862 206.958 286.664 206.957 286.465V277.007C206.957 275.17 207.687 273.408 208.986 272.109C210.285 270.809 212.048 270.08 213.885 270.08C215.722 270.08 217.484 270.809 218.784 272.109C220.083 273.408 220.813 275.17 220.813 277.007V286.465C220.812 286.664 220.851 286.861 220.926 287.045C221.002 287.229 221.113 287.396 221.254 287.537C221.394 287.678 221.561 287.789 221.745 287.866C221.928 287.942 222.125 287.981 222.324 287.981H407.496C407.496 287.981 401.843 207.337 349.882 168.113C299.598 130.155 252.519 148.449 249.533 149.673L249.387 149.728" stroke="black" stroke-width="4.83" stroke-miterlimit="10"/>
<path d="M197.468 169.411C197.466 169.918 197.314 170.413 197.031 170.834C196.748 171.254 196.347 171.582 195.878 171.775C195.409 171.968 194.894 172.018 194.396 171.918C193.899 171.818 193.443 171.574 193.085 171.215C192.726 170.856 192.483 170.399 192.384 169.902C192.285 169.404 192.335 168.889 192.53 168.421C192.723 167.952 193.052 167.552 193.473 167.27C193.894 166.987 194.39 166.836 194.896 166.835C195.095 166.836 195.293 166.861 195.486 166.908C195.22 166.992 194.988 167.159 194.823 167.384C194.659 167.609 194.571 167.881 194.572 168.16C194.571 168.334 194.604 168.508 194.67 168.67C194.736 168.832 194.833 168.979 194.957 169.104C195.08 169.228 195.226 169.327 195.387 169.394C195.549 169.462 195.722 169.497 195.897 169.498C196.216 169.491 196.524 169.373 196.766 169.164C197.008 168.955 197.169 168.667 197.221 168.351C197.379 168.683 197.463 169.044 197.468 169.411Z" fill="black"/>
<path d="M215.282 170.127C215.283 170.637 215.133 171.135 214.85 171.56C214.568 171.983 214.166 172.314 213.695 172.51C213.225 172.706 212.707 172.757 212.207 172.658C211.707 172.56 211.248 172.314 210.887 171.955C210.527 171.595 210.281 171.136 210.181 170.636C210.081 170.136 210.132 169.618 210.326 169.147C210.521 168.676 210.852 168.274 211.275 167.991C211.699 167.707 212.197 167.556 212.707 167.556C212.83 167.555 212.952 167.569 213.072 167.597C212.844 167.702 212.651 167.87 212.516 168.081C212.381 168.292 212.309 168.538 212.309 168.789C212.294 169.141 212.418 169.483 212.655 169.743C212.893 170.002 213.223 170.157 213.574 170.173C213.926 170.189 214.269 170.064 214.528 169.827C214.788 169.589 214.943 169.259 214.958 168.908C215.169 169.28 215.281 169.699 215.282 170.127Z" fill="black"/>
<path d="M235.828 126.183C235.531 128.183 235.901 129.936 237.372 130.978C240.729 133.316 243.497 136.402 245.459 139.992C260.904 168.85 237.737 181.55 237.737 181.55L234.604 176.07C243.623 171.466 244.546 162.452 237.372 160.241C230.197 158.031 227.809 168.155 227.809 168.155L226.165 149.181C226.165 149.181 222.84 147.532 213.835 149.003C204.829 150.473 203.171 155.446 199.303 153.24C195.435 151.035 193.243 151.213 193.243 151.213C192.143 155.254 189.197 155.254 189.197 155.254C180.566 154.154 178.538 142.212 178.538 142.212C182.918 141.664 183.256 137.444 182.758 133.992C185.183 135.435 188.613 135.54 193.421 132.448C207.217 123.625 221.365 128.407 226.334 129.142C229.768 129.64 233.709 127.539 235.828 126.183Z" stroke="black" stroke-width="4.83" stroke-linecap="round" stroke-linejoin="round"/>
<path d="M243.793 269.285L247.204 267.915L249.761 274.816L249.359 287.338L245.902 287.963L232.782 287.397C232.782 287.397 233.695 279.762 236.486 276.131C239.276 272.5 243.793 269.285 243.793 269.285Z" fill="#03ADB6"/>
<path d="M184.055 159.474C184.055 159.474 187.549 153.204 194.901 153.857" stroke="black" stroke-width="4.83" stroke-miterlimit="10"/>
<path d="M209.3 153.856C209.3 153.856 217.703 151.97 220.644 156.641" stroke="black" stroke-width="4.83" stroke-miterlimit="10"/>
<path d="M222.32 182.243C222.32 182.243 217.296 179.334 213.62 184.225" stroke="black" stroke-width="4.83" stroke-miterlimit="10"/>
<path d="M190.576 154.862C190.576 154.862 187.001 196.926 213.666 196.15C218.233 196.017 222.772 193.017 227.11 188.19" stroke="black" stroke-width="4.83" stroke-miterlimit="10"/>
<path d="M237.737 192.016L227.11 188.189C227.11 188.189 229.745 196.61 242.797 197.254C255.849 197.898 260.228 167.944 250.638 155.893" stroke="black" stroke-width="4.83" stroke-linejoin="round"/>
<path d="M279.285 276.4C279.285 276.4 269.544 284.305 276.162 287.981" stroke="black" stroke-width="4.83" stroke-miterlimit="10"/>
<path d="M271.75 269.043C271.75 269.043 254.853 278.606 269.362 287.981" stroke="black" stroke-width="4.83" stroke-miterlimit="10"/>
<path d="M266.051 261.691C266.051 261.691 243.624 272.195 260.904 287.982" stroke="black" stroke-width="4.83" stroke-miterlimit="10"/>
<path d="M360.363 287.981C360.363 287.981 387.572 287.981 387.937 261.691C388.302 235.4 335.178 169.383 300.799 160.199C266.421 151.016 264.946 176.183 264.946 177.215C264.946 178.247 262.927 189.088 271.75 200.656C278.564 209.598 308.659 231.92 322.012 241.62C322.502 241.977 322.873 242.474 323.073 243.047C323.274 243.619 323.296 244.239 323.136 244.824C322.976 245.409 322.641 245.931 322.177 246.322C321.713 246.712 321.14 246.951 320.537 247.008L261.48 252.68H261.443C260.886 252.781 240.043 256.626 233.696 263.156C233.696 263.156 230.138 265.791 231.978 269.838C233.819 273.884 239.472 272.55 239.628 272.399" stroke="black" stroke-width="4.83" stroke-miterlimit="10"/>
<path opacity="0.26" d="M212.711 174.904C216.772 174.904 220.064 171.612 220.064 167.552C220.064 163.491 216.772 160.199 212.711 160.199C208.651 160.199 205.359 163.491 205.359 167.552C205.359 171.612 208.651 174.904 212.711 174.904Z" fill="white"/>
<path opacity="0.26" d="M194.052 174.178C198.112 174.178 201.404 170.886 201.404 166.826C201.404 162.765 198.112 159.473 194.052 159.473C189.991 159.473 186.699 162.765 186.699 166.826C186.699 170.886 189.991 174.178 194.052 174.178Z" fill="white"/>
<path d="M257.607 268.126C255.022 267.404 250.798 266.756 246.446 268.153C244.318 268.839 242.354 269.957 240.678 271.437C240.313 271.757 239.961 272.081 239.623 272.405C238.895 273.119 238.207 273.874 237.563 274.666C237.479 274.77 237.358 274.84 237.226 274.862C235.604 275.086 224.932 276.775 224.987 282.169C225.037 287.014 230.343 287.809 232.17 287.936C232.246 287.943 232.321 287.935 232.393 287.911C232.465 287.887 232.531 287.848 232.587 287.798C232.643 287.747 232.688 287.685 232.72 287.616C232.751 287.548 232.767 287.473 232.768 287.398C232.768 285.671 233.161 280.26 237.431 274.816" stroke="black" stroke-width="4.83" stroke-miterlimit="10"/>
<path d="M161.45 230.061C162.701 240.149 154.86 244.711 146.288 245.387" stroke="black" stroke-width="4.83" stroke-miterlimit="10"/>
<path d="M133.83 243.282C130.562 241.517 127.914 238.79 126.246 235.471C124.578 232.151 123.97 228.399 124.505 224.723C125.875 215.019 134.095 207.575 142.141 202.853C159.038 192.939 197.116 200.113 203.514 201.574C208.419 202.698 212.519 198.862 214.182 197.008C214.253 196.929 214.344 196.872 214.446 196.844C214.548 196.816 214.655 196.818 214.756 196.849C214.857 196.88 214.947 196.94 215.015 197.02C215.083 197.101 215.127 197.199 215.141 197.304C218.653 217.855 259.438 245.748 268.873 251.991" stroke="black" stroke-width="4.83" stroke-miterlimit="10"/>
<path d="M171.739 223.085L158.235 231.465C157.43 231.966 156.529 232.293 155.591 232.424C154.652 232.556 153.696 232.489 152.784 232.228C151.873 231.967 151.026 231.518 150.299 230.91C149.572 230.302 148.98 229.548 148.562 228.697C147.809 227.169 147.66 225.413 148.144 223.779C148.628 222.145 149.71 220.754 151.174 219.883L171.725 207.64" stroke="black" stroke-width="4.83" stroke-miterlimit="10"/>
<path d="M212.711 174.904C216.772 174.904 220.064 171.612 220.064 167.552C220.064 163.491 216.772 160.199 212.711 160.199C208.651 160.199 205.359 163.491 205.359 167.552C205.359 171.612 208.651 174.904 212.711 174.904Z" stroke="black" stroke-width="4.83" stroke-miterlimit="10"/>
<path d="M194.052 173.077C197.505 173.077 200.304 170.279 200.304 166.826C200.304 163.373 197.505 160.574 194.052 160.574C190.599 160.574 187.8 163.373 187.8 166.826C187.8 170.279 190.599 173.077 194.052 173.077Z" stroke="white" stroke-width="4.83" stroke-miterlimit="10"/>
<path d="M194.052 174.178C198.112 174.178 201.404 170.886 201.404 166.826C201.404 162.765 198.112 159.473 194.052 159.473C189.991 159.473 186.699 162.765 186.699 166.826C186.699 170.886 189.991 174.178 194.052 174.178Z" stroke="black" stroke-width="4.83" stroke-miterlimit="10"/>
<path d="M205.395 166.827H201.404" stroke="black" stroke-width="4.83" stroke-miterlimit="10"/>
<path d="M205.395 177.216H202.765C202.6 177.216 202.436 177.18 202.286 177.109C202.137 177.039 202.004 176.936 201.899 176.809C201.793 176.682 201.717 176.533 201.675 176.372C201.634 176.212 201.629 176.045 201.66 175.882L203.4 166.827" stroke="black" stroke-width="4.83" stroke-miterlimit="10"/>
<path d="M152.618 202.31C152.618 202.31 143.242 204.333 139.936 218.49C137.926 227.084 135.168 238.049 133.314 245.337C133.076 246.272 133.055 247.249 133.252 248.194C133.449 249.138 133.86 250.025 134.452 250.786C135.044 251.548 135.802 252.165 136.668 252.589C137.535 253.013 138.487 253.233 139.452 253.233C140.892 253.233 142.29 252.743 143.414 251.842C144.538 250.941 145.321 249.684 145.635 248.278L149.558 230.678" stroke="black" stroke-width="4.83" stroke-miterlimit="10"/>
<path d="M161.189 235.401C161.189 235.401 171.031 229.519 190.416 235.401C209.802 241.283 232.088 245.274 239.44 229.674" stroke="black" stroke-width="4.83" stroke-miterlimit="10"/>
<path d="M246.45 268.153C246.45 268.153 253.301 275.971 249.136 287.982" stroke="black" stroke-width="4.83" stroke-miterlimit="10"/>
<path d="M20.0907 170.931H128.322C131.809 170.927 135.195 172.095 137.936 174.249C140.677 176.403 142.614 179.417 143.434 182.805L160.664 254.165C161.129 256.09 161.151 258.096 160.729 260.031C160.306 261.966 159.45 263.781 158.225 265.337C156.999 266.893 155.437 268.152 153.655 269.016C151.873 269.881 149.918 270.331 147.937 270.331H39.9835C36.5041 270.334 33.1242 269.169 30.3865 267.021C27.6489 264.874 25.7117 261.869 24.8858 258.489L7.37695 187.143C6.90415 185.215 6.87575 183.206 7.29383 181.266C7.71192 179.326 8.56558 177.506 9.79024 175.944C11.0149 174.383 12.5786 173.12 14.3631 172.251C16.1476 171.383 18.1061 170.932 20.0907 170.931Z" fill="#03ADB6"/>
<path d="M24.0319 174.001H125.578C128.849 174.005 132.024 175.107 134.595 177.13C137.166 179.153 138.984 181.979 139.758 185.158L155.933 252.102C156.37 253.908 156.391 255.789 155.995 257.605C155.599 259.421 154.796 261.123 153.646 262.583C152.497 264.043 151.032 265.223 149.36 266.035C147.688 266.846 145.854 267.268 143.996 267.268H42.6962C39.435 267.261 36.2698 266.163 33.7047 264.15C31.1391 262.137 29.3209 259.323 28.5393 256.157L12.099 189.209C11.6551 187.4 11.6283 185.514 12.0208 183.693C12.4132 181.873 13.2146 180.166 14.3642 178.701C15.5138 177.236 16.9816 176.051 18.6565 175.237C20.3315 174.423 22.1696 174 24.0319 174.001Z" fill="#03ADB6"/>
<path d="M20.0907 170.931H128.322C131.809 170.927 135.195 172.095 137.936 174.249C140.677 176.403 142.614 179.417 143.434 182.805L160.664 254.165C161.129 256.09 161.151 258.096 160.729 260.031C160.306 261.966 159.45 263.781 158.225 265.337C156.999 266.893 155.437 268.152 153.655 269.016C151.873 269.881 149.918 270.331 147.937 270.331H39.9835C36.5041 270.334 33.1242 269.169 30.3865 267.021C27.6489 264.874 25.7117 261.869 24.8858 258.489L7.37695 187.143C6.90415 185.215 6.87575 183.206 7.29383 181.266C7.71192 179.326 8.56558 177.506 9.79024 175.944C11.0149 174.383 12.5786 173.12 14.3631 172.251C16.1476 171.383 18.1061 170.932 20.0907 170.931Z" stroke="black" stroke-width="4.83" stroke-miterlimit="10"/>
<path d="M70.7815 218.462L64.3287 188.381C64.1949 187.745 63.846 187.174 63.3414 186.764C62.8368 186.354 62.207 186.131 61.5567 186.13H29.6261C29.1965 186.131 28.7729 186.23 28.3872 186.419C28.0015 186.608 27.6639 186.882 27.3999 187.221C27.1359 187.56 26.9524 187.954 26.8634 188.374C26.7744 188.794 26.7821 189.23 26.886 189.646L34.3526 220.079C34.4453 220.503 34.6431 220.897 34.928 221.225C35.1838 221.55 35.5094 221.813 35.8811 221.994C36.2529 222.175 36.6611 222.27 37.0744 222.271H37.1338L68.0369 221.906C68.4543 221.9 68.8649 221.801 69.2398 221.618C69.6147 221.435 69.9449 221.172 70.2061 220.846C70.4723 220.516 70.6619 220.131 70.7614 219.719C70.861 219.307 70.8678 218.877 70.7815 218.462ZM29.0187 189.107C28.9955 189.017 28.9933 188.923 29.0123 188.832C29.0313 188.741 29.071 188.656 29.1283 188.582C29.1869 188.506 29.2622 188.444 29.3485 188.401C29.4348 188.358 29.5297 188.336 29.6261 188.335H61.5567C61.7006 188.335 61.8403 188.384 61.9517 188.475C62.0636 188.566 62.1399 188.692 62.1686 188.833L67.0825 211.745C50.6742 195.903 48.8155 214.078 48.8155 214.078C39.5541 209.256 36.878 214.535 36.1017 218.01L29.0187 189.107Z" fill="#D7E8F0"/>
<path d="M38.2389 200.027C40.02 199.474 40.8648 197.113 40.1341 194.752C39.4034 192.391 37.3621 190.93 35.5674 191.482C33.7727 192.035 32.9415 194.396 33.6768 196.752C34.412 199.109 36.4625 200.579 38.2389 200.027Z" fill="#D7E8F0"/>
<path d="M46.0573 199.487H56.5334C57.8349 199.487 59.141 199.487 60.4425 199.487H60.6298C60.996 199.497 61.3604 199.429 61.6984 199.286C61.9317 199.171 62.1304 198.995 62.2733 198.778C62.4167 198.56 62.4994 198.308 62.5135 198.048C62.5272 197.788 62.472 197.529 62.3528 197.297C62.2336 197.065 62.055 196.869 61.8354 196.729C61.5892 196.617 61.365 196.463 61.1732 196.272C61.0462 196.072 60.959 195.849 60.9175 195.615C60.6754 194.954 60.2082 194.399 59.5977 194.048C59.1533 193.75 58.6537 193.544 58.1276 193.442C57.602 193.341 57.0613 193.347 56.538 193.459C56.0215 193.59 55.5488 193.854 55.1679 194.227C54.8437 194.546 54.7798 194.975 54.5286 195.332C54.3642 195.565 54.2591 195.492 54.0354 195.364C53.8116 195.236 53.6883 195.14 53.5056 195.049C53.1453 194.856 52.7713 194.69 52.3868 194.551C51.6036 194.261 50.7683 194.138 49.9344 194.19C48.4685 194.304 47.0072 195.176 46.4957 196.556C46.0349 196.562 45.591 196.732 45.2449 197.036C44.8982 197.34 44.6713 197.758 44.6051 198.213C44.5749 198.389 44.5863 198.57 44.6384 198.74C44.6909 198.911 44.7827 199.067 44.9065 199.195C45.2394 199.434 45.6504 199.539 46.0573 199.487Z" fill="#D7E8F0"/>
<path d="M121.162 198.838L120.322 195.381C119.758 193.057 118.429 190.99 116.549 189.512C114.669 188.034 112.347 187.232 109.955 187.234H98.4149C97.0983 187.233 95.799 187.535 94.6181 188.118C93.4376 188.7 92.4073 189.547 91.6072 190.594C90.8076 191.639 90.26 192.856 90.007 194.148C89.754 195.44 89.8029 196.773 90.149 198.043L91.1035 201.555C91.7132 203.815 93.0508 205.81 94.909 207.233C96.7676 208.655 99.0428 209.425 101.383 209.424H112.855C114.15 209.423 115.429 209.127 116.594 208.56C117.759 207.992 118.78 207.168 119.58 206.149C120.38 205.13 120.938 203.942 121.212 202.675C121.486 201.409 121.469 200.097 121.162 198.838ZM108.471 199.692L104.53 202.117C104.378 202.213 104.206 202.274 104.027 202.292C103.848 202.311 103.667 202.288 103.499 202.225C103.33 202.163 103.178 202.061 103.055 201.93C102.932 201.799 102.841 201.641 102.79 201.468L101.306 196.619C101.243 196.403 101.243 196.175 101.306 195.96C101.369 195.744 101.491 195.551 101.659 195.403C101.827 195.255 102.034 195.157 102.255 195.122C102.476 195.086 102.703 195.115 102.909 195.203L108.375 197.619C108.57 197.707 108.738 197.847 108.859 198.023C108.98 198.2 109.051 198.406 109.063 198.621C109.075 198.835 109.027 199.048 108.926 199.237C108.825 199.426 108.674 199.583 108.489 199.692H108.471Z" fill="white"/>
<path d="M118.586 229.892H98.3966C97.4723 229.89 96.5686 229.62 95.795 229.114C95.0214 228.609 94.4117 227.888 94.04 227.042C93.9249 226.782 93.8628 226.501 93.8573 226.216C93.8623 225.665 94.0838 225.138 94.4747 224.75C94.8656 224.362 95.3935 224.144 95.9443 224.142H117.408C116.399 225.85 116.91 228.211 118.586 229.892Z" fill="#D7E8F0"/>
<path d="M131.665 227.819C131.664 228.368 131.445 228.895 131.057 229.284C130.668 229.672 130.141 229.891 129.592 229.892H118.586C116.91 228.211 116.399 225.85 117.408 224.142H127.099C128.021 224.143 128.924 224.411 129.697 224.915C130.471 225.418 131.081 226.135 131.455 226.978C131.582 227.241 131.653 227.527 131.665 227.819Z" fill="#03ADB6"/>
<path d="M126.592 229.892C126.535 230.002 126.469 230.108 126.395 230.207C124.952 232.176 121.829 232.358 119.404 230.586C119.114 230.376 118.84 230.144 118.586 229.892C116.91 228.212 116.399 225.851 117.408 224.143C117.465 224.034 117.53 223.93 117.604 223.832C119.034 221.85 122.171 221.677 124.582 223.435C124.875 223.65 125.151 223.887 125.409 224.143C127.099 225.823 127.587 228.184 126.592 229.892Z" fill="white"/>
<path d="M136.721 240.515C136.716 241.066 136.494 241.593 136.103 241.981C135.712 242.369 135.184 242.587 134.634 242.589H54.6153C55.6382 240.872 55.1267 238.52 53.4462 236.844H132.181C133.105 236.843 134.008 237.112 134.781 237.618C135.554 238.123 136.163 238.843 136.533 239.689C136.652 239.949 136.716 240.23 136.721 240.515Z" fill="#03ADB6"/>
<path d="M54.6152 242.565H44.646C43.7231 242.566 42.8202 242.298 42.0466 241.794C41.2735 241.291 40.6629 240.573 40.2894 239.73C40.172 239.465 40.1099 239.179 40.1067 238.889C40.1062 238.617 40.1592 238.348 40.2633 238.096C40.3675 237.844 40.52 237.616 40.7127 237.424C40.9054 237.231 41.1342 237.079 41.3863 236.975C41.6379 236.872 41.9078 236.82 42.18 236.82H53.4461C55.1267 238.496 55.6382 240.848 54.6152 242.565Z" fill="#D7E8F0"/>
<path d="M54.6153 242.565C54.5683 242.678 54.5071 242.784 54.4327 242.881C53.0033 244.863 49.8659 245.031 47.4501 243.273C47.1592 243.058 46.8843 242.821 46.6281 242.565C44.9612 240.885 44.4498 238.538 45.4453 236.82C45.5006 236.71 45.5663 236.604 45.6417 236.505C47.0848 234.537 50.2084 234.354 52.6334 236.122C52.9229 236.332 53.1946 236.566 53.4462 236.82C55.1268 238.496 55.6383 240.848 54.6153 242.565Z" fill="white"/>
<path d="M61.6754 255.129H49.0073C48.0848 255.128 47.182 254.86 46.4088 254.356C45.6357 253.853 45.0251 253.137 44.6506 252.293C44.525 252.038 44.4533 251.76 44.4406 251.476C44.4419 250.924 44.6616 250.395 45.052 250.005C45.442 249.614 45.9709 249.395 46.523 249.393H60.4835C59.5108 251.119 60.0086 253.467 61.6754 255.129Z" fill="#03ADB6"/>
<path d="M141.064 253.088C141.056 253.636 140.832 254.159 140.44 254.541C140.048 254.924 139.52 255.135 138.972 255.129H61.6755C60.0086 253.449 59.4971 251.102 60.4927 249.385H136.524C137.448 249.384 138.351 249.653 139.124 250.159C139.897 250.664 140.506 251.383 140.876 252.23C140.997 252.5 141.061 252.792 141.064 253.088Z" fill="#D7E8F0"/>
<path d="M69.6764 255.129C69.6211 255.24 69.5554 255.345 69.48 255.444C68.0506 257.426 64.9133 257.595 62.502 255.837C62.2098 255.622 61.9335 255.385 61.6755 255.129C60.0086 253.448 59.4971 251.101 60.4927 249.384C60.5498 249.274 60.6155 249.169 60.689 249.069C62.1321 247.101 65.2558 246.927 67.6807 248.685C67.9712 248.895 68.2429 249.129 68.4936 249.384C70.1742 251.078 70.6856 253.439 69.6764 255.129Z" fill="white"/>
<g opacity="0.21">
<path opacity="0.21" d="M71.8868 219.562L65.4477 189.481C65.3143 188.845 64.9659 188.274 64.4608 187.865C63.9562 187.455 63.3255 187.233 62.6756 187.234H30.7404C30.308 187.234 29.8814 187.333 29.4934 187.524C29.1055 187.714 28.7665 187.992 28.5027 188.334C28.2412 188.67 28.0599 189.061 27.9728 189.477C27.8857 189.894 27.8952 190.325 28.0004 190.737L35.467 221.174C35.5583 221.598 35.7543 221.992 36.0379 222.32C36.2945 222.645 36.6215 222.907 36.9937 223.088C37.3663 223.268 37.775 223.361 38.1888 223.361H38.2619L69.1604 222.991C69.5769 222.986 69.987 222.889 70.361 222.707C70.7355 222.525 71.0648 222.261 71.3251 221.937C71.5876 221.606 71.774 221.222 71.8712 220.812C71.9681 220.402 71.9735 219.975 71.8868 219.562ZM30.1194 190.211C30.0961 190.121 30.0942 190.026 30.1143 189.935C30.134 189.844 30.1751 189.759 30.2335 189.686C30.2906 189.61 30.3651 189.547 30.4509 189.504C30.5363 189.462 30.6308 189.439 30.7267 189.44H62.6574C62.8012 189.439 62.941 189.487 63.0533 189.577C63.1657 189.667 63.2433 189.792 63.2739 189.933L68.1877 212.844C51.7748 196.998 49.9207 215.178 49.9207 215.178C40.664 210.355 37.9833 215.634 37.2115 219.11L30.1194 190.211Z" fill="#D7E8F0"/>
<path opacity="0.21" d="M39.3441 201.127C41.1206 200.574 41.97 198.213 41.2347 195.857C40.4995 193.5 38.4673 192.03 36.668 192.582C34.8687 193.135 34.0421 195.496 34.7728 197.857C35.5035 200.218 37.5905 201.698 39.3441 201.127Z" fill="#D7E8F0"/>
<path opacity="0.21" d="M47.1806 200.591H57.6522C58.9582 200.591 60.2598 200.591 61.5659 200.591H61.7485C62.1152 200.602 62.4792 200.533 62.8171 200.39C63.0519 200.276 63.2514 200.1 63.3953 199.883C63.5396 199.665 63.6232 199.413 63.6369 199.152C63.651 198.891 63.5949 198.632 63.4748 198.4C63.3551 198.168 63.1752 197.972 62.9541 197.833C62.7103 197.717 62.487 197.563 62.292 197.376C62.1687 197.172 62.0824 196.948 62.0362 196.714C61.7942 196.055 61.3288 195.503 60.721 195.152C60.2767 194.853 59.7757 194.646 59.2492 194.544C58.7226 194.443 58.181 194.449 57.6567 194.563C57.1489 194.695 56.6854 194.959 56.3141 195.33C55.9853 195.65 55.9259 196.075 55.6748 196.435C55.5104 196.668 55.4053 196.595 55.1816 196.463C54.9578 196.33 54.8345 196.244 54.6518 196.148C54.2915 195.956 53.9175 195.792 53.533 195.655C52.7498 195.364 51.9145 195.239 51.0806 195.289C49.6147 195.403 48.1533 196.28 47.6373 197.655C47.1765 197.663 46.7335 197.834 46.3878 198.138C46.0421 198.443 45.8165 198.861 45.7512 199.317C45.7216 199.493 45.7334 199.673 45.7846 199.843C45.8362 200.013 45.9261 200.169 46.0481 200.299C46.3778 200.53 46.7801 200.634 47.1806 200.591Z" fill="#D7E8F0"/>
<path opacity="0.21" d="M122.285 199.939L121.445 196.486C120.881 194.161 119.551 192.094 117.671 190.615C115.79 189.137 113.466 188.334 111.074 188.334H99.5155C98.2003 188.334 96.9029 188.636 95.7233 189.218C94.5437 189.8 93.5144 190.646 92.7152 191.69C91.9156 192.734 91.3675 193.949 91.1132 195.239C90.8593 196.53 90.9059 197.861 91.2497 199.13L92.2042 202.647C92.8147 204.907 94.1533 206.902 96.0124 208.324C97.8715 209.747 100.148 210.517 102.488 210.515H113.96C115.256 210.516 116.535 210.222 117.701 209.656C118.867 209.09 119.89 208.267 120.691 207.249C121.493 206.23 122.053 205.043 122.329 203.777C122.605 202.511 122.59 201.199 122.285 199.939ZM109.59 200.783L105.635 203.222C105.483 203.319 105.312 203.379 105.133 203.397C104.955 203.416 104.774 203.393 104.606 203.33C104.438 203.268 104.286 203.166 104.164 203.035C104.041 202.904 103.951 202.746 103.9 202.574L102.438 197.719C102.377 197.505 102.378 197.277 102.441 197.062C102.504 196.848 102.626 196.656 102.794 196.508C102.962 196.36 103.168 196.263 103.389 196.228C103.61 196.192 103.836 196.22 104.041 196.308L109.466 198.719C109.659 198.808 109.824 198.948 109.943 199.123C110.063 199.298 110.133 199.503 110.145 199.715C110.158 199.926 110.113 200.138 110.015 200.326C109.917 200.514 109.77 200.672 109.59 200.783Z" fill="#D7E8F0"/>
<path opacity="0.21" d="M119.691 230.992H99.5017C98.5783 230.99 97.675 230.72 96.9014 230.215C96.1283 229.711 95.5182 228.992 95.1451 228.147C95.0026 227.831 94.9423 227.485 94.9697 227.14C94.9966 226.796 95.1108 226.463 95.3008 226.174C95.4903 225.885 95.7502 225.648 96.0561 225.486C96.3616 225.324 96.7032 225.242 97.0494 225.247H118.513C117.508 226.95 118.011 229.316 119.691 230.992Z" fill="#D7E8F0"/>
<path opacity="0.21" d="M132.743 228.918C132.743 229.468 132.525 229.994 132.138 230.383C131.75 230.771 131.223 230.991 130.674 230.992H119.691C118.011 229.316 117.499 226.95 118.509 225.247H128.204C129.127 225.246 130.03 225.514 130.804 226.017C131.577 226.521 132.187 227.239 132.56 228.082C132.677 228.346 132.739 228.631 132.743 228.918Z" fill="#03ADB6"/>
<path opacity="0.21" d="M127.692 230.992C127.638 231.104 127.573 231.21 127.496 231.308C126.053 233.276 122.929 233.458 120.504 231.691C120.216 231.479 119.944 231.246 119.691 230.992C118.011 229.316 117.499 226.951 118.509 225.247C118.566 225.136 118.633 225.031 118.709 224.932C120.139 222.95 123.276 222.781 125.687 224.54C125.98 224.755 126.256 224.991 126.514 225.247C128.181 226.928 128.692 229.275 127.692 230.992Z" fill="white"/>
<path opacity="0.21" d="M137.821 241.595C137.816 242.146 137.594 242.672 137.203 243.06C136.813 243.447 136.285 243.664 135.734 243.664H55.7205C56.7434 241.947 56.232 239.6 54.5514 237.919H133.282C134.207 237.919 135.111 238.189 135.885 238.695C136.659 239.201 137.268 239.922 137.639 240.769C137.756 241.029 137.818 241.311 137.821 241.595Z" fill="#03ADB6"/>
<path opacity="0.21" d="M55.7205 243.664H45.7467C44.8247 243.664 43.9223 243.396 43.1492 242.894C42.376 242.391 41.765 241.675 41.3901 240.833C41.2754 240.568 41.2133 240.282 41.2074 239.993C41.2074 239.443 41.4257 238.916 41.8148 238.527C42.2034 238.138 42.7309 237.919 43.2807 237.919H54.5514C56.232 239.6 56.7434 241.947 55.7205 243.664Z" fill="#D7E8F0"/>
<path opacity="0.21" d="M55.7205 243.666C55.6735 243.779 55.6105 243.885 55.5333 243.981C54.1039 245.963 50.9666 246.136 48.5553 244.378C48.2626 244.161 47.9863 243.923 47.7287 243.666C46.0619 241.99 45.5504 239.638 46.5505 237.921C46.6044 237.809 46.6702 237.703 46.7469 237.606C48.19 235.637 51.3136 235.455 53.7386 237.226C54.0258 237.438 54.2975 237.67 54.5515 237.921C56.232 239.601 56.7435 241.948 55.7205 243.666Z" fill="white"/>
<path opacity="0.21" d="M62.7762 256.246H50.0898C49.1677 256.244 48.2663 255.976 47.4931 255.474C46.7204 254.971 46.1089 254.256 45.7331 253.415C45.6185 253.154 45.5564 252.873 45.5504 252.588C45.5527 252.036 45.7733 251.506 46.1642 251.115C46.5551 250.724 47.0848 250.503 47.6374 250.501H61.5979C60.5978 252.218 61.1093 254.57 62.7762 256.246Z" fill="#03ADB6"/>
<path opacity="0.21" d="M142.169 254.186C142.168 254.458 142.114 254.727 142.01 254.977C141.905 255.228 141.752 255.455 141.56 255.646C141.367 255.838 141.139 255.989 140.887 256.092C140.636 256.195 140.367 256.247 140.096 256.246H62.7761C61.1092 254.57 60.5978 252.218 61.5979 250.501H137.625C138.55 250.501 139.454 250.771 140.228 251.277C141.002 251.783 141.611 252.504 141.982 253.351C142.1 253.614 142.164 253.898 142.169 254.186Z" fill="#D7E8F0"/>
<path opacity="0.21" d="M70.7816 256.247C70.7245 256.358 70.6574 256.463 70.5807 256.562C69.1513 258.544 66.0139 258.718 63.6027 256.959C63.31 256.742 63.0337 256.505 62.7761 256.247C61.1092 254.571 60.5978 252.219 61.5979 250.502C61.6518 250.39 61.7175 250.285 61.7943 250.187C63.2373 248.219 66.361 248.05 68.7859 249.808C69.0732 250.019 69.3449 250.251 69.5988 250.502C71.2794 252.183 71.7908 254.544 70.7816 256.247Z" fill="white"/>
</g>
</g>
<defs>
<filter id="filter0_d_1_246" x="0.584961" y="0.585297" width="423.83" height="297.811" filterUnits="userSpaceOnUse" color-interpolation-filters="sRGB">
<feFlood flood-opacity="0" result="BackgroundImageFix"/>
<feColorMatrix in="SourceAlpha" type="matrix" values="0 0 0 0 0 0 0 0 0 0 0 0 0 0 0 0 0 0 127 0" result="hardAlpha"/>
<feOffset dy="4"/>
<feGaussianBlur stdDeviation="2"/>
<feComposite in2="hardAlpha" operator="out"/>
<feColorMatrix type="matrix" values="0 0 0 0 0 0 0 0 0 0 0 0 0 0 0 0 0 0 0.25 0"/>
<feBlend mode="normal" in2="BackgroundImageFix" result="effect1_dropShadow_1_246"/>
<feBlend mode="normal" in="SourceGraphic" in2="effect1_dropShadow_1_246" result="shape"/>
</filter>
</defs>
</svg>
