<svg width="1287" height="743" viewBox="0 0 1287 743" fill="none" xmlns="http://www.w3.org/2000/svg">
<mask id="mask0_81_3" style="mask-type:luminance" maskUnits="userSpaceOnUse" x="0" y="0" width="1287" height="743">
<path d="M1286.04 0H0V742.93H1286.04V0Z" fill="white"/>
</mask>
<g mask="url(#mask0_81_3)">
<path d="M1218.18 449.458C1172.73 567.138 1087.28 670.238 968.59 715.548C953.153 721.432 937.39 726.424 921.38 730.498C836.7 752.088 744.06 744.578 666 705.238C632.87 688.528 602.66 666.448 569.41 649.978C536.16 633.508 498.19 622.728 462 630.858C430.84 637.858 404.55 657.918 378.08 675.788C315.68 717.918 240.65 751.258 166.76 736.788C132.76 730.138 99.28 711.718 83.49 680.928C48.59 612.858 114.41 531.928 101.08 456.648C92.55 408.468 53.59 372.388 29.37 329.868C-12.08 257.138 -7.18005 160.528 41.42 92.3783C90.02 24.2283 179.74 -11.9217 262 3.5383C362.31 22.3983 438.15 107.288 535.69 137.328C596.69 156.098 662.92 150.498 721.18 125.778C815.31 85.8283 944.63 24.5583 1050.56 34.5383C1106.89 39.8483 1162.14 64.8483 1199.32 107.538C1246.32 161.428 1260.41 237.938 1252.57 308.998C1247.19 357.101 1235.63 404.31 1218.18 449.458Z" fill="url(#paint0_linear_81_3)"/>
<path d="M1248.42 542.54C1246.33 542.537 1244.25 542.286 1242.22 541.79C1235.8 540.212 1230.23 536.245 1226.64 530.697C1223.05 525.149 1221.71 518.439 1222.9 511.938C1224.08 505.437 1227.71 499.634 1233.03 495.714C1238.35 491.795 1244.97 490.054 1251.53 490.848C1258.09 491.642 1264.1 494.91 1268.33 499.985C1272.57 505.06 1274.7 511.56 1274.31 518.157C1273.91 524.754 1271.01 530.951 1266.2 535.482C1261.39 540.014 1255.03 542.538 1248.42 542.54ZM1248.42 502.36C1244.98 502.373 1241.67 503.643 1239.1 505.93C1236.53 508.217 1234.89 511.364 1234.48 514.778C1234.08 518.191 1234.93 521.636 1236.88 524.464C1238.84 527.292 1241.76 529.307 1245.1 530.13C1247.03 530.595 1249.04 530.645 1251 530.277C1252.95 529.91 1254.8 529.133 1256.43 527.997C1258.06 526.862 1259.44 525.394 1260.46 523.69C1261.48 521.986 1262.14 520.085 1262.37 518.112C1262.61 516.138 1262.42 514.137 1261.83 512.24C1261.24 510.343 1260.25 508.593 1258.93 507.105C1257.61 505.617 1256 504.425 1254.18 503.607C1252.37 502.789 1250.41 502.364 1248.42 502.36Z" fill="#E7F6FF"/>
<path d="M1224.75 570.048C1226.22 563.967 1222.49 557.841 1216.4 556.367C1210.32 554.892 1204.2 558.627 1202.72 564.708C1201.25 570.789 1204.98 576.914 1211.06 578.389C1217.15 579.863 1223.27 576.129 1224.75 570.048Z" fill="#E7F6FF"/>
<path d="M55.19 540.068C48.3215 539.918 41.7894 537.065 37.0117 532.128C32.2341 527.191 29.5965 520.569 29.6715 513.7C29.7466 506.83 32.5282 500.267 37.4126 495.436C42.297 490.604 48.8899 487.895 55.76 487.895C62.6301 487.895 69.223 490.604 74.1074 495.436C78.9917 500.267 81.7734 506.83 81.8484 513.7C81.9235 520.569 79.2859 527.191 74.5082 532.128C69.7306 537.065 63.1985 539.918 56.33 540.068H55.19ZM55.19 499.898H54.6C50.8904 499.979 47.3622 501.519 44.7814 504.185C42.2006 506.851 40.7757 510.427 40.8158 514.138C40.856 517.848 42.3581 521.392 44.9959 524.002C47.6338 526.611 51.1945 528.075 54.905 528.075C58.6155 528.075 62.1762 526.611 64.814 524.002C67.4519 521.392 68.954 517.848 68.9942 514.138C69.0343 510.427 67.6093 506.851 65.0286 504.185C62.4478 501.519 58.9196 499.979 55.21 499.898H55.19Z" fill="#E7F6FF"/>
<path d="M36.5891 583.85C42.8407 583.58 47.69 578.294 47.4203 572.042C47.1506 565.791 41.8641 560.941 35.6125 561.211C29.361 561.481 24.5117 566.767 24.7813 573.019C25.051 579.27 30.3375 584.12 36.5891 583.85Z" fill="#E7F6FF"/>
<path d="M709.08 118.257C702.854 118.262 696.832 116.039 692.104 111.989C687.376 107.939 684.253 102.33 683.302 96.1771C682.352 90.0244 683.635 83.7345 686.92 78.446C690.205 73.1575 695.275 69.2198 701.212 67.3456C707.148 65.4714 713.56 65.7846 719.286 68.2284C725.012 70.6723 729.674 75.0854 732.428 80.6688C735.182 86.2523 735.846 92.6373 734.3 98.668C732.754 104.699 729.1 109.977 724 113.547C719.626 116.607 714.418 118.251 709.08 118.257ZM709 78.0967C705.357 78.0929 701.854 79.4951 699.219 82.0111C696.585 84.527 695.023 87.9625 694.86 91.6015C694.696 95.2406 695.943 98.8024 698.341 101.545C700.739 104.287 704.102 105.998 707.731 106.321C711.359 106.644 714.972 105.555 717.817 103.279C720.662 101.004 722.519 97.7187 723.001 94.1081C723.483 90.4974 722.553 86.8399 720.405 83.898C718.257 80.9562 715.056 78.9568 711.47 78.3167C710.655 78.1713 709.828 78.0977 709 78.0967Z" fill="#E7F6FF"/>
<path d="M655.885 116.833C661.008 113.24 662.249 106.175 658.656 101.051C655.063 95.9282 647.998 94.6874 642.875 98.28C637.751 101.873 636.511 108.938 640.103 114.062C643.696 119.185 650.762 120.426 655.885 116.833Z" fill="#E7F6FF"/>
<path d="M1286 252.657C1286 241.662 1281.63 231.116 1273.86 223.341C1266.08 215.565 1255.54 211.197 1244.54 211.197C1243.62 211.197 1242.71 211.197 1241.81 211.287C1241.87 210.387 1241.9 209.477 1241.9 208.557C1241.9 202.665 1240.64 196.84 1238.21 191.472C1235.78 186.103 1232.24 181.314 1227.81 177.424C1223.38 173.534 1218.18 170.632 1212.54 168.912C1206.91 167.191 1200.97 166.692 1195.13 167.447C1189.28 168.203 1183.67 170.195 1178.65 173.291C1173.64 176.388 1169.34 180.518 1166.05 185.405C1162.76 190.293 1160.55 195.826 1159.56 201.635C1158.58 207.445 1158.84 213.398 1160.34 219.097C1155.33 215.464 1149.57 212.998 1143.48 211.881C1137.39 210.764 1131.13 211.025 1125.16 212.644C1119.18 214.262 1113.65 217.198 1108.95 221.236C1104.26 225.274 1100.54 230.311 1098.04 235.977C1095.55 241.644 1094.36 247.796 1094.56 253.983C1094.76 260.17 1096.34 266.233 1099.19 271.73C1102.03 277.226 1106.07 282.015 1111.01 285.745C1115.95 289.476 1121.66 292.053 1127.73 293.287C1130.21 299.855 1134.31 305.687 1139.66 310.236C1145 314.784 1151.42 317.901 1158.3 319.294C1165.17 320.687 1172.3 320.311 1178.99 318.201C1185.68 316.09 1191.73 312.314 1196.57 307.227C1201.52 310.963 1207.24 313.541 1213.32 314.771C1219.4 316.002 1225.67 315.854 1231.68 314.338C1237.7 312.822 1243.29 309.976 1248.06 306.012C1252.83 302.047 1256.64 297.063 1259.23 291.427C1267.1 288.444 1273.87 283.138 1278.66 276.213C1283.44 269.288 1286 261.073 1286 252.657Z" fill="white"/>
<path d="M191.45 152.998C191.455 147.551 190.387 142.156 188.306 137.122C186.226 132.088 183.174 127.513 179.324 123.659C175.475 119.805 170.904 116.747 165.872 114.661C160.841 112.574 155.447 111.499 150 111.498C149.08 111.498 148.17 111.498 147.27 111.588C147.33 110.688 147.36 109.778 147.36 108.858C147.359 102.966 146.102 97.1409 143.672 91.7724C141.243 86.4039 137.697 81.615 133.271 77.7249C128.844 73.8348 123.64 70.9328 118.004 69.2125C112.368 67.4921 106.43 66.993 100.586 67.7482C94.7423 68.5034 89.1264 70.4957 84.1129 73.5922C79.0995 76.6888 74.8038 80.8185 71.512 85.7059C68.2203 90.5934 66.0082 96.1265 65.0233 101.936C64.0383 107.746 64.3031 113.699 65.8 119.398C60.7892 115.764 55.0283 113.298 48.9401 112.182C42.8519 111.065 36.5908 111.326 30.6165 112.944C24.6421 114.563 19.1061 117.499 14.4146 121.537C9.72308 125.575 5.99518 130.612 3.50446 136.278C1.01375 141.945 -0.176575 148.097 0.0208525 154.284C0.218279 160.47 1.79844 166.534 4.64539 172.03C7.49233 177.527 11.5338 182.316 16.4732 186.046C21.4126 189.776 27.1246 192.354 33.19 193.588C35.6688 200.15 39.7719 205.976 45.1154 210.52C50.459 215.065 56.8681 218.179 63.7431 219.572C70.618 220.965 77.7339 220.59 84.4248 218.484C91.1157 216.378 97.1627 212.608 102 207.528C106.949 211.264 112.673 213.842 118.75 215.072C124.827 216.303 131.103 216.155 137.115 214.638C143.127 213.122 148.723 210.277 153.49 206.312C158.257 202.347 162.074 197.364 164.66 191.728C172.526 188.751 179.301 183.452 184.086 176.535C188.871 169.618 191.439 161.409 191.45 152.998Z" fill="white"/>
<path d="M954.18 742.93H357.68V729.93H954.18C955.904 729.93 957.557 730.615 958.776 731.833C959.995 733.052 960.68 734.706 960.68 736.43C960.68 738.154 959.995 739.807 958.776 741.026C957.557 742.245 955.904 742.93 954.18 742.93Z" fill="#426572"/>
<path d="M331 742.93H294.53C292.806 742.93 291.153 742.245 289.934 741.026C288.715 739.807 288.03 738.154 288.03 736.43C288.03 734.706 288.715 733.052 289.934 731.833C291.153 730.615 292.806 729.93 294.53 729.93H331C332.724 729.93 334.377 730.615 335.596 731.833C336.815 733.052 337.5 734.706 337.5 736.43C337.5 738.154 336.815 739.807 335.596 741.026C334.377 742.245 332.724 742.93 331 742.93Z" fill="#426572"/>
<path d="M270.86 742.93H259.24C257.516 742.93 255.863 742.245 254.644 741.026C253.425 739.807 252.74 738.154 252.74 736.43C252.74 734.706 253.425 733.052 254.644 731.833C255.863 730.615 257.516 729.93 259.24 729.93H270.86C272.584 729.93 274.237 730.615 275.456 731.833C276.675 733.052 277.36 734.706 277.36 736.43C277.36 738.154 276.675 739.807 275.456 741.026C274.237 742.245 272.584 742.93 270.86 742.93Z" fill="#426572"/>
<path d="M1163.34 742.93H980V729.93H1163.34C1165.06 729.93 1166.72 730.615 1167.94 731.833C1169.16 733.052 1169.84 734.706 1169.84 736.43C1169.84 738.154 1169.16 739.807 1167.94 741.026C1166.72 742.245 1165.06 742.93 1163.34 742.93Z" fill="#426572"/>
<path d="M226 742.93H42.65V729.93H226C227.724 729.93 229.377 730.615 230.596 731.833C231.815 733.052 232.5 734.706 232.5 736.43C232.5 738.154 231.815 739.807 230.596 741.026C229.377 742.245 227.724 742.93 226 742.93Z" fill="#426572"/>
<path d="M705.24 541.488H549.24C542.613 541.488 537.24 546.861 537.24 553.488V703.488C537.24 710.116 542.613 715.488 549.24 715.488H705.24C711.867 715.488 717.24 710.116 717.24 703.488V553.488C717.24 546.861 711.867 541.488 705.24 541.488Z" fill="#E8EDF7"/>
<path d="M717.24 613.488H537.24V668.488H717.24V613.488Z" fill="#C1CEDE"/>
<path d="M702.75 723.488H546.75C541.976 723.488 537.398 721.592 534.022 718.216C530.646 714.841 528.75 710.262 528.75 705.488V555.488C528.75 550.714 530.646 546.136 534.022 542.76C537.398 539.385 541.976 537.488 546.75 537.488H702.75C707.524 537.488 712.102 539.385 715.478 542.76C718.854 546.136 720.75 550.714 720.75 555.488V705.488C720.75 710.262 718.854 714.841 715.478 718.216C712.102 721.592 707.524 723.488 702.75 723.488ZM546.75 549.488C545.159 549.488 543.633 550.12 542.507 551.246C541.382 552.371 540.75 553.897 540.75 555.488V705.488C540.75 707.08 541.382 708.606 542.507 709.731C543.633 710.856 545.159 711.488 546.75 711.488H702.75C704.341 711.488 705.867 710.856 706.993 709.731C708.118 708.606 708.75 707.08 708.75 705.488V555.488C708.75 553.897 708.118 552.371 706.993 551.246C705.867 550.12 704.341 549.488 702.75 549.488H546.75Z" fill="#426572"/>
<path d="M1082.74 128.469V590.469C1082.74 601.495 1079.09 612.21 1072.37 620.949C1065.65 629.688 1056.23 635.96 1045.57 638.789C1041.4 639.89 1037.1 640.444 1032.78 640.439H222.71C209.449 640.439 196.731 635.171 187.355 625.795C177.978 616.418 172.71 603.7 172.71 590.439V128.439C172.696 119.204 175.251 110.146 180.09 102.279C180.72 101.279 181.39 100.279 182.09 99.2793C187.597 91.6094 195.162 85.6535 203.91 82.0993C209.864 79.6783 216.232 78.4386 222.66 78.4493H1032.71C1039.28 78.4453 1045.79 79.7364 1051.86 82.2486C1057.93 84.7608 1063.45 88.445 1068.09 93.0904C1072.74 97.7358 1076.42 103.251 1078.94 109.322C1081.45 115.393 1082.74 121.899 1082.74 128.469Z" fill="#E8EDF7"/>
<path d="M1026.77 648.488H216.77C201.918 648.488 187.674 642.588 177.172 632.086C166.67 621.584 160.77 607.34 160.77 592.488V130.488C160.755 116.342 166.117 102.719 175.77 92.3779C176.41 91.6779 177.13 90.9479 178.01 90.0979C188.42 80.0728 202.317 74.4831 216.77 74.5079H1026.77C1041.62 74.5079 1055.87 80.4079 1066.37 90.9099C1076.87 101.412 1082.77 115.656 1082.77 130.508V592.508C1082.78 599.864 1081.33 607.15 1078.52 613.947C1075.71 620.745 1071.59 626.922 1066.39 632.123C1061.18 637.325 1055.01 641.45 1048.21 644.261C1041.41 647.073 1034.13 648.516 1026.77 648.508V648.488ZM216.77 86.4879C205.413 86.4665 194.493 90.8631 186.32 98.7479C185.63 99.4079 185.08 99.9679 184.59 100.498C176.988 108.636 172.769 119.362 172.79 130.498V592.498C172.79 604.167 177.426 615.359 185.677 623.611C193.929 631.862 205.12 636.498 216.79 636.498H1026.79C1032.57 636.506 1038.3 635.373 1043.64 633.165C1048.98 630.956 1053.83 627.716 1057.92 623.628C1062.01 619.541 1065.25 614.687 1067.46 609.345C1069.67 604.003 1070.8 598.278 1070.79 592.498V130.498C1070.79 118.828 1066.15 107.637 1057.9 99.3852C1049.65 91.1336 1038.46 86.4979 1026.79 86.4979L216.77 86.4879Z" fill="#426572"/>
<path d="M1017.39 110.488H228.13C211.633 110.488 198.26 123.862 198.26 140.358V584.618C198.26 601.115 211.633 614.488 228.13 614.488H1017.39C1033.89 614.488 1047.26 601.115 1047.26 584.618V140.358C1047.26 123.862 1033.89 110.488 1017.39 110.488Z" fill="#C1CEDE"/>
<path d="M232.62 126.488H1012.88C1017.35 126.488 1021.63 128.262 1024.79 131.421C1027.95 134.579 1029.72 138.862 1029.72 143.328V533.488H215.78V143.328C215.78 138.862 217.554 134.579 220.712 131.421C223.87 128.262 228.154 126.488 232.62 126.488Z" fill="#F1F6FE"/>
<path d="M1045.26 531.488V582.618C1045.26 590.539 1042.11 598.135 1036.51 603.737C1030.91 609.338 1023.31 612.486 1015.39 612.488H226.13C218.208 612.488 210.61 609.341 205.009 603.74C199.407 598.138 196.26 590.54 196.26 582.618V531.488H213.79V533.488H1027.73V531.488H1045.26Z" fill="#E8EDF7"/>
<path d="M1045.73 529.488H198.73V547.488H1045.73V529.488Z" fill="#C1CEDE"/>
<path d="M1044.76 525.488H200.76V537.488H1044.76V525.488Z" fill="#426572"/>
<path d="M923.73 161.488H311.73C305.103 161.488 299.73 166.861 299.73 173.488V481.488C299.73 488.116 305.103 493.488 311.73 493.488H923.73C930.357 493.488 935.73 488.116 935.73 481.488V173.488C935.73 166.861 930.357 161.488 923.73 161.488Z" fill="white"/>
<path d="M309.73 219.488H937.73V177.308L925.73 161.488H375.73H321.73L301.73 177.308V219.488H309.73Z" fill="#E2F2FF"/>
<path d="M925.73 499.488H313.73C308.956 499.488 304.378 497.592 301.002 494.216C297.626 490.841 295.73 486.262 295.73 481.488V173.488C295.73 168.714 297.626 164.136 301.002 160.76C304.378 157.385 308.956 155.488 313.73 155.488H925.73C930.504 155.488 935.082 157.385 938.458 160.76C941.834 164.136 943.73 168.714 943.73 173.488V481.488C943.73 486.262 941.834 490.841 938.458 494.216C935.082 497.592 930.504 499.488 925.73 499.488ZM313.73 167.488C312.139 167.488 310.613 168.12 309.487 169.246C308.362 170.371 307.73 171.897 307.73 173.488V481.488C307.73 483.08 308.362 484.606 309.487 485.731C310.613 486.856 312.139 487.488 313.73 487.488H925.73C927.321 487.488 928.847 486.856 929.973 485.731C931.098 484.606 931.73 483.08 931.73 481.488V173.488C931.73 171.897 931.098 170.371 929.973 169.246C928.847 168.12 927.321 167.488 925.73 167.488H313.73Z" fill="#426572"/>
<path d="M769.92 694.488H478.24C471.613 694.488 466.24 699.861 466.24 706.488V719.488C466.24 726.116 471.613 731.488 478.24 731.488H769.92C776.547 731.488 781.92 726.116 781.92 719.488V706.488C781.92 699.861 776.547 694.488 769.92 694.488Z" fill="#E8EDF7"/>
<path d="M771.24 738.488H479.56C474.786 738.488 470.208 736.592 466.832 733.216C463.456 729.841 461.56 725.262 461.56 720.488V707.488C461.56 702.714 463.456 698.136 466.832 694.76C470.208 691.385 474.786 689.488 479.56 689.488H771.24C776.014 689.488 780.592 691.385 783.968 694.76C787.344 698.136 789.24 702.714 789.24 707.488V720.488C789.24 725.262 787.344 729.841 783.968 733.216C780.592 736.592 776.014 738.488 771.24 738.488ZM479.56 701.488C477.969 701.488 476.443 702.12 475.317 703.246C474.192 704.371 473.56 705.897 473.56 707.488V720.488C473.56 722.08 474.192 723.606 475.317 724.731C476.443 725.856 477.969 726.488 479.56 726.488H771.24C772.831 726.488 774.357 725.856 775.483 724.731C776.608 723.606 777.24 722.08 777.24 720.488V707.488C777.24 705.897 776.608 704.371 775.483 703.246C774.357 702.12 772.831 701.488 771.24 701.488H479.56Z" fill="#426572"/>
<path d="M338.24 200.738C342.658 200.738 346.24 197.157 346.24 192.738C346.24 188.32 342.658 184.738 338.24 184.738C333.822 184.738 330.24 188.32 330.24 192.738C330.24 197.157 333.822 200.738 338.24 200.738Z" fill="#CADCE8"/>
<path d="M362.24 200.738C366.658 200.738 370.24 197.157 370.24 192.738C370.24 188.32 366.658 184.738 362.24 184.738C357.822 184.738 354.24 188.32 354.24 192.738C354.24 197.157 357.822 200.738 362.24 200.738Z" fill="#CADCE8"/>
<path d="M386.24 200.738C390.658 200.738 394.24 197.157 394.24 192.738C394.24 188.32 390.658 184.738 386.24 184.738C381.822 184.738 378.24 188.32 378.24 192.738C378.24 197.157 381.822 200.738 386.24 200.738Z" fill="#CADCE8"/>
<path d="M906.74 184.738H419.74C416.15 184.738 413.24 187.648 413.24 191.238V194.238C413.24 197.828 416.15 200.738 419.74 200.738H906.74C910.33 200.738 913.24 197.828 913.24 194.238V191.238C913.24 187.648 910.33 184.738 906.74 184.738Z" fill="#CADCE8"/>
<path d="M895.24 245.488H349.24C342.613 245.488 337.24 250.861 337.24 257.488V347.488C337.24 354.116 342.613 359.488 349.24 359.488H895.24C901.867 359.488 907.24 354.116 907.24 347.488V257.488C907.24 250.861 901.867 245.488 895.24 245.488Z" fill="#87D6FE"/>
<path d="M571.592 323L564.2 309.944H561.032V323H554.312V289.496H566.888C569.48 289.496 571.688 289.96 573.512 290.888C575.336 291.784 576.696 293.016 577.592 294.584C578.52 296.12 578.984 297.848 578.984 299.768C578.984 301.976 578.344 303.976 577.064 305.768C575.784 307.528 573.88 308.744 571.352 309.416L579.368 323H571.592ZM561.032 304.904H566.648C568.472 304.904 569.832 304.472 570.728 303.608C571.624 302.712 572.072 301.48 572.072 299.912C572.072 298.376 571.624 297.192 570.728 296.36C569.832 295.496 568.472 295.064 566.648 295.064H561.032V304.904ZM591.686 289.496V310.232C591.686 312.504 592.278 314.248 593.462 315.464C594.646 316.648 596.31 317.24 598.454 317.24C600.63 317.24 602.31 316.648 603.494 315.464C604.678 314.248 605.27 312.504 605.27 310.232V289.496H612.038V310.184C612.038 313.032 611.414 315.448 610.166 317.432C608.95 319.384 607.302 320.856 605.222 321.848C603.174 322.84 600.886 323.336 598.358 323.336C595.862 323.336 593.59 322.84 591.542 321.848C589.526 320.856 587.926 319.384 586.742 317.432C585.558 315.448 584.966 313.032 584.966 310.184V289.496H591.686ZM625.251 317.672H636.291V323H618.531V289.496H625.251V317.672ZM647.282 294.92V303.32H658.562V308.648H647.282V317.528H660.002V323H640.562V289.448H660.002V294.92H647.282ZM677.677 323.336C675.341 323.336 673.229 322.936 671.341 322.136C669.485 321.336 668.013 320.184 666.925 318.68C665.837 317.176 665.277 315.4 665.245 313.352H672.445C672.541 314.728 673.021 315.816 673.885 316.616C674.781 317.416 675.997 317.816 677.533 317.816C679.101 317.816 680.333 317.448 681.229 316.712C682.125 315.944 682.573 314.952 682.573 313.736C682.573 312.744 682.269 311.928 681.661 311.288C681.053 310.648 680.285 310.152 679.357 309.8C678.461 309.416 677.213 309 675.613 308.552C673.437 307.912 671.661 307.288 670.285 306.68C668.941 306.04 667.773 305.096 666.781 303.848C665.821 302.568 665.341 300.872 665.341 298.76C665.341 296.776 665.837 295.048 666.829 293.576C667.821 292.104 669.213 290.984 671.005 290.216C672.797 289.416 674.845 289.016 677.149 289.016C680.605 289.016 683.405 289.864 685.549 291.56C687.725 293.224 688.925 295.56 689.149 298.568H681.757C681.693 297.416 681.197 296.472 680.269 295.736C679.373 294.968 678.173 294.584 676.669 294.584C675.357 294.584 674.301 294.92 673.501 295.592C672.733 296.264 672.349 297.24 672.349 298.52C672.349 299.416 672.637 300.168 673.213 300.776C673.821 301.352 674.557 301.832 675.421 302.216C676.317 302.568 677.565 302.984 679.165 303.464C681.341 304.104 683.117 304.744 684.493 305.384C685.869 306.024 687.053 306.984 688.045 308.264C689.037 309.544 689.533 311.224 689.533 313.304C689.533 315.096 689.069 316.76 688.141 318.296C687.213 319.832 685.853 321.064 684.061 321.992C682.269 322.888 680.141 323.336 677.677 323.336Z" fill="white"/>
<path d="M894.24 367.488H348.24C343.466 367.488 338.888 365.592 335.512 362.216C332.136 358.841 330.24 354.262 330.24 349.488V259.488C330.24 254.714 332.136 250.136 335.512 246.76C338.888 243.385 343.466 241.488 348.24 241.488H894.24C899.014 241.488 903.592 243.385 906.968 246.76C910.344 250.136 912.24 254.714 912.24 259.488V349.488C912.24 354.262 910.344 358.841 906.968 362.216C903.592 365.592 899.014 367.488 894.24 367.488ZM348.24 253.488C346.649 253.488 345.123 254.12 343.997 255.246C342.872 256.371 342.24 257.897 342.24 259.488V349.488C342.24 351.08 342.872 352.606 343.997 353.731C345.123 354.856 346.649 355.488 348.24 355.488H894.24C895.831 355.488 897.357 354.856 898.483 353.731C899.608 352.606 900.24 351.08 900.24 349.488V259.488C900.24 257.897 899.608 256.371 898.483 255.246C897.357 254.12 895.831 253.488 894.24 253.488H348.24Z" fill="#426572"/>
<path d="M500.2 394.488H353.39C346.763 394.488 341.39 399.861 341.39 406.488V445.488C341.39 452.116 346.763 457.488 353.39 457.488H500.2C506.827 457.488 512.2 452.116 512.2 445.488V406.488C512.2 399.861 506.827 394.488 500.2 394.488Z" fill="#FFCB00"/>
<path d="M498.06 464.488H351.24C346.466 464.488 341.888 462.592 338.512 459.216C335.136 455.841 333.24 451.262 333.24 446.488V407.488C333.24 402.714 335.136 398.136 338.512 394.76C341.888 391.385 346.466 389.488 351.24 389.488H498.06C502.834 389.488 507.412 391.385 510.788 394.76C514.164 398.136 516.06 402.714 516.06 407.488V446.488C516.06 451.262 514.164 455.841 510.788 459.216C507.412 462.592 502.834 464.488 498.06 464.488ZM351.25 401.488C349.659 401.488 348.133 402.12 347.007 403.246C345.882 404.371 345.25 405.897 345.25 407.488V446.488C345.25 448.08 345.882 449.606 347.007 450.731C348.133 451.856 349.659 452.488 351.25 452.488H498.06C499.651 452.488 501.177 451.856 502.303 450.731C503.428 449.606 504.06 448.08 504.06 446.488V407.488C504.06 405.897 503.428 404.371 502.303 403.246C501.177 402.12 499.651 401.488 498.06 401.488H351.25Z" fill="#426572"/>
<path d="M695.72 394.488H548.91C542.283 394.488 536.91 399.861 536.91 406.488V445.488C536.91 452.116 542.283 457.488 548.91 457.488H695.72C702.347 457.488 707.72 452.116 707.72 445.488V406.488C707.72 399.861 702.347 394.488 695.72 394.488Z" fill="#FFCB00"/>
<path d="M693.58 464.488H546.76C541.986 464.488 537.408 462.592 534.032 459.216C530.656 455.841 528.76 451.262 528.76 446.488V407.488C528.76 402.714 530.656 398.136 534.032 394.76C537.408 391.385 541.986 389.488 546.76 389.488H693.58C698.354 389.488 702.932 391.385 706.308 394.76C709.684 398.136 711.58 402.714 711.58 407.488V446.488C711.58 451.262 709.684 455.841 706.308 459.216C702.932 462.592 698.354 464.488 693.58 464.488ZM546.77 401.488C545.179 401.488 543.653 402.12 542.527 403.246C541.402 404.371 540.77 405.897 540.77 407.488V446.488C540.77 448.08 541.402 449.606 542.527 450.731C543.653 451.856 545.179 452.488 546.77 452.488H693.58C695.171 452.488 696.697 451.856 697.823 450.731C698.948 449.606 699.58 448.08 699.58 446.488V407.488C699.58 405.897 698.948 404.371 697.823 403.246C696.697 402.12 695.171 401.488 693.58 401.488H546.77Z" fill="#426572"/>
<path d="M891.24 394.488H744.43C737.803 394.488 732.43 399.861 732.43 406.488V445.488C732.43 452.116 737.803 457.488 744.43 457.488H891.24C897.867 457.488 903.24 452.116 903.24 445.488V406.488C903.24 399.861 897.867 394.488 891.24 394.488Z" fill="#FFCB00"/>
<path d="M889.1 464.488H742.28C737.506 464.488 732.928 462.592 729.552 459.216C726.176 455.841 724.28 451.262 724.28 446.488V407.488C724.28 402.714 726.176 398.136 729.552 394.76C732.928 391.385 737.506 389.488 742.28 389.488H889.1C893.874 389.488 898.452 391.385 901.828 394.76C905.204 398.136 907.1 402.714 907.1 407.488V446.488C907.1 451.262 905.204 455.841 901.828 459.216C898.452 462.592 893.874 464.488 889.1 464.488ZM742.29 401.488C740.699 401.488 739.173 402.12 738.047 403.246C736.922 404.371 736.29 405.897 736.29 407.488V446.488C736.29 448.08 736.922 449.606 738.047 450.731C739.173 451.856 740.699 452.488 742.29 452.488H889.1C890.691 452.488 892.217 451.856 893.343 450.731C894.468 449.606 895.1 448.08 895.1 446.488V407.488C895.1 405.897 894.468 404.371 893.343 403.246C892.217 402.12 890.691 401.488 889.1 401.488H742.29Z" fill="#426572"/>
<path d="M1017.38 618.488H228.13C218.62 618.478 209.502 614.695 202.778 607.971C196.053 601.246 192.271 592.128 192.26 582.618V138.358C192.271 128.848 196.053 119.731 202.778 113.006C209.502 106.281 218.62 102.499 228.13 102.488H1017.38C1026.89 102.499 1036.01 106.281 1042.73 113.006C1049.46 119.731 1053.24 128.848 1053.25 138.358V582.608C1053.24 592.12 1049.46 601.24 1042.74 607.967C1036.01 614.694 1026.89 618.478 1017.38 618.488ZM228.13 114.488C221.802 114.496 215.735 117.014 211.26 121.488C206.785 125.963 204.268 132.03 204.26 138.358V582.608C204.268 588.937 206.785 595.003 211.26 599.478C215.735 603.953 221.802 606.47 228.13 606.478H1017.38C1023.71 606.47 1029.78 603.953 1034.25 599.478C1038.72 595.003 1041.24 588.937 1041.25 582.608V138.358C1041.24 132.03 1038.72 125.963 1034.25 121.488C1029.78 117.014 1023.71 114.496 1017.38 114.488H228.13Z" fill="#426572"/>
<path opacity="0.1" d="M111.12 192.387C112.686 193.115 114.393 193.49 116.12 193.487H111.12V192.387Z" fill="#606060"/>
<path d="M986.12 426.29V674.16C986.12 680.788 991.493 686.16 998.12 686.16H1137.24C1143.87 686.16 1149.24 680.788 1149.24 674.16V426.29C1149.24 419.663 1143.87 414.29 1137.24 414.29H998.12C991.493 414.29 986.12 419.663 986.12 426.29Z" fill="white"/>
<path d="M1149.24 430.919V676.199C1149.23 679.712 1147.83 683.078 1145.35 685.567C1142.87 688.056 1139.51 689.465 1136 689.489H999.42C995.898 689.478 992.524 688.075 990.034 685.585C987.544 683.095 986.141 679.72 986.13 676.199V667.339H1111.59C1115.12 667.328 1118.5 665.918 1120.99 663.417C1123.48 660.916 1124.88 657.529 1124.88 653.999V417.629H1136C1139.51 417.653 1142.87 419.062 1145.35 421.551C1147.83 424.039 1149.23 427.406 1149.24 430.919Z" fill="#DEE6F1"/>
<path d="M1135.65 692.288H995.43C991.798 692.279 988.261 691.128 985.32 688.998C983.056 687.385 981.208 685.255 979.932 682.786C978.655 680.316 977.986 677.578 977.98 674.798V425.798C977.976 423.35 978.494 420.929 979.5 418.698C980.873 415.619 983.107 413.003 985.934 411.167C988.761 409.33 992.059 408.351 995.43 408.348H1135.66C1139.15 408.367 1142.55 409.424 1145.43 411.383C1148.31 413.342 1150.55 416.114 1151.85 419.348L1152.34 420.348V420.698C1152.85 422.349 1153.11 424.069 1153.11 425.798V674.798C1153.09 678.995 1151.57 683.047 1148.81 686.216C1146.06 689.386 1142.26 691.462 1138.11 692.068C1137.3 692.201 1136.47 692.275 1135.65 692.288ZM995.43 420.418C994.371 420.416 993.335 420.723 992.447 421.3C991.559 421.877 990.859 422.699 990.43 423.668C990.118 424.359 989.957 425.109 989.96 425.868V674.868C989.966 675.736 990.178 676.591 990.58 677.362C990.981 678.132 991.561 678.796 992.27 679.298C993.186 679.952 994.284 680.302 995.41 680.298H1135.64C1135.88 680.315 1136.12 680.315 1136.36 680.298C1137.67 680.117 1138.86 679.472 1139.73 678.48C1140.6 677.488 1141.08 676.216 1141.09 674.898V425.898C1141.09 425.298 1140.99 424.703 1140.79 424.138L1140.32 423.138C1139.84 422.325 1139.15 421.652 1138.33 421.182C1137.51 420.713 1136.58 420.463 1135.64 420.458L995.43 420.418Z" fill="#426572"/>
<path d="M1116.45 503.066H1016.77V515.066H1116.45V503.066Z" fill="#426572"/>
<path d="M1116.45 469.84H1016.77V481.84H1116.45V469.84Z" fill="#426572"/>
<path d="M1116.45 540.727H1016.77V552.727H1116.45V540.727Z" fill="#426572"/>
<path d="M813.91 565.488H968.24C972.1 565.488 972.11 559.488 968.24 559.488H813.91C810.05 559.488 810.04 565.488 813.91 565.488Z" fill="white"/>
<path d="M754.24 565.488H794.41C798.27 565.488 798.28 559.488 794.41 559.488H754.24C750.38 559.488 750.37 565.488 754.24 565.488Z" fill="white"/>
</g>
<defs>
<linearGradient id="paint0_linear_81_3" x1="1.31995" y1="371.188" x2="1254.6" y2="371.188" gradientUnits="userSpaceOnUse">
<stop stop-color="#C5E9FA"/>
<stop offset="1" stop-color="#C4F4EA"/>
</linearGradient>
</defs>
</svg>
