<svg width="94" height="36" viewBox="0 0 94 36" fill="none" xmlns="http://www.w3.org/2000/svg">
<path d="M55.712 29.024L52.784 25.856C52.064 26.064 51.272 26.168 50.408 26.168C48.856 26.168 47.424 25.808 46.112 25.088C44.816 24.352 43.784 23.336 43.016 22.04C42.264 20.728 41.888 19.256 41.888 17.624C41.888 15.992 42.264 14.528 43.016 13.232C43.784 11.936 44.816 10.928 46.112 10.208C47.424 9.472 48.856 9.104 50.408 9.104C51.976 9.104 53.408 9.472 54.704 10.208C56.016 10.928 57.048 11.936 57.8 13.232C58.552 14.528 58.928 15.992 58.928 17.624C58.928 19.16 58.592 20.552 57.92 21.8C57.264 23.032 56.352 24.024 55.184 24.776L59.192 29.024H55.712ZM44.696 17.624C44.696 18.856 44.936 19.944 45.416 20.888C45.912 21.816 46.592 22.536 47.456 23.048C48.32 23.544 49.304 23.792 50.408 23.792C51.512 23.792 52.496 23.544 53.36 23.048C54.224 22.536 54.896 21.816 55.376 20.888C55.872 19.944 56.12 18.856 56.12 17.624C56.12 16.392 55.872 15.312 55.376 14.384C54.896 13.456 54.224 12.744 53.36 12.248C52.496 11.752 51.512 11.504 50.408 11.504C49.304 11.504 48.32 11.752 47.456 12.248C46.592 12.744 45.912 13.456 45.416 14.384C44.936 15.312 44.696 16.392 44.696 17.624ZM73.6666 12.776V26H70.9306V24.44C70.4986 24.984 69.9306 25.416 69.2266 25.736C68.5386 26.04 67.8026 26.192 67.0186 26.192C65.9786 26.192 65.0426 25.976 64.2106 25.544C63.3946 25.112 62.7466 24.472 62.2666 23.624C61.8026 22.776 61.5706 21.752 61.5706 20.552V12.776H64.2826V20.144C64.2826 21.328 64.5786 22.24 65.1706 22.88C65.7626 23.504 66.5706 23.816 67.5946 23.816C68.6186 23.816 69.4266 23.504 70.0186 22.88C70.6266 22.24 70.9306 21.328 70.9306 20.144V12.776H73.6666ZM78.6686 11.024C78.1726 11.024 77.7566 10.856 77.4206 10.52C77.0846 10.184 76.9166 9.768 76.9166 9.272C76.9166 8.776 77.0846 8.36 77.4206 8.024C77.7566 7.688 78.1726 7.52 78.6686 7.52C79.1486 7.52 79.5566 7.688 79.8926 8.024C80.2286 8.36 80.3966 8.776 80.3966 9.272C80.3966 9.768 80.2286 10.184 79.8926 10.52C79.5566 10.856 79.1486 11.024 78.6686 11.024ZM80.0126 12.776V26H77.2766V12.776H80.0126ZM86.0287 23.768H92.0287V26H82.8607V23.768L88.8847 15.008H82.8607V12.776H92.0287V15.008L86.0287 23.768Z" fill="#03ADB6"/>
<rect y="1" width="38" height="34" rx="10" fill="#FFCB00"/>
<path d="M24.6 18.22C24.6 18.6333 24.5733 19.0067 24.52 19.34H16.1C16.1667 20.22 16.4933 20.9267 17.08 21.46C17.6667 21.9933 18.3867 22.26 19.24 22.26C20.4667 22.26 21.3333 21.7467 21.84 20.72H24.3C23.9667 21.7333 23.36 22.5667 22.48 23.22C21.6133 23.86 20.5333 24.18 19.24 24.18C18.1867 24.18 17.24 23.9467 16.4 23.48C15.5733 23 14.92 22.3333 14.44 21.48C13.9733 20.6133 13.74 19.6133 13.74 18.48C13.74 17.3467 13.9667 16.3533 14.42 15.5C14.8867 14.6333 15.5333 13.9667 16.36 13.5C17.2 13.0333 18.16 12.8 19.24 12.8C20.28 12.8 21.2067 13.0267 22.02 13.48C22.8333 13.9333 23.4667 14.5733 23.92 15.4C24.3733 16.2133 24.6 17.1533 24.6 18.22ZM22.22 17.5C22.2067 16.66 21.9067 15.9867 21.32 15.48C20.7333 14.9733 20.0067 14.72 19.14 14.72C18.3533 14.72 17.68 14.9733 17.12 15.48C16.56 15.9733 16.2267 16.6467 16.12 17.5H22.22Z" fill="white"/>
</svg>
